<?xml version="1.0" encoding="utf-8" standalone="no"?>
<!DOCTYPE svg PUBLIC "-//W3C//DTD SVG 1.1//EN"
  "http://www.w3.org/Graphics/SVG/1.1/DTD/svg11.dtd">
<!-- Created with matplotlib (https://matplotlib.org/) -->
<svg height="288pt" version="1.1" viewBox="0 0 432 288" width="432pt" xmlns="http://www.w3.org/2000/svg" xmlns:xlink="http://www.w3.org/1999/xlink">
 <defs>
  <style type="text/css">
*{stroke-linecap:butt;stroke-linejoin:round;}
  </style>
 </defs>
 <g id="figure_1">
  <g id="patch_1">
   <path d="M 0 288 
L 432 288 
L 432 0 
L 0 0 
z
" style="fill:#ffffff;"/>
  </g>
  <g id="axes_1">
   <g id="patch_2">
    <path d="M 54 252 
L 388.8 252 
L 388.8 34.56 
L 54 34.56 
z
" style="fill:#ffffff;"/>
   </g>
   <g id="matplotlib.axis_1">
    <g id="xtick_1">
     <g id="line2d_1">
      <defs>
       <path d="M 0 0 
L 0 3.5 
" id="m5e480aaf90" style="stroke:#000000;stroke-width:0.8;"/>
      </defs>
      <g>
       <use style="stroke:#000000;stroke-width:0.8;" x="69.218182" xlink:href="#m5e480aaf90" y="252"/>
      </g>
     </g>
     <g id="text_1">
      <!-- 1200 -->
      <defs>
       <path d="M 12.40625 8.296875 
L 28.515625 8.296875 
L 28.515625 63.921875 
L 10.984375 60.40625 
L 10.984375 69.390625 
L 28.421875 72.90625 
L 38.28125 72.90625 
L 38.28125 8.296875 
L 54.390625 8.296875 
L 54.390625 0 
L 12.40625 0 
z
" id="DejaVuSans-49"/>
       <path d="M 19.1875 8.296875 
L 53.609375 8.296875 
L 53.609375 0 
L 7.328125 0 
L 7.328125 8.296875 
Q 12.9375 14.109375 22.625 23.890625 
Q 32.328125 33.6875 34.8125 36.53125 
Q 39.546875 41.84375 41.421875 45.53125 
Q 43.3125 49.21875 43.3125 52.78125 
Q 43.3125 58.59375 39.234375 62.25 
Q 35.15625 65.921875 28.609375 65.921875 
Q 23.96875 65.921875 18.8125 64.3125 
Q 13.671875 62.703125 7.8125 59.421875 
L 7.8125 69.390625 
Q 13.765625 71.78125 18.9375 73 
Q 24.125 74.21875 28.421875 74.21875 
Q 39.75 74.21875 46.484375 68.546875 
Q 53.21875 62.890625 53.21875 53.421875 
Q 53.21875 48.921875 51.53125 44.890625 
Q 49.859375 40.875 45.40625 35.40625 
Q 44.1875 33.984375 37.640625 27.21875 
Q 31.109375 20.453125 19.1875 8.296875 
z
" id="DejaVuSans-50"/>
       <path d="M 31.78125 66.40625 
Q 24.171875 66.40625 20.328125 58.90625 
Q 16.5 51.421875 16.5 36.375 
Q 16.5 21.390625 20.328125 13.890625 
Q 24.171875 6.390625 31.78125 6.390625 
Q 39.453125 6.390625 43.28125 13.890625 
Q 47.125 21.390625 47.125 36.375 
Q 47.125 51.421875 43.28125 58.90625 
Q 39.453125 66.40625 31.78125 66.40625 
z
M 31.78125 74.21875 
Q 44.046875 74.21875 50.515625 64.515625 
Q 56.984375 54.828125 56.984375 36.375 
Q 56.984375 17.96875 50.515625 8.265625 
Q 44.046875 -1.421875 31.78125 -1.421875 
Q 19.53125 -1.421875 13.0625 8.265625 
Q 6.59375 17.96875 6.59375 36.375 
Q 6.59375 54.828125 13.0625 64.515625 
Q 19.53125 74.21875 31.78125 74.21875 
z
" id="DejaVuSans-48"/>
      </defs>
      <g transform="translate(56.493182 266.598437)scale(0.1 -0.1)">
       <use xlink:href="#DejaVuSans-49"/>
       <use x="63.623047" xlink:href="#DejaVuSans-50"/>
       <use x="127.246094" xlink:href="#DejaVuSans-48"/>
       <use x="190.869141" xlink:href="#DejaVuSans-48"/>
      </g>
     </g>
    </g>
    <g id="xtick_2">
     <g id="line2d_2">
      <g>
       <use style="stroke:#000000;stroke-width:0.8;" x="107.358988" xlink:href="#m5e480aaf90" y="252"/>
      </g>
     </g>
     <g id="text_2">
      <!-- 1250 -->
      <defs>
       <path d="M 10.796875 72.90625 
L 49.515625 72.90625 
L 49.515625 64.59375 
L 19.828125 64.59375 
L 19.828125 46.734375 
Q 21.96875 47.46875 24.109375 47.828125 
Q 26.265625 48.1875 28.421875 48.1875 
Q 40.625 48.1875 47.75 41.5 
Q 54.890625 34.8125 54.890625 23.390625 
Q 54.890625 11.625 47.5625 5.09375 
Q 40.234375 -1.421875 26.90625 -1.421875 
Q 22.3125 -1.421875 17.546875 -0.640625 
Q 12.796875 0.140625 7.71875 1.703125 
L 7.71875 11.625 
Q 12.109375 9.234375 16.796875 8.0625 
Q 21.484375 6.890625 26.703125 6.890625 
Q 35.15625 6.890625 40.078125 11.328125 
Q 45.015625 15.765625 45.015625 23.390625 
Q 45.015625 31 40.078125 35.4375 
Q 35.15625 39.890625 26.703125 39.890625 
Q 22.75 39.890625 18.8125 39.015625 
Q 14.890625 38.140625 10.796875 36.28125 
z
" id="DejaVuSans-53"/>
      </defs>
      <g transform="translate(94.633988 266.598437)scale(0.1 -0.1)">
       <use xlink:href="#DejaVuSans-49"/>
       <use x="63.623047" xlink:href="#DejaVuSans-50"/>
       <use x="127.246094" xlink:href="#DejaVuSans-53"/>
       <use x="190.869141" xlink:href="#DejaVuSans-48"/>
      </g>
     </g>
    </g>
    <g id="xtick_3">
     <g id="line2d_3">
      <g>
       <use style="stroke:#000000;stroke-width:0.8;" x="145.499795" xlink:href="#m5e480aaf90" y="252"/>
      </g>
     </g>
     <g id="text_3">
      <!-- 1300 -->
      <defs>
       <path d="M 40.578125 39.3125 
Q 47.65625 37.796875 51.625 33 
Q 55.609375 28.21875 55.609375 21.1875 
Q 55.609375 10.40625 48.1875 4.484375 
Q 40.765625 -1.421875 27.09375 -1.421875 
Q 22.515625 -1.421875 17.65625 -0.515625 
Q 12.796875 0.390625 7.625 2.203125 
L 7.625 11.71875 
Q 11.71875 9.328125 16.59375 8.109375 
Q 21.484375 6.890625 26.8125 6.890625 
Q 36.078125 6.890625 40.9375 10.546875 
Q 45.796875 14.203125 45.796875 21.1875 
Q 45.796875 27.640625 41.28125 31.265625 
Q 36.765625 34.90625 28.71875 34.90625 
L 20.21875 34.90625 
L 20.21875 43.015625 
L 29.109375 43.015625 
Q 36.375 43.015625 40.234375 45.921875 
Q 44.09375 48.828125 44.09375 54.296875 
Q 44.09375 59.90625 40.109375 62.90625 
Q 36.140625 65.921875 28.71875 65.921875 
Q 24.65625 65.921875 20.015625 65.03125 
Q 15.375 64.15625 9.8125 62.3125 
L 9.8125 71.09375 
Q 15.4375 72.65625 20.34375 73.4375 
Q 25.25 74.21875 29.59375 74.21875 
Q 40.828125 74.21875 47.359375 69.109375 
Q 53.90625 64.015625 53.90625 55.328125 
Q 53.90625 49.265625 50.4375 45.09375 
Q 46.96875 40.921875 40.578125 39.3125 
z
" id="DejaVuSans-51"/>
      </defs>
      <g transform="translate(132.774795 266.598437)scale(0.1 -0.1)">
       <use xlink:href="#DejaVuSans-49"/>
       <use x="63.623047" xlink:href="#DejaVuSans-51"/>
       <use x="127.246094" xlink:href="#DejaVuSans-48"/>
       <use x="190.869141" xlink:href="#DejaVuSans-48"/>
      </g>
     </g>
    </g>
    <g id="xtick_4">
     <g id="line2d_4">
      <g>
       <use style="stroke:#000000;stroke-width:0.8;" x="183.640602" xlink:href="#m5e480aaf90" y="252"/>
      </g>
     </g>
     <g id="text_4">
      <!-- 1350 -->
      <g transform="translate(170.915602 266.598437)scale(0.1 -0.1)">
       <use xlink:href="#DejaVuSans-49"/>
       <use x="63.623047" xlink:href="#DejaVuSans-51"/>
       <use x="127.246094" xlink:href="#DejaVuSans-53"/>
       <use x="190.869141" xlink:href="#DejaVuSans-48"/>
      </g>
     </g>
    </g>
    <g id="xtick_5">
     <g id="line2d_5">
      <g>
       <use style="stroke:#000000;stroke-width:0.8;" x="221.781408" xlink:href="#m5e480aaf90" y="252"/>
      </g>
     </g>
     <g id="text_5">
      <!-- 1400 -->
      <defs>
       <path d="M 37.796875 64.3125 
L 12.890625 25.390625 
L 37.796875 25.390625 
z
M 35.203125 72.90625 
L 47.609375 72.90625 
L 47.609375 25.390625 
L 58.015625 25.390625 
L 58.015625 17.1875 
L 47.609375 17.1875 
L 47.609375 0 
L 37.796875 0 
L 37.796875 17.1875 
L 4.890625 17.1875 
L 4.890625 26.703125 
z
" id="DejaVuSans-52"/>
      </defs>
      <g transform="translate(209.056408 266.598437)scale(0.1 -0.1)">
       <use xlink:href="#DejaVuSans-49"/>
       <use x="63.623047" xlink:href="#DejaVuSans-52"/>
       <use x="127.246094" xlink:href="#DejaVuSans-48"/>
       <use x="190.869141" xlink:href="#DejaVuSans-48"/>
      </g>
     </g>
    </g>
    <g id="xtick_6">
     <g id="line2d_6">
      <g>
       <use style="stroke:#000000;stroke-width:0.8;" x="259.922215" xlink:href="#m5e480aaf90" y="252"/>
      </g>
     </g>
     <g id="text_6">
      <!-- 1450 -->
      <g transform="translate(247.197215 266.598437)scale(0.1 -0.1)">
       <use xlink:href="#DejaVuSans-49"/>
       <use x="63.623047" xlink:href="#DejaVuSans-52"/>
       <use x="127.246094" xlink:href="#DejaVuSans-53"/>
       <use x="190.869141" xlink:href="#DejaVuSans-48"/>
      </g>
     </g>
    </g>
    <g id="xtick_7">
     <g id="line2d_7">
      <g>
       <use style="stroke:#000000;stroke-width:0.8;" x="298.063021" xlink:href="#m5e480aaf90" y="252"/>
      </g>
     </g>
     <g id="text_7">
      <!-- 1500 -->
      <g transform="translate(285.338021 266.598437)scale(0.1 -0.1)">
       <use xlink:href="#DejaVuSans-49"/>
       <use x="63.623047" xlink:href="#DejaVuSans-53"/>
       <use x="127.246094" xlink:href="#DejaVuSans-48"/>
       <use x="190.869141" xlink:href="#DejaVuSans-48"/>
      </g>
     </g>
    </g>
    <g id="xtick_8">
     <g id="line2d_8">
      <g>
       <use style="stroke:#000000;stroke-width:0.8;" x="336.203828" xlink:href="#m5e480aaf90" y="252"/>
      </g>
     </g>
     <g id="text_8">
      <!-- 1550 -->
      <g transform="translate(323.478828 266.598437)scale(0.1 -0.1)">
       <use xlink:href="#DejaVuSans-49"/>
       <use x="63.623047" xlink:href="#DejaVuSans-53"/>
       <use x="127.246094" xlink:href="#DejaVuSans-53"/>
       <use x="190.869141" xlink:href="#DejaVuSans-48"/>
      </g>
     </g>
    </g>
    <g id="xtick_9">
     <g id="line2d_9">
      <g>
       <use style="stroke:#000000;stroke-width:0.8;" x="374.344634" xlink:href="#m5e480aaf90" y="252"/>
      </g>
     </g>
     <g id="text_9">
      <!-- 1600 -->
      <defs>
       <path d="M 33.015625 40.375 
Q 26.375 40.375 22.484375 35.828125 
Q 18.609375 31.296875 18.609375 23.390625 
Q 18.609375 15.53125 22.484375 10.953125 
Q 26.375 6.390625 33.015625 6.390625 
Q 39.65625 6.390625 43.53125 10.953125 
Q 47.40625 15.53125 47.40625 23.390625 
Q 47.40625 31.296875 43.53125 35.828125 
Q 39.65625 40.375 33.015625 40.375 
z
M 52.59375 71.296875 
L 52.59375 62.3125 
Q 48.875 64.0625 45.09375 64.984375 
Q 41.3125 65.921875 37.59375 65.921875 
Q 27.828125 65.921875 22.671875 59.328125 
Q 17.53125 52.734375 16.796875 39.40625 
Q 19.671875 43.65625 24.015625 45.921875 
Q 28.375 48.1875 33.59375 48.1875 
Q 44.578125 48.1875 50.953125 41.515625 
Q 57.328125 34.859375 57.328125 23.390625 
Q 57.328125 12.15625 50.6875 5.359375 
Q 44.046875 -1.421875 33.015625 -1.421875 
Q 20.359375 -1.421875 13.671875 8.265625 
Q 6.984375 17.96875 6.984375 36.375 
Q 6.984375 53.65625 15.1875 63.9375 
Q 23.390625 74.21875 37.203125 74.21875 
Q 40.921875 74.21875 44.703125 73.484375 
Q 48.484375 72.75 52.59375 71.296875 
z
" id="DejaVuSans-54"/>
      </defs>
      <g transform="translate(361.619634 266.598437)scale(0.1 -0.1)">
       <use xlink:href="#DejaVuSans-49"/>
       <use x="63.623047" xlink:href="#DejaVuSans-54"/>
       <use x="127.246094" xlink:href="#DejaVuSans-48"/>
       <use x="190.869141" xlink:href="#DejaVuSans-48"/>
      </g>
     </g>
    </g>
    <g id="text_10">
     <!-- totalPE -->
     <defs>
      <path d="M 18.3125 70.21875 
L 18.3125 54.6875 
L 36.8125 54.6875 
L 36.8125 47.703125 
L 18.3125 47.703125 
L 18.3125 18.015625 
Q 18.3125 11.328125 20.140625 9.421875 
Q 21.96875 7.515625 27.59375 7.515625 
L 36.8125 7.515625 
L 36.8125 0 
L 27.59375 0 
Q 17.1875 0 13.234375 3.875 
Q 9.28125 7.765625 9.28125 18.015625 
L 9.28125 47.703125 
L 2.6875 47.703125 
L 2.6875 54.6875 
L 9.28125 54.6875 
L 9.28125 70.21875 
z
" id="DejaVuSans-116"/>
      <path d="M 30.609375 48.390625 
Q 23.390625 48.390625 19.1875 42.75 
Q 14.984375 37.109375 14.984375 27.296875 
Q 14.984375 17.484375 19.15625 11.84375 
Q 23.34375 6.203125 30.609375 6.203125 
Q 37.796875 6.203125 41.984375 11.859375 
Q 46.1875 17.53125 46.1875 27.296875 
Q 46.1875 37.015625 41.984375 42.703125 
Q 37.796875 48.390625 30.609375 48.390625 
z
M 30.609375 56 
Q 42.328125 56 49.015625 48.375 
Q 55.71875 40.765625 55.71875 27.296875 
Q 55.71875 13.875 49.015625 6.21875 
Q 42.328125 -1.421875 30.609375 -1.421875 
Q 18.84375 -1.421875 12.171875 6.21875 
Q 5.515625 13.875 5.515625 27.296875 
Q 5.515625 40.765625 12.171875 48.375 
Q 18.84375 56 30.609375 56 
z
" id="DejaVuSans-111"/>
      <path d="M 34.28125 27.484375 
Q 23.390625 27.484375 19.1875 25 
Q 14.984375 22.515625 14.984375 16.5 
Q 14.984375 11.71875 18.140625 8.90625 
Q 21.296875 6.109375 26.703125 6.109375 
Q 34.1875 6.109375 38.703125 11.40625 
Q 43.21875 16.703125 43.21875 25.484375 
L 43.21875 27.484375 
z
M 52.203125 31.203125 
L 52.203125 0 
L 43.21875 0 
L 43.21875 8.296875 
Q 40.140625 3.328125 35.546875 0.953125 
Q 30.953125 -1.421875 24.3125 -1.421875 
Q 15.921875 -1.421875 10.953125 3.296875 
Q 6 8.015625 6 15.921875 
Q 6 25.140625 12.171875 29.828125 
Q 18.359375 34.515625 30.609375 34.515625 
L 43.21875 34.515625 
L 43.21875 35.40625 
Q 43.21875 41.609375 39.140625 45 
Q 35.0625 48.390625 27.6875 48.390625 
Q 23 48.390625 18.546875 47.265625 
Q 14.109375 46.140625 10.015625 43.890625 
L 10.015625 52.203125 
Q 14.9375 54.109375 19.578125 55.046875 
Q 24.21875 56 28.609375 56 
Q 40.484375 56 46.34375 49.84375 
Q 52.203125 43.703125 52.203125 31.203125 
z
" id="DejaVuSans-97"/>
      <path d="M 9.421875 75.984375 
L 18.40625 75.984375 
L 18.40625 0 
L 9.421875 0 
z
" id="DejaVuSans-108"/>
      <path d="M 19.671875 64.796875 
L 19.671875 37.40625 
L 32.078125 37.40625 
Q 38.96875 37.40625 42.71875 40.96875 
Q 46.484375 44.53125 46.484375 51.125 
Q 46.484375 57.671875 42.71875 61.234375 
Q 38.96875 64.796875 32.078125 64.796875 
z
M 9.8125 72.90625 
L 32.078125 72.90625 
Q 44.34375 72.90625 50.609375 67.359375 
Q 56.890625 61.8125 56.890625 51.125 
Q 56.890625 40.328125 50.609375 34.8125 
Q 44.34375 29.296875 32.078125 29.296875 
L 19.671875 29.296875 
L 19.671875 0 
L 9.8125 0 
z
" id="DejaVuSans-80"/>
      <path d="M 9.8125 72.90625 
L 55.90625 72.90625 
L 55.90625 64.59375 
L 19.671875 64.59375 
L 19.671875 43.015625 
L 54.390625 43.015625 
L 54.390625 34.71875 
L 19.671875 34.71875 
L 19.671875 8.296875 
L 56.78125 8.296875 
L 56.78125 0 
L 9.8125 0 
z
" id="DejaVuSans-69"/>
     </defs>
     <g transform="translate(203.792969 280.276563)scale(0.1 -0.1)">
      <use xlink:href="#DejaVuSans-116"/>
      <use x="39.208984" xlink:href="#DejaVuSans-111"/>
      <use x="100.390625" xlink:href="#DejaVuSans-116"/>
      <use x="139.599609" xlink:href="#DejaVuSans-97"/>
      <use x="200.878906" xlink:href="#DejaVuSans-108"/>
      <use x="228.662109" xlink:href="#DejaVuSans-80"/>
      <use x="288.964844" xlink:href="#DejaVuSans-69"/>
     </g>
    </g>
   </g>
   <g id="matplotlib.axis_2">
    <g id="ytick_1">
     <g id="line2d_10">
      <defs>
       <path d="M 0 0 
L -3.5 0 
" id="m51da004ba7" style="stroke:#000000;stroke-width:0.8;"/>
      </defs>
      <g>
       <use style="stroke:#000000;stroke-width:0.8;" x="54" xlink:href="#m51da004ba7" y="242.118365"/>
      </g>
     </g>
     <g id="text_11">
      <!-- 0 -->
      <g transform="translate(40.6375 245.917584)scale(0.1 -0.1)">
       <use xlink:href="#DejaVuSans-48"/>
      </g>
     </g>
    </g>
    <g id="ytick_2">
     <g id="line2d_11">
      <g>
       <use style="stroke:#000000;stroke-width:0.8;" x="54" xlink:href="#m51da004ba7" y="211.994206"/>
      </g>
     </g>
     <g id="text_12">
      <!-- 500 -->
      <g transform="translate(27.9125 215.793425)scale(0.1 -0.1)">
       <use xlink:href="#DejaVuSans-53"/>
       <use x="63.623047" xlink:href="#DejaVuSans-48"/>
       <use x="127.246094" xlink:href="#DejaVuSans-48"/>
      </g>
     </g>
    </g>
    <g id="ytick_3">
     <g id="line2d_12">
      <g>
       <use style="stroke:#000000;stroke-width:0.8;" x="54" xlink:href="#m51da004ba7" y="181.870048"/>
      </g>
     </g>
     <g id="text_13">
      <!-- 1000 -->
      <g transform="translate(21.55 185.669267)scale(0.1 -0.1)">
       <use xlink:href="#DejaVuSans-49"/>
       <use x="63.623047" xlink:href="#DejaVuSans-48"/>
       <use x="127.246094" xlink:href="#DejaVuSans-48"/>
       <use x="190.869141" xlink:href="#DejaVuSans-48"/>
      </g>
     </g>
    </g>
    <g id="ytick_4">
     <g id="line2d_13">
      <g>
       <use style="stroke:#000000;stroke-width:0.8;" x="54" xlink:href="#m51da004ba7" y="151.745889"/>
      </g>
     </g>
     <g id="text_14">
      <!-- 1500 -->
      <g transform="translate(21.55 155.545108)scale(0.1 -0.1)">
       <use xlink:href="#DejaVuSans-49"/>
       <use x="63.623047" xlink:href="#DejaVuSans-53"/>
       <use x="127.246094" xlink:href="#DejaVuSans-48"/>
       <use x="190.869141" xlink:href="#DejaVuSans-48"/>
      </g>
     </g>
    </g>
    <g id="ytick_5">
     <g id="line2d_14">
      <g>
       <use style="stroke:#000000;stroke-width:0.8;" x="54" xlink:href="#m51da004ba7" y="121.621731"/>
      </g>
     </g>
     <g id="text_15">
      <!-- 2000 -->
      <g transform="translate(21.55 125.420949)scale(0.1 -0.1)">
       <use xlink:href="#DejaVuSans-50"/>
       <use x="63.623047" xlink:href="#DejaVuSans-48"/>
       <use x="127.246094" xlink:href="#DejaVuSans-48"/>
       <use x="190.869141" xlink:href="#DejaVuSans-48"/>
      </g>
     </g>
    </g>
    <g id="ytick_6">
     <g id="line2d_15">
      <g>
       <use style="stroke:#000000;stroke-width:0.8;" x="54" xlink:href="#m51da004ba7" y="91.497572"/>
      </g>
     </g>
     <g id="text_16">
      <!-- 2500 -->
      <g transform="translate(21.55 95.296791)scale(0.1 -0.1)">
       <use xlink:href="#DejaVuSans-50"/>
       <use x="63.623047" xlink:href="#DejaVuSans-53"/>
       <use x="127.246094" xlink:href="#DejaVuSans-48"/>
       <use x="190.869141" xlink:href="#DejaVuSans-48"/>
      </g>
     </g>
    </g>
    <g id="ytick_7">
     <g id="line2d_16">
      <g>
       <use style="stroke:#000000;stroke-width:0.8;" x="54" xlink:href="#m51da004ba7" y="61.373413"/>
      </g>
     </g>
     <g id="text_17">
      <!-- 3000 -->
      <g transform="translate(21.55 65.172632)scale(0.1 -0.1)">
       <use xlink:href="#DejaVuSans-51"/>
       <use x="63.623047" xlink:href="#DejaVuSans-48"/>
       <use x="127.246094" xlink:href="#DejaVuSans-48"/>
       <use x="190.869141" xlink:href="#DejaVuSans-48"/>
      </g>
     </g>
    </g>
   </g>
   <g id="line2d_17">
    <path clip-path="url(#p087a062c1d)" d="M 100.611292 241.877372 
L 103.190899 242.058117 
L 105.770505 241.817123 
L 108.350112 241.877372 
L 110.929718 241.817123 
L 113.509324 241.877372 
L 116.088931 241.21464 
L 118.668537 241.57613 
L 121.248144 240.85315 
L 123.82775 241.033895 
L 126.407356 240.130171 
L 128.986963 240.190419 
L 131.566569 238.141976 
L 134.146176 239.166197 
L 136.725782 237.720238 
L 139.305389 236.696016 
L 141.884995 235.12956 
L 144.464601 232.237641 
L 147.044208 231.996648 
L 149.623814 228.68299 
L 152.203421 224.525856 
L 154.783027 222.838904 
L 157.362633 219.886736 
L 159.94224 213.982401 
L 162.521846 209.102287 
L 165.101453 203.61969 
L 167.681059 198.076845 
L 170.260666 190.485557 
L 172.840272 183.797994 
L 175.419878 175.423478 
L 177.999485 163.494311 
L 180.579091 156.866996 
L 183.158698 149.21546 
L 185.738304 143.311125 
L 188.31791 126.983831 
L 190.897517 121.199992 
L 193.477123 106.680148 
L 196.05673 98.606874 
L 198.636336 87.159693 
L 201.215943 82.400076 
L 203.795549 75.11003 
L 206.375155 70.169668 
L 208.954762 65.530547 
L 211.534368 48.60077 
L 214.113975 57.095783 
L 216.693581 44.443636 
L 219.273187 48.118784 
L 221.852794 47.938039 
L 224.4324 53.179642 
L 227.012007 52.697656 
L 229.591613 57.517521 
L 232.17122 54.926844 
L 234.750826 59.023729 
L 237.330432 70.772151 
L 239.910039 76.1945 
L 242.489645 87.400687 
L 245.069252 87.701928 
L 247.648858 104.631705 
L 250.228464 114.572678 
L 252.808071 119.633536 
L 255.387677 133.008663 
L 257.967284 134.816112 
L 260.54689 147.588755 
L 263.126497 155.30054 
L 265.706103 167.169458 
L 268.285709 175.784968 
L 270.865316 180.303592 
L 273.444922 191.509779 
L 276.024529 195.365671 
L 278.604135 201.029013 
L 281.183741 208.379307 
L 283.763348 211.210978 
L 286.342954 217.778045 
L 288.922561 220.067481 
L 291.502167 222.59791 
L 294.081774 230.189198 
L 296.66138 229.40597 
L 299.240986 231.876151 
L 301.820593 234.40658 
L 304.400199 234.527077 
L 306.979806 235.912788 
L 309.559412 236.997258 
L 312.139018 238.804708 
L 314.718625 240.130171 
L 317.298231 240.49166 
L 319.877838 240.190419 
L 322.457444 240.49166 
L 325.037051 240.85315 
L 327.616657 241.335137 
L 330.196263 241.93762 
L 332.77587 241.395385 
L 335.355476 241.877372 
L 337.935083 241.756875 
L 340.514689 241.756875 
L 343.094295 241.93762 
L 345.673902 241.877372 
L 348.253508 241.756875 
L 350.833115 242.058117 
L 353.412721 242.058117 
L 355.992328 242.058117 
" style="fill:none;stroke:#1f77b4;stroke-dasharray:5.55,2.4;stroke-dashoffset:0;stroke-width:1.5;"/>
    <defs>
     <path d="M 0 1 
C 0.265203 1 0.51958 0.894634 0.707107 0.707107 
C 0.894634 0.51958 1 0.265203 1 0 
C 1 -0.265203 0.894634 -0.51958 0.707107 -0.707107 
C 0.51958 -0.894634 0.265203 -1 0 -1 
C -0.265203 -1 -0.51958 -0.894634 -0.707107 -0.707107 
C -0.894634 -0.51958 -1 -0.265203 -1 0 
C -1 0.265203 -0.894634 0.51958 -0.707107 0.707107 
C -0.51958 0.894634 -0.265203 1 0 1 
z
" id="m9380d26c98" style="stroke:#1f77b4;"/>
    </defs>
    <g clip-path="url(#p087a062c1d)">
     <use style="fill:#1f77b4;stroke:#1f77b4;" x="100.611292" xlink:href="#m9380d26c98" y="241.877372"/>
     <use style="fill:#1f77b4;stroke:#1f77b4;" x="103.190899" xlink:href="#m9380d26c98" y="242.058117"/>
     <use style="fill:#1f77b4;stroke:#1f77b4;" x="105.770505" xlink:href="#m9380d26c98" y="241.817123"/>
     <use style="fill:#1f77b4;stroke:#1f77b4;" x="108.350112" xlink:href="#m9380d26c98" y="241.877372"/>
     <use style="fill:#1f77b4;stroke:#1f77b4;" x="110.929718" xlink:href="#m9380d26c98" y="241.817123"/>
     <use style="fill:#1f77b4;stroke:#1f77b4;" x="113.509324" xlink:href="#m9380d26c98" y="241.877372"/>
     <use style="fill:#1f77b4;stroke:#1f77b4;" x="116.088931" xlink:href="#m9380d26c98" y="241.21464"/>
     <use style="fill:#1f77b4;stroke:#1f77b4;" x="118.668537" xlink:href="#m9380d26c98" y="241.57613"/>
     <use style="fill:#1f77b4;stroke:#1f77b4;" x="121.248144" xlink:href="#m9380d26c98" y="240.85315"/>
     <use style="fill:#1f77b4;stroke:#1f77b4;" x="123.82775" xlink:href="#m9380d26c98" y="241.033895"/>
     <use style="fill:#1f77b4;stroke:#1f77b4;" x="126.407356" xlink:href="#m9380d26c98" y="240.130171"/>
     <use style="fill:#1f77b4;stroke:#1f77b4;" x="128.986963" xlink:href="#m9380d26c98" y="240.190419"/>
     <use style="fill:#1f77b4;stroke:#1f77b4;" x="131.566569" xlink:href="#m9380d26c98" y="238.141976"/>
     <use style="fill:#1f77b4;stroke:#1f77b4;" x="134.146176" xlink:href="#m9380d26c98" y="239.166197"/>
     <use style="fill:#1f77b4;stroke:#1f77b4;" x="136.725782" xlink:href="#m9380d26c98" y="237.720238"/>
     <use style="fill:#1f77b4;stroke:#1f77b4;" x="139.305389" xlink:href="#m9380d26c98" y="236.696016"/>
     <use style="fill:#1f77b4;stroke:#1f77b4;" x="141.884995" xlink:href="#m9380d26c98" y="235.12956"/>
     <use style="fill:#1f77b4;stroke:#1f77b4;" x="144.464601" xlink:href="#m9380d26c98" y="232.237641"/>
     <use style="fill:#1f77b4;stroke:#1f77b4;" x="147.044208" xlink:href="#m9380d26c98" y="231.996648"/>
     <use style="fill:#1f77b4;stroke:#1f77b4;" x="149.623814" xlink:href="#m9380d26c98" y="228.68299"/>
     <use style="fill:#1f77b4;stroke:#1f77b4;" x="152.203421" xlink:href="#m9380d26c98" y="224.525856"/>
     <use style="fill:#1f77b4;stroke:#1f77b4;" x="154.783027" xlink:href="#m9380d26c98" y="222.838904"/>
     <use style="fill:#1f77b4;stroke:#1f77b4;" x="157.362633" xlink:href="#m9380d26c98" y="219.886736"/>
     <use style="fill:#1f77b4;stroke:#1f77b4;" x="159.94224" xlink:href="#m9380d26c98" y="213.982401"/>
     <use style="fill:#1f77b4;stroke:#1f77b4;" x="162.521846" xlink:href="#m9380d26c98" y="209.102287"/>
     <use style="fill:#1f77b4;stroke:#1f77b4;" x="165.101453" xlink:href="#m9380d26c98" y="203.61969"/>
     <use style="fill:#1f77b4;stroke:#1f77b4;" x="167.681059" xlink:href="#m9380d26c98" y="198.076845"/>
     <use style="fill:#1f77b4;stroke:#1f77b4;" x="170.260666" xlink:href="#m9380d26c98" y="190.485557"/>
     <use style="fill:#1f77b4;stroke:#1f77b4;" x="172.840272" xlink:href="#m9380d26c98" y="183.797994"/>
     <use style="fill:#1f77b4;stroke:#1f77b4;" x="175.419878" xlink:href="#m9380d26c98" y="175.423478"/>
     <use style="fill:#1f77b4;stroke:#1f77b4;" x="177.999485" xlink:href="#m9380d26c98" y="163.494311"/>
     <use style="fill:#1f77b4;stroke:#1f77b4;" x="180.579091" xlink:href="#m9380d26c98" y="156.866996"/>
     <use style="fill:#1f77b4;stroke:#1f77b4;" x="183.158698" xlink:href="#m9380d26c98" y="149.21546"/>
     <use style="fill:#1f77b4;stroke:#1f77b4;" x="185.738304" xlink:href="#m9380d26c98" y="143.311125"/>
     <use style="fill:#1f77b4;stroke:#1f77b4;" x="188.31791" xlink:href="#m9380d26c98" y="126.983831"/>
     <use style="fill:#1f77b4;stroke:#1f77b4;" x="190.897517" xlink:href="#m9380d26c98" y="121.199992"/>
     <use style="fill:#1f77b4;stroke:#1f77b4;" x="193.477123" xlink:href="#m9380d26c98" y="106.680148"/>
     <use style="fill:#1f77b4;stroke:#1f77b4;" x="196.05673" xlink:href="#m9380d26c98" y="98.606874"/>
     <use style="fill:#1f77b4;stroke:#1f77b4;" x="198.636336" xlink:href="#m9380d26c98" y="87.159693"/>
     <use style="fill:#1f77b4;stroke:#1f77b4;" x="201.215943" xlink:href="#m9380d26c98" y="82.400076"/>
     <use style="fill:#1f77b4;stroke:#1f77b4;" x="203.795549" xlink:href="#m9380d26c98" y="75.11003"/>
     <use style="fill:#1f77b4;stroke:#1f77b4;" x="206.375155" xlink:href="#m9380d26c98" y="70.169668"/>
     <use style="fill:#1f77b4;stroke:#1f77b4;" x="208.954762" xlink:href="#m9380d26c98" y="65.530547"/>
     <use style="fill:#1f77b4;stroke:#1f77b4;" x="211.534368" xlink:href="#m9380d26c98" y="48.60077"/>
     <use style="fill:#1f77b4;stroke:#1f77b4;" x="214.113975" xlink:href="#m9380d26c98" y="57.095783"/>
     <use style="fill:#1f77b4;stroke:#1f77b4;" x="216.693581" xlink:href="#m9380d26c98" y="44.443636"/>
     <use style="fill:#1f77b4;stroke:#1f77b4;" x="219.273187" xlink:href="#m9380d26c98" y="48.118784"/>
     <use style="fill:#1f77b4;stroke:#1f77b4;" x="221.852794" xlink:href="#m9380d26c98" y="47.938039"/>
     <use style="fill:#1f77b4;stroke:#1f77b4;" x="224.4324" xlink:href="#m9380d26c98" y="53.179642"/>
     <use style="fill:#1f77b4;stroke:#1f77b4;" x="227.012007" xlink:href="#m9380d26c98" y="52.697656"/>
     <use style="fill:#1f77b4;stroke:#1f77b4;" x="229.591613" xlink:href="#m9380d26c98" y="57.517521"/>
     <use style="fill:#1f77b4;stroke:#1f77b4;" x="232.17122" xlink:href="#m9380d26c98" y="54.926844"/>
     <use style="fill:#1f77b4;stroke:#1f77b4;" x="234.750826" xlink:href="#m9380d26c98" y="59.023729"/>
     <use style="fill:#1f77b4;stroke:#1f77b4;" x="237.330432" xlink:href="#m9380d26c98" y="70.772151"/>
     <use style="fill:#1f77b4;stroke:#1f77b4;" x="239.910039" xlink:href="#m9380d26c98" y="76.1945"/>
     <use style="fill:#1f77b4;stroke:#1f77b4;" x="242.489645" xlink:href="#m9380d26c98" y="87.400687"/>
     <use style="fill:#1f77b4;stroke:#1f77b4;" x="245.069252" xlink:href="#m9380d26c98" y="87.701928"/>
     <use style="fill:#1f77b4;stroke:#1f77b4;" x="247.648858" xlink:href="#m9380d26c98" y="104.631705"/>
     <use style="fill:#1f77b4;stroke:#1f77b4;" x="250.228464" xlink:href="#m9380d26c98" y="114.572678"/>
     <use style="fill:#1f77b4;stroke:#1f77b4;" x="252.808071" xlink:href="#m9380d26c98" y="119.633536"/>
     <use style="fill:#1f77b4;stroke:#1f77b4;" x="255.387677" xlink:href="#m9380d26c98" y="133.008663"/>
     <use style="fill:#1f77b4;stroke:#1f77b4;" x="257.967284" xlink:href="#m9380d26c98" y="134.816112"/>
     <use style="fill:#1f77b4;stroke:#1f77b4;" x="260.54689" xlink:href="#m9380d26c98" y="147.588755"/>
     <use style="fill:#1f77b4;stroke:#1f77b4;" x="263.126497" xlink:href="#m9380d26c98" y="155.30054"/>
     <use style="fill:#1f77b4;stroke:#1f77b4;" x="265.706103" xlink:href="#m9380d26c98" y="167.169458"/>
     <use style="fill:#1f77b4;stroke:#1f77b4;" x="268.285709" xlink:href="#m9380d26c98" y="175.784968"/>
     <use style="fill:#1f77b4;stroke:#1f77b4;" x="270.865316" xlink:href="#m9380d26c98" y="180.303592"/>
     <use style="fill:#1f77b4;stroke:#1f77b4;" x="273.444922" xlink:href="#m9380d26c98" y="191.509779"/>
     <use style="fill:#1f77b4;stroke:#1f77b4;" x="276.024529" xlink:href="#m9380d26c98" y="195.365671"/>
     <use style="fill:#1f77b4;stroke:#1f77b4;" x="278.604135" xlink:href="#m9380d26c98" y="201.029013"/>
     <use style="fill:#1f77b4;stroke:#1f77b4;" x="281.183741" xlink:href="#m9380d26c98" y="208.379307"/>
     <use style="fill:#1f77b4;stroke:#1f77b4;" x="283.763348" xlink:href="#m9380d26c98" y="211.210978"/>
     <use style="fill:#1f77b4;stroke:#1f77b4;" x="286.342954" xlink:href="#m9380d26c98" y="217.778045"/>
     <use style="fill:#1f77b4;stroke:#1f77b4;" x="288.922561" xlink:href="#m9380d26c98" y="220.067481"/>
     <use style="fill:#1f77b4;stroke:#1f77b4;" x="291.502167" xlink:href="#m9380d26c98" y="222.59791"/>
     <use style="fill:#1f77b4;stroke:#1f77b4;" x="294.081774" xlink:href="#m9380d26c98" y="230.189198"/>
     <use style="fill:#1f77b4;stroke:#1f77b4;" x="296.66138" xlink:href="#m9380d26c98" y="229.40597"/>
     <use style="fill:#1f77b4;stroke:#1f77b4;" x="299.240986" xlink:href="#m9380d26c98" y="231.876151"/>
     <use style="fill:#1f77b4;stroke:#1f77b4;" x="301.820593" xlink:href="#m9380d26c98" y="234.40658"/>
     <use style="fill:#1f77b4;stroke:#1f77b4;" x="304.400199" xlink:href="#m9380d26c98" y="234.527077"/>
     <use style="fill:#1f77b4;stroke:#1f77b4;" x="306.979806" xlink:href="#m9380d26c98" y="235.912788"/>
     <use style="fill:#1f77b4;stroke:#1f77b4;" x="309.559412" xlink:href="#m9380d26c98" y="236.997258"/>
     <use style="fill:#1f77b4;stroke:#1f77b4;" x="312.139018" xlink:href="#m9380d26c98" y="238.804708"/>
     <use style="fill:#1f77b4;stroke:#1f77b4;" x="314.718625" xlink:href="#m9380d26c98" y="240.130171"/>
     <use style="fill:#1f77b4;stroke:#1f77b4;" x="317.298231" xlink:href="#m9380d26c98" y="240.49166"/>
     <use style="fill:#1f77b4;stroke:#1f77b4;" x="319.877838" xlink:href="#m9380d26c98" y="240.190419"/>
     <use style="fill:#1f77b4;stroke:#1f77b4;" x="322.457444" xlink:href="#m9380d26c98" y="240.49166"/>
     <use style="fill:#1f77b4;stroke:#1f77b4;" x="325.037051" xlink:href="#m9380d26c98" y="240.85315"/>
     <use style="fill:#1f77b4;stroke:#1f77b4;" x="327.616657" xlink:href="#m9380d26c98" y="241.335137"/>
     <use style="fill:#1f77b4;stroke:#1f77b4;" x="330.196263" xlink:href="#m9380d26c98" y="241.93762"/>
     <use style="fill:#1f77b4;stroke:#1f77b4;" x="332.77587" xlink:href="#m9380d26c98" y="241.395385"/>
     <use style="fill:#1f77b4;stroke:#1f77b4;" x="335.355476" xlink:href="#m9380d26c98" y="241.877372"/>
     <use style="fill:#1f77b4;stroke:#1f77b4;" x="337.935083" xlink:href="#m9380d26c98" y="241.756875"/>
     <use style="fill:#1f77b4;stroke:#1f77b4;" x="340.514689" xlink:href="#m9380d26c98" y="241.756875"/>
     <use style="fill:#1f77b4;stroke:#1f77b4;" x="343.094295" xlink:href="#m9380d26c98" y="241.93762"/>
     <use style="fill:#1f77b4;stroke:#1f77b4;" x="345.673902" xlink:href="#m9380d26c98" y="241.877372"/>
     <use style="fill:#1f77b4;stroke:#1f77b4;" x="348.253508" xlink:href="#m9380d26c98" y="241.756875"/>
     <use style="fill:#1f77b4;stroke:#1f77b4;" x="350.833115" xlink:href="#m9380d26c98" y="242.058117"/>
     <use style="fill:#1f77b4;stroke:#1f77b4;" x="353.412721" xlink:href="#m9380d26c98" y="242.058117"/>
     <use style="fill:#1f77b4;stroke:#1f77b4;" x="355.992328" xlink:href="#m9380d26c98" y="242.058117"/>
    </g>
   </g>
   <g id="line2d_18">
    <path clip-path="url(#p087a062c1d)" d="M 69.218182 242.116364 
L 98.968011 242.004241 
L 108.884621 241.756611 
L 115.749966 241.358762 
L 121.089679 240.808589 
L 124.903759 240.218508 
L 128.71784 239.401874 
L 131.769105 238.539479 
L 134.820369 237.446435 
L 137.871634 236.075353 
L 140.160082 234.832987 
L 142.44853 233.380495 
L 144.736979 231.692454 
L 147.025427 229.742449 
L 149.313876 227.503474 
L 151.602324 224.948426 
L 153.890772 222.050701 
L 156.179221 218.78487 
L 158.467669 215.127445 
L 160.756118 211.057718 
L 163.044566 206.558654 
L 165.333014 201.617821 
L 167.621463 196.228329 
L 170.672727 188.344725 
L 173.723992 179.683209 
L 176.775256 170.289715 
L 179.826521 160.238912 
L 183.640602 146.913584 
L 188.980314 127.340265 
L 196.608476 99.342165 
L 200.422556 86.270923 
L 203.473821 76.676814 
L 205.762269 70.135964 
L 208.050718 64.258346 
L 210.339166 59.128273 
L 211.864798 56.161108 
L 213.390431 53.579508 
L 214.916063 51.400756 
L 216.441695 49.639567 
L 217.967327 48.307916 
L 219.49296 47.414909 
L 221.018592 46.966676 
L 221.781408 46.910433 
L 222.544224 46.966299 
L 224.069856 47.413782 
L 225.595489 48.306045 
L 227.121121 49.636965 
L 228.646753 51.397442 
L 230.172386 53.575504 
L 231.698018 56.156441 
L 233.22365 59.122973 
L 234.749282 62.455444 
L 237.037731 68.092017 
L 239.326179 74.420911 
L 241.614627 81.352869 
L 244.665892 91.368945 
L 248.479973 104.802271 
L 255.345318 130.163171 
L 260.685031 149.626473 
L 264.499111 162.799451 
L 267.550376 172.695095 
L 270.60164 181.912042 
L 273.652905 190.382958 
L 276.70417 198.068724 
L 278.992618 203.308781 
L 281.281066 208.101796 
L 283.569515 212.456604 
L 285.857963 216.387269 
L 288.146411 219.91215 
L 290.43486 223.052974 
L 292.723308 225.833964 
L 295.011757 228.28102 
L 297.300205 230.420983 
L 299.588653 232.280984 
L 301.877102 233.887884 
L 304.16555 235.267808 
L 307.216815 236.797678 
L 310.268079 238.023701 
L 313.319344 238.996044 
L 316.370608 239.759269 
L 320.184689 240.477896 
L 324.761586 241.07748 
L 330.101299 241.521935 
L 336.966644 241.838687 
L 346.883254 242.032086 
L 365.190841 242.11074 
L 373.581818 242.11612 
L 373.581818 242.11612 
" style="fill:none;stroke:#ff7f0e;stroke-dasharray:5.55,2.4;stroke-dashoffset:0;stroke-width:1.5;"/>
   </g>
   <g id="patch_3">
    <path d="M 54 252 
L 54 34.56 
" style="fill:none;stroke:#000000;stroke-linecap:square;stroke-linejoin:miter;stroke-width:0.8;"/>
   </g>
   <g id="patch_4">
    <path d="M 388.8 252 
L 388.8 34.56 
" style="fill:none;stroke:#000000;stroke-linecap:square;stroke-linejoin:miter;stroke-width:0.8;"/>
   </g>
   <g id="patch_5">
    <path d="M 54 252 
L 388.8 252 
" style="fill:none;stroke:#000000;stroke-linecap:square;stroke-linejoin:miter;stroke-width:0.8;"/>
   </g>
   <g id="patch_6">
    <path d="M 54 34.56 
L 388.8 34.56 
" style="fill:none;stroke:#000000;stroke-linecap:square;stroke-linejoin:miter;stroke-width:0.8;"/>
   </g>
   <g id="text_18">
    <!--  mean: 1400.00  -->
    <defs>
     <path id="DejaVuSans-32"/>
     <path d="M 52 44.1875 
Q 55.375 50.25 60.0625 53.125 
Q 64.75 56 71.09375 56 
Q 79.640625 56 84.28125 50.015625 
Q 88.921875 44.046875 88.921875 33.015625 
L 88.921875 0 
L 79.890625 0 
L 79.890625 32.71875 
Q 79.890625 40.578125 77.09375 44.375 
Q 74.3125 48.1875 68.609375 48.1875 
Q 61.625 48.1875 57.5625 43.546875 
Q 53.515625 38.921875 53.515625 30.90625 
L 53.515625 0 
L 44.484375 0 
L 44.484375 32.71875 
Q 44.484375 40.625 41.703125 44.40625 
Q 38.921875 48.1875 33.109375 48.1875 
Q 26.21875 48.1875 22.15625 43.53125 
Q 18.109375 38.875 18.109375 30.90625 
L 18.109375 0 
L 9.078125 0 
L 9.078125 54.6875 
L 18.109375 54.6875 
L 18.109375 46.1875 
Q 21.1875 51.21875 25.484375 53.609375 
Q 29.78125 56 35.6875 56 
Q 41.65625 56 45.828125 52.96875 
Q 50 49.953125 52 44.1875 
z
" id="DejaVuSans-109"/>
     <path d="M 56.203125 29.59375 
L 56.203125 25.203125 
L 14.890625 25.203125 
Q 15.484375 15.921875 20.484375 11.0625 
Q 25.484375 6.203125 34.421875 6.203125 
Q 39.59375 6.203125 44.453125 7.46875 
Q 49.3125 8.734375 54.109375 11.28125 
L 54.109375 2.78125 
Q 49.265625 0.734375 44.1875 -0.34375 
Q 39.109375 -1.421875 33.890625 -1.421875 
Q 20.796875 -1.421875 13.15625 6.1875 
Q 5.515625 13.8125 5.515625 26.8125 
Q 5.515625 40.234375 12.765625 48.109375 
Q 20.015625 56 32.328125 56 
Q 43.359375 56 49.78125 48.890625 
Q 56.203125 41.796875 56.203125 29.59375 
z
M 47.21875 32.234375 
Q 47.125 39.59375 43.09375 43.984375 
Q 39.0625 48.390625 32.421875 48.390625 
Q 24.90625 48.390625 20.390625 44.140625 
Q 15.875 39.890625 15.1875 32.171875 
z
" id="DejaVuSans-101"/>
     <path d="M 54.890625 33.015625 
L 54.890625 0 
L 45.90625 0 
L 45.90625 32.71875 
Q 45.90625 40.484375 42.875 44.328125 
Q 39.84375 48.1875 33.796875 48.1875 
Q 26.515625 48.1875 22.3125 43.546875 
Q 18.109375 38.921875 18.109375 30.90625 
L 18.109375 0 
L 9.078125 0 
L 9.078125 54.6875 
L 18.109375 54.6875 
L 18.109375 46.1875 
Q 21.34375 51.125 25.703125 53.5625 
Q 30.078125 56 35.796875 56 
Q 45.21875 56 50.046875 50.171875 
Q 54.890625 44.34375 54.890625 33.015625 
z
" id="DejaVuSans-110"/>
     <path d="M 11.71875 12.40625 
L 22.015625 12.40625 
L 22.015625 0 
L 11.71875 0 
z
M 11.71875 51.703125 
L 22.015625 51.703125 
L 22.015625 39.3125 
L 11.71875 39.3125 
z
" id="DejaVuSans-58"/>
     <path d="M 10.6875 12.40625 
L 21 12.40625 
L 21 0 
L 10.6875 0 
z
" id="DejaVuSans-46"/>
    </defs>
    <g style="fill:#008000;" transform="translate(69.218182 58.865921)scale(0.13 -0.13)">
     <use xlink:href="#DejaVuSans-32"/>
     <use x="31.787109" xlink:href="#DejaVuSans-109"/>
     <use x="129.199219" xlink:href="#DejaVuSans-101"/>
     <use x="190.722656" xlink:href="#DejaVuSans-97"/>
     <use x="252.001953" xlink:href="#DejaVuSans-110"/>
     <use x="315.380859" xlink:href="#DejaVuSans-58"/>
     <use x="349.072266" xlink:href="#DejaVuSans-32"/>
     <use x="380.859375" xlink:href="#DejaVuSans-49"/>
     <use x="444.482422" xlink:href="#DejaVuSans-52"/>
     <use x="508.105469" xlink:href="#DejaVuSans-48"/>
     <use x="571.728516" xlink:href="#DejaVuSans-48"/>
     <use x="635.351562" xlink:href="#DejaVuSans-46"/>
     <use x="667.138672" xlink:href="#DejaVuSans-48"/>
     <use x="730.761719" xlink:href="#DejaVuSans-48"/>
     <use x="794.384766" xlink:href="#DejaVuSans-32"/>
    </g>
    <!--  std: 41.73 -->
    <defs>
     <path d="M 44.28125 53.078125 
L 44.28125 44.578125 
Q 40.484375 46.53125 36.375 47.5 
Q 32.28125 48.484375 27.875 48.484375 
Q 21.1875 48.484375 17.84375 46.4375 
Q 14.5 44.390625 14.5 40.28125 
Q 14.5 37.15625 16.890625 35.375 
Q 19.28125 33.59375 26.515625 31.984375 
L 29.59375 31.296875 
Q 39.15625 29.25 43.1875 25.515625 
Q 47.21875 21.78125 47.21875 15.09375 
Q 47.21875 7.46875 41.1875 3.015625 
Q 35.15625 -1.421875 24.609375 -1.421875 
Q 20.21875 -1.421875 15.453125 -0.5625 
Q 10.6875 0.296875 5.421875 2 
L 5.421875 11.28125 
Q 10.40625 8.6875 15.234375 7.390625 
Q 20.0625 6.109375 24.8125 6.109375 
Q 31.15625 6.109375 34.5625 8.28125 
Q 37.984375 10.453125 37.984375 14.40625 
Q 37.984375 18.0625 35.515625 20.015625 
Q 33.0625 21.96875 24.703125 23.78125 
L 21.578125 24.515625 
Q 13.234375 26.265625 9.515625 29.90625 
Q 5.8125 33.546875 5.8125 39.890625 
Q 5.8125 47.609375 11.28125 51.796875 
Q 16.75 56 26.8125 56 
Q 31.78125 56 36.171875 55.265625 
Q 40.578125 54.546875 44.28125 53.078125 
z
" id="DejaVuSans-115"/>
     <path d="M 45.40625 46.390625 
L 45.40625 75.984375 
L 54.390625 75.984375 
L 54.390625 0 
L 45.40625 0 
L 45.40625 8.203125 
Q 42.578125 3.328125 38.25 0.953125 
Q 33.9375 -1.421875 27.875 -1.421875 
Q 17.96875 -1.421875 11.734375 6.484375 
Q 5.515625 14.40625 5.515625 27.296875 
Q 5.515625 40.1875 11.734375 48.09375 
Q 17.96875 56 27.875 56 
Q 33.9375 56 38.25 53.625 
Q 42.578125 51.265625 45.40625 46.390625 
z
M 14.796875 27.296875 
Q 14.796875 17.390625 18.875 11.75 
Q 22.953125 6.109375 30.078125 6.109375 
Q 37.203125 6.109375 41.296875 11.75 
Q 45.40625 17.390625 45.40625 27.296875 
Q 45.40625 37.203125 41.296875 42.84375 
Q 37.203125 48.484375 30.078125 48.484375 
Q 22.953125 48.484375 18.875 42.84375 
Q 14.796875 37.203125 14.796875 27.296875 
z
" id="DejaVuSans-100"/>
     <path d="M 8.203125 72.90625 
L 55.078125 72.90625 
L 55.078125 68.703125 
L 28.609375 0 
L 18.3125 0 
L 43.21875 64.59375 
L 8.203125 64.59375 
z
" id="DejaVuSans-55"/>
    </defs>
    <g style="fill:#008000;" transform="translate(69.218182 73.423077)scale(0.13 -0.13)">
     <use xlink:href="#DejaVuSans-32"/>
     <use x="31.787109" xlink:href="#DejaVuSans-115"/>
     <use x="83.886719" xlink:href="#DejaVuSans-116"/>
     <use x="123.095703" xlink:href="#DejaVuSans-100"/>
     <use x="186.572266" xlink:href="#DejaVuSans-58"/>
     <use x="220.263672" xlink:href="#DejaVuSans-32"/>
     <use x="252.050781" xlink:href="#DejaVuSans-52"/>
     <use x="315.673828" xlink:href="#DejaVuSans-49"/>
     <use x="379.296875" xlink:href="#DejaVuSans-46"/>
     <use x="411.083984" xlink:href="#DejaVuSans-55"/>
     <use x="474.707031" xlink:href="#DejaVuSans-51"/>
    </g>
   </g>
   <g id="text_19">
    <!-- totalPE for 1MeV gamma -->
    <defs>
     <path d="M 37.109375 75.984375 
L 37.109375 68.5 
L 28.515625 68.5 
Q 23.6875 68.5 21.796875 66.546875 
Q 19.921875 64.59375 19.921875 59.515625 
L 19.921875 54.6875 
L 34.71875 54.6875 
L 34.71875 47.703125 
L 19.921875 47.703125 
L 19.921875 0 
L 10.890625 0 
L 10.890625 47.703125 
L 2.296875 47.703125 
L 2.296875 54.6875 
L 10.890625 54.6875 
L 10.890625 58.5 
Q 10.890625 67.625 15.140625 71.796875 
Q 19.390625 75.984375 28.609375 75.984375 
z
" id="DejaVuSans-102"/>
     <path d="M 41.109375 46.296875 
Q 39.59375 47.171875 37.8125 47.578125 
Q 36.03125 48 33.890625 48 
Q 26.265625 48 22.1875 43.046875 
Q 18.109375 38.09375 18.109375 28.8125 
L 18.109375 0 
L 9.078125 0 
L 9.078125 54.6875 
L 18.109375 54.6875 
L 18.109375 46.1875 
Q 20.953125 51.171875 25.484375 53.578125 
Q 30.03125 56 36.53125 56 
Q 37.453125 56 38.578125 55.875 
Q 39.703125 55.765625 41.0625 55.515625 
z
" id="DejaVuSans-114"/>
     <path d="M 9.8125 72.90625 
L 24.515625 72.90625 
L 43.109375 23.296875 
L 61.8125 72.90625 
L 76.515625 72.90625 
L 76.515625 0 
L 66.890625 0 
L 66.890625 64.015625 
L 48.09375 14.015625 
L 38.1875 14.015625 
L 19.390625 64.015625 
L 19.390625 0 
L 9.8125 0 
z
" id="DejaVuSans-77"/>
     <path d="M 28.609375 0 
L 0.78125 72.90625 
L 11.078125 72.90625 
L 34.1875 11.53125 
L 57.328125 72.90625 
L 67.578125 72.90625 
L 39.796875 0 
z
" id="DejaVuSans-86"/>
     <path d="M 45.40625 27.984375 
Q 45.40625 37.75 41.375 43.109375 
Q 37.359375 48.484375 30.078125 48.484375 
Q 22.859375 48.484375 18.828125 43.109375 
Q 14.796875 37.75 14.796875 27.984375 
Q 14.796875 18.265625 18.828125 12.890625 
Q 22.859375 7.515625 30.078125 7.515625 
Q 37.359375 7.515625 41.375 12.890625 
Q 45.40625 18.265625 45.40625 27.984375 
z
M 54.390625 6.78125 
Q 54.390625 -7.171875 48.1875 -13.984375 
Q 42 -20.796875 29.203125 -20.796875 
Q 24.46875 -20.796875 20.265625 -20.09375 
Q 16.0625 -19.390625 12.109375 -17.921875 
L 12.109375 -9.1875 
Q 16.0625 -11.328125 19.921875 -12.34375 
Q 23.78125 -13.375 27.78125 -13.375 
Q 36.625 -13.375 41.015625 -8.765625 
Q 45.40625 -4.15625 45.40625 5.171875 
L 45.40625 9.625 
Q 42.625 4.78125 38.28125 2.390625 
Q 33.9375 0 27.875 0 
Q 17.828125 0 11.671875 7.65625 
Q 5.515625 15.328125 5.515625 27.984375 
Q 5.515625 40.671875 11.671875 48.328125 
Q 17.828125 56 27.875 56 
Q 33.9375 56 38.28125 53.609375 
Q 42.625 51.21875 45.40625 46.390625 
L 45.40625 54.6875 
L 54.390625 54.6875 
z
" id="DejaVuSans-103"/>
    </defs>
    <g transform="translate(146.65875 28.56)scale(0.12 -0.12)">
     <use xlink:href="#DejaVuSans-116"/>
     <use x="39.208984" xlink:href="#DejaVuSans-111"/>
     <use x="100.390625" xlink:href="#DejaVuSans-116"/>
     <use x="139.599609" xlink:href="#DejaVuSans-97"/>
     <use x="200.878906" xlink:href="#DejaVuSans-108"/>
     <use x="228.662109" xlink:href="#DejaVuSans-80"/>
     <use x="288.964844" xlink:href="#DejaVuSans-69"/>
     <use x="352.148438" xlink:href="#DejaVuSans-32"/>
     <use x="383.935547" xlink:href="#DejaVuSans-102"/>
     <use x="419.140625" xlink:href="#DejaVuSans-111"/>
     <use x="480.322266" xlink:href="#DejaVuSans-114"/>
     <use x="521.435547" xlink:href="#DejaVuSans-32"/>
     <use x="553.222656" xlink:href="#DejaVuSans-49"/>
     <use x="616.845703" xlink:href="#DejaVuSans-77"/>
     <use x="703.125" xlink:href="#DejaVuSans-101"/>
     <use x="764.648438" xlink:href="#DejaVuSans-86"/>
     <use x="833.056641" xlink:href="#DejaVuSans-32"/>
     <use x="864.84375" xlink:href="#DejaVuSans-103"/>
     <use x="928.320312" xlink:href="#DejaVuSans-97"/>
     <use x="989.599609" xlink:href="#DejaVuSans-109"/>
     <use x="1087.011719" xlink:href="#DejaVuSans-109"/>
     <use x="1184.423828" xlink:href="#DejaVuSans-97"/>
    </g>
   </g>
  </g>
 </g>
 <defs>
  <clipPath id="p087a062c1d">
   <rect height="217.44" width="334.8" x="54" y="34.56"/>
  </clipPath>
 </defs>
</svg>
