<?xml version="1.0" encoding="utf-8" standalone="no"?>
<!DOCTYPE svg PUBLIC "-//W3C//DTD SVG 1.1//EN"
  "http://www.w3.org/Graphics/SVG/1.1/DTD/svg11.dtd">
<!-- Created with matplotlib (https://matplotlib.org/) -->
<svg height="288pt" version="1.1" viewBox="0 0 432 288" width="432pt" xmlns="http://www.w3.org/2000/svg" xmlns:xlink="http://www.w3.org/1999/xlink">
 <defs>
  <style type="text/css">
*{stroke-linecap:butt;stroke-linejoin:round;}
  </style>
 </defs>
 <g id="figure_1">
  <g id="patch_1">
   <path d="M 0 288 
L 432 288 
L 432 0 
L 0 0 
z
" style="fill:#ffffff;"/>
  </g>
  <g id="axes_1">
   <g id="patch_2">
    <path d="M 54 252 
L 388.8 252 
L 388.8 34.56 
L 54 34.56 
z
" style="fill:#ffffff;"/>
   </g>
   <g id="matplotlib.axis_1">
    <g id="xtick_1">
     <g id="line2d_1">
      <defs>
       <path d="M 0 0 
L 0 3.5 
" id="mafcfc2b125" style="stroke:#000000;stroke-width:0.8;"/>
      </defs>
      <g>
       <use style="stroke:#000000;stroke-width:0.8;" x="69.218182" xlink:href="#mafcfc2b125" y="252"/>
      </g>
     </g>
     <g id="text_1">
      <!-- 2600 -->
      <defs>
       <path d="M 19.1875 8.296875 
L 53.609375 8.296875 
L 53.609375 0 
L 7.328125 0 
L 7.328125 8.296875 
Q 12.9375 14.109375 22.625 23.890625 
Q 32.328125 33.6875 34.8125 36.53125 
Q 39.546875 41.84375 41.421875 45.53125 
Q 43.3125 49.21875 43.3125 52.78125 
Q 43.3125 58.59375 39.234375 62.25 
Q 35.15625 65.921875 28.609375 65.921875 
Q 23.96875 65.921875 18.8125 64.3125 
Q 13.671875 62.703125 7.8125 59.421875 
L 7.8125 69.390625 
Q 13.765625 71.78125 18.9375 73 
Q 24.125 74.21875 28.421875 74.21875 
Q 39.75 74.21875 46.484375 68.546875 
Q 53.21875 62.890625 53.21875 53.421875 
Q 53.21875 48.921875 51.53125 44.890625 
Q 49.859375 40.875 45.40625 35.40625 
Q 44.1875 33.984375 37.640625 27.21875 
Q 31.109375 20.453125 19.1875 8.296875 
z
" id="DejaVuSans-50"/>
       <path d="M 33.015625 40.375 
Q 26.375 40.375 22.484375 35.828125 
Q 18.609375 31.296875 18.609375 23.390625 
Q 18.609375 15.53125 22.484375 10.953125 
Q 26.375 6.390625 33.015625 6.390625 
Q 39.65625 6.390625 43.53125 10.953125 
Q 47.40625 15.53125 47.40625 23.390625 
Q 47.40625 31.296875 43.53125 35.828125 
Q 39.65625 40.375 33.015625 40.375 
z
M 52.59375 71.296875 
L 52.59375 62.3125 
Q 48.875 64.0625 45.09375 64.984375 
Q 41.3125 65.921875 37.59375 65.921875 
Q 27.828125 65.921875 22.671875 59.328125 
Q 17.53125 52.734375 16.796875 39.40625 
Q 19.671875 43.65625 24.015625 45.921875 
Q 28.375 48.1875 33.59375 48.1875 
Q 44.578125 48.1875 50.953125 41.515625 
Q 57.328125 34.859375 57.328125 23.390625 
Q 57.328125 12.15625 50.6875 5.359375 
Q 44.046875 -1.421875 33.015625 -1.421875 
Q 20.359375 -1.421875 13.671875 8.265625 
Q 6.984375 17.96875 6.984375 36.375 
Q 6.984375 53.65625 15.1875 63.9375 
Q 23.390625 74.21875 37.203125 74.21875 
Q 40.921875 74.21875 44.703125 73.484375 
Q 48.484375 72.75 52.59375 71.296875 
z
" id="DejaVuSans-54"/>
       <path d="M 31.78125 66.40625 
Q 24.171875 66.40625 20.328125 58.90625 
Q 16.5 51.421875 16.5 36.375 
Q 16.5 21.390625 20.328125 13.890625 
Q 24.171875 6.390625 31.78125 6.390625 
Q 39.453125 6.390625 43.28125 13.890625 
Q 47.125 21.390625 47.125 36.375 
Q 47.125 51.421875 43.28125 58.90625 
Q 39.453125 66.40625 31.78125 66.40625 
z
M 31.78125 74.21875 
Q 44.046875 74.21875 50.515625 64.515625 
Q 56.984375 54.828125 56.984375 36.375 
Q 56.984375 17.96875 50.515625 8.265625 
Q 44.046875 -1.421875 31.78125 -1.421875 
Q 19.53125 -1.421875 13.0625 8.265625 
Q 6.59375 17.96875 6.59375 36.375 
Q 6.59375 54.828125 13.0625 64.515625 
Q 19.53125 74.21875 31.78125 74.21875 
z
" id="DejaVuSans-48"/>
      </defs>
      <g transform="translate(56.493182 266.598437)scale(0.1 -0.1)">
       <use xlink:href="#DejaVuSans-50"/>
       <use x="63.623047" xlink:href="#DejaVuSans-54"/>
       <use x="127.246094" xlink:href="#DejaVuSans-48"/>
       <use x="190.869141" xlink:href="#DejaVuSans-48"/>
      </g>
     </g>
    </g>
    <g id="xtick_2">
     <g id="line2d_2">
      <g>
       <use style="stroke:#000000;stroke-width:0.8;" x="120.030141" xlink:href="#mafcfc2b125" y="252"/>
      </g>
     </g>
     <g id="text_2">
      <!-- 2700 -->
      <defs>
       <path d="M 8.203125 72.90625 
L 55.078125 72.90625 
L 55.078125 68.703125 
L 28.609375 0 
L 18.3125 0 
L 43.21875 64.59375 
L 8.203125 64.59375 
z
" id="DejaVuSans-55"/>
      </defs>
      <g transform="translate(107.305141 266.598437)scale(0.1 -0.1)">
       <use xlink:href="#DejaVuSans-50"/>
       <use x="63.623047" xlink:href="#DejaVuSans-55"/>
       <use x="127.246094" xlink:href="#DejaVuSans-48"/>
       <use x="190.869141" xlink:href="#DejaVuSans-48"/>
      </g>
     </g>
    </g>
    <g id="xtick_3">
     <g id="line2d_3">
      <g>
       <use style="stroke:#000000;stroke-width:0.8;" x="170.8421" xlink:href="#mafcfc2b125" y="252"/>
      </g>
     </g>
     <g id="text_3">
      <!-- 2800 -->
      <defs>
       <path d="M 31.78125 34.625 
Q 24.75 34.625 20.71875 30.859375 
Q 16.703125 27.09375 16.703125 20.515625 
Q 16.703125 13.921875 20.71875 10.15625 
Q 24.75 6.390625 31.78125 6.390625 
Q 38.8125 6.390625 42.859375 10.171875 
Q 46.921875 13.96875 46.921875 20.515625 
Q 46.921875 27.09375 42.890625 30.859375 
Q 38.875 34.625 31.78125 34.625 
z
M 21.921875 38.8125 
Q 15.578125 40.375 12.03125 44.71875 
Q 8.5 49.078125 8.5 55.328125 
Q 8.5 64.0625 14.71875 69.140625 
Q 20.953125 74.21875 31.78125 74.21875 
Q 42.671875 74.21875 48.875 69.140625 
Q 55.078125 64.0625 55.078125 55.328125 
Q 55.078125 49.078125 51.53125 44.71875 
Q 48 40.375 41.703125 38.8125 
Q 48.828125 37.15625 52.796875 32.3125 
Q 56.78125 27.484375 56.78125 20.515625 
Q 56.78125 9.90625 50.3125 4.234375 
Q 43.84375 -1.421875 31.78125 -1.421875 
Q 19.734375 -1.421875 13.25 4.234375 
Q 6.78125 9.90625 6.78125 20.515625 
Q 6.78125 27.484375 10.78125 32.3125 
Q 14.796875 37.15625 21.921875 38.8125 
z
M 18.3125 54.390625 
Q 18.3125 48.734375 21.84375 45.5625 
Q 25.390625 42.390625 31.78125 42.390625 
Q 38.140625 42.390625 41.71875 45.5625 
Q 45.3125 48.734375 45.3125 54.390625 
Q 45.3125 60.0625 41.71875 63.234375 
Q 38.140625 66.40625 31.78125 66.40625 
Q 25.390625 66.40625 21.84375 63.234375 
Q 18.3125 60.0625 18.3125 54.390625 
z
" id="DejaVuSans-56"/>
      </defs>
      <g transform="translate(158.1171 266.598437)scale(0.1 -0.1)">
       <use xlink:href="#DejaVuSans-50"/>
       <use x="63.623047" xlink:href="#DejaVuSans-56"/>
       <use x="127.246094" xlink:href="#DejaVuSans-48"/>
       <use x="190.869141" xlink:href="#DejaVuSans-48"/>
      </g>
     </g>
    </g>
    <g id="xtick_4">
     <g id="line2d_4">
      <g>
       <use style="stroke:#000000;stroke-width:0.8;" x="221.65406" xlink:href="#mafcfc2b125" y="252"/>
      </g>
     </g>
     <g id="text_4">
      <!-- 2900 -->
      <defs>
       <path d="M 10.984375 1.515625 
L 10.984375 10.5 
Q 14.703125 8.734375 18.5 7.8125 
Q 22.3125 6.890625 25.984375 6.890625 
Q 35.75 6.890625 40.890625 13.453125 
Q 46.046875 20.015625 46.78125 33.40625 
Q 43.953125 29.203125 39.59375 26.953125 
Q 35.25 24.703125 29.984375 24.703125 
Q 19.046875 24.703125 12.671875 31.3125 
Q 6.296875 37.9375 6.296875 49.421875 
Q 6.296875 60.640625 12.9375 67.421875 
Q 19.578125 74.21875 30.609375 74.21875 
Q 43.265625 74.21875 49.921875 64.515625 
Q 56.59375 54.828125 56.59375 36.375 
Q 56.59375 19.140625 48.40625 8.859375 
Q 40.234375 -1.421875 26.421875 -1.421875 
Q 22.703125 -1.421875 18.890625 -0.6875 
Q 15.09375 0.046875 10.984375 1.515625 
z
M 30.609375 32.421875 
Q 37.25 32.421875 41.125 36.953125 
Q 45.015625 41.5 45.015625 49.421875 
Q 45.015625 57.28125 41.125 61.84375 
Q 37.25 66.40625 30.609375 66.40625 
Q 23.96875 66.40625 20.09375 61.84375 
Q 16.21875 57.28125 16.21875 49.421875 
Q 16.21875 41.5 20.09375 36.953125 
Q 23.96875 32.421875 30.609375 32.421875 
z
" id="DejaVuSans-57"/>
      </defs>
      <g transform="translate(208.92906 266.598437)scale(0.1 -0.1)">
       <use xlink:href="#DejaVuSans-50"/>
       <use x="63.623047" xlink:href="#DejaVuSans-57"/>
       <use x="127.246094" xlink:href="#DejaVuSans-48"/>
       <use x="190.869141" xlink:href="#DejaVuSans-48"/>
      </g>
     </g>
    </g>
    <g id="xtick_5">
     <g id="line2d_5">
      <g>
       <use style="stroke:#000000;stroke-width:0.8;" x="272.466019" xlink:href="#mafcfc2b125" y="252"/>
      </g>
     </g>
     <g id="text_5">
      <!-- 3000 -->
      <defs>
       <path d="M 40.578125 39.3125 
Q 47.65625 37.796875 51.625 33 
Q 55.609375 28.21875 55.609375 21.1875 
Q 55.609375 10.40625 48.1875 4.484375 
Q 40.765625 -1.421875 27.09375 -1.421875 
Q 22.515625 -1.421875 17.65625 -0.515625 
Q 12.796875 0.390625 7.625 2.203125 
L 7.625 11.71875 
Q 11.71875 9.328125 16.59375 8.109375 
Q 21.484375 6.890625 26.8125 6.890625 
Q 36.078125 6.890625 40.9375 10.546875 
Q 45.796875 14.203125 45.796875 21.1875 
Q 45.796875 27.640625 41.28125 31.265625 
Q 36.765625 34.90625 28.71875 34.90625 
L 20.21875 34.90625 
L 20.21875 43.015625 
L 29.109375 43.015625 
Q 36.375 43.015625 40.234375 45.921875 
Q 44.09375 48.828125 44.09375 54.296875 
Q 44.09375 59.90625 40.109375 62.90625 
Q 36.140625 65.921875 28.71875 65.921875 
Q 24.65625 65.921875 20.015625 65.03125 
Q 15.375 64.15625 9.8125 62.3125 
L 9.8125 71.09375 
Q 15.4375 72.65625 20.34375 73.4375 
Q 25.25 74.21875 29.59375 74.21875 
Q 40.828125 74.21875 47.359375 69.109375 
Q 53.90625 64.015625 53.90625 55.328125 
Q 53.90625 49.265625 50.4375 45.09375 
Q 46.96875 40.921875 40.578125 39.3125 
z
" id="DejaVuSans-51"/>
      </defs>
      <g transform="translate(259.741019 266.598437)scale(0.1 -0.1)">
       <use xlink:href="#DejaVuSans-51"/>
       <use x="63.623047" xlink:href="#DejaVuSans-48"/>
       <use x="127.246094" xlink:href="#DejaVuSans-48"/>
       <use x="190.869141" xlink:href="#DejaVuSans-48"/>
      </g>
     </g>
    </g>
    <g id="xtick_6">
     <g id="line2d_6">
      <g>
       <use style="stroke:#000000;stroke-width:0.8;" x="323.277978" xlink:href="#mafcfc2b125" y="252"/>
      </g>
     </g>
     <g id="text_6">
      <!-- 3100 -->
      <defs>
       <path d="M 12.40625 8.296875 
L 28.515625 8.296875 
L 28.515625 63.921875 
L 10.984375 60.40625 
L 10.984375 69.390625 
L 28.421875 72.90625 
L 38.28125 72.90625 
L 38.28125 8.296875 
L 54.390625 8.296875 
L 54.390625 0 
L 12.40625 0 
z
" id="DejaVuSans-49"/>
      </defs>
      <g transform="translate(310.552978 266.598437)scale(0.1 -0.1)">
       <use xlink:href="#DejaVuSans-51"/>
       <use x="63.623047" xlink:href="#DejaVuSans-49"/>
       <use x="127.246094" xlink:href="#DejaVuSans-48"/>
       <use x="190.869141" xlink:href="#DejaVuSans-48"/>
      </g>
     </g>
    </g>
    <g id="xtick_7">
     <g id="line2d_7">
      <g>
       <use style="stroke:#000000;stroke-width:0.8;" x="374.089938" xlink:href="#mafcfc2b125" y="252"/>
      </g>
     </g>
     <g id="text_7">
      <!-- 3200 -->
      <g transform="translate(361.364938 266.598437)scale(0.1 -0.1)">
       <use xlink:href="#DejaVuSans-51"/>
       <use x="63.623047" xlink:href="#DejaVuSans-50"/>
       <use x="127.246094" xlink:href="#DejaVuSans-48"/>
       <use x="190.869141" xlink:href="#DejaVuSans-48"/>
      </g>
     </g>
    </g>
    <g id="text_8">
     <!-- totalPE -->
     <defs>
      <path d="M 18.3125 70.21875 
L 18.3125 54.6875 
L 36.8125 54.6875 
L 36.8125 47.703125 
L 18.3125 47.703125 
L 18.3125 18.015625 
Q 18.3125 11.328125 20.140625 9.421875 
Q 21.96875 7.515625 27.59375 7.515625 
L 36.8125 7.515625 
L 36.8125 0 
L 27.59375 0 
Q 17.1875 0 13.234375 3.875 
Q 9.28125 7.765625 9.28125 18.015625 
L 9.28125 47.703125 
L 2.6875 47.703125 
L 2.6875 54.6875 
L 9.28125 54.6875 
L 9.28125 70.21875 
z
" id="DejaVuSans-116"/>
      <path d="M 30.609375 48.390625 
Q 23.390625 48.390625 19.1875 42.75 
Q 14.984375 37.109375 14.984375 27.296875 
Q 14.984375 17.484375 19.15625 11.84375 
Q 23.34375 6.203125 30.609375 6.203125 
Q 37.796875 6.203125 41.984375 11.859375 
Q 46.1875 17.53125 46.1875 27.296875 
Q 46.1875 37.015625 41.984375 42.703125 
Q 37.796875 48.390625 30.609375 48.390625 
z
M 30.609375 56 
Q 42.328125 56 49.015625 48.375 
Q 55.71875 40.765625 55.71875 27.296875 
Q 55.71875 13.875 49.015625 6.21875 
Q 42.328125 -1.421875 30.609375 -1.421875 
Q 18.84375 -1.421875 12.171875 6.21875 
Q 5.515625 13.875 5.515625 27.296875 
Q 5.515625 40.765625 12.171875 48.375 
Q 18.84375 56 30.609375 56 
z
" id="DejaVuSans-111"/>
      <path d="M 34.28125 27.484375 
Q 23.390625 27.484375 19.1875 25 
Q 14.984375 22.515625 14.984375 16.5 
Q 14.984375 11.71875 18.140625 8.90625 
Q 21.296875 6.109375 26.703125 6.109375 
Q 34.1875 6.109375 38.703125 11.40625 
Q 43.21875 16.703125 43.21875 25.484375 
L 43.21875 27.484375 
z
M 52.203125 31.203125 
L 52.203125 0 
L 43.21875 0 
L 43.21875 8.296875 
Q 40.140625 3.328125 35.546875 0.953125 
Q 30.953125 -1.421875 24.3125 -1.421875 
Q 15.921875 -1.421875 10.953125 3.296875 
Q 6 8.015625 6 15.921875 
Q 6 25.140625 12.171875 29.828125 
Q 18.359375 34.515625 30.609375 34.515625 
L 43.21875 34.515625 
L 43.21875 35.40625 
Q 43.21875 41.609375 39.140625 45 
Q 35.0625 48.390625 27.6875 48.390625 
Q 23 48.390625 18.546875 47.265625 
Q 14.109375 46.140625 10.015625 43.890625 
L 10.015625 52.203125 
Q 14.9375 54.109375 19.578125 55.046875 
Q 24.21875 56 28.609375 56 
Q 40.484375 56 46.34375 49.84375 
Q 52.203125 43.703125 52.203125 31.203125 
z
" id="DejaVuSans-97"/>
      <path d="M 9.421875 75.984375 
L 18.40625 75.984375 
L 18.40625 0 
L 9.421875 0 
z
" id="DejaVuSans-108"/>
      <path d="M 19.671875 64.796875 
L 19.671875 37.40625 
L 32.078125 37.40625 
Q 38.96875 37.40625 42.71875 40.96875 
Q 46.484375 44.53125 46.484375 51.125 
Q 46.484375 57.671875 42.71875 61.234375 
Q 38.96875 64.796875 32.078125 64.796875 
z
M 9.8125 72.90625 
L 32.078125 72.90625 
Q 44.34375 72.90625 50.609375 67.359375 
Q 56.890625 61.8125 56.890625 51.125 
Q 56.890625 40.328125 50.609375 34.8125 
Q 44.34375 29.296875 32.078125 29.296875 
L 19.671875 29.296875 
L 19.671875 0 
L 9.8125 0 
z
" id="DejaVuSans-80"/>
      <path d="M 9.8125 72.90625 
L 55.90625 72.90625 
L 55.90625 64.59375 
L 19.671875 64.59375 
L 19.671875 43.015625 
L 54.390625 43.015625 
L 54.390625 34.71875 
L 19.671875 34.71875 
L 19.671875 8.296875 
L 56.78125 8.296875 
L 56.78125 0 
L 9.8125 0 
z
" id="DejaVuSans-69"/>
     </defs>
     <g transform="translate(203.792969 280.276563)scale(0.1 -0.1)">
      <use xlink:href="#DejaVuSans-116"/>
      <use x="39.208984" xlink:href="#DejaVuSans-111"/>
      <use x="100.390625" xlink:href="#DejaVuSans-116"/>
      <use x="139.599609" xlink:href="#DejaVuSans-97"/>
      <use x="200.878906" xlink:href="#DejaVuSans-108"/>
      <use x="228.662109" xlink:href="#DejaVuSans-80"/>
      <use x="288.964844" xlink:href="#DejaVuSans-69"/>
     </g>
    </g>
   </g>
   <g id="matplotlib.axis_2">
    <g id="ytick_1">
     <g id="line2d_8">
      <defs>
       <path d="M 0 0 
L -3.5 0 
" id="mfc2ab142ed" style="stroke:#000000;stroke-width:0.8;"/>
      </defs>
      <g>
       <use style="stroke:#000000;stroke-width:0.8;" x="54" xlink:href="#mfc2ab142ed" y="242.116364"/>
      </g>
     </g>
     <g id="text_9">
      <!-- 0 -->
      <g transform="translate(40.6375 245.915582)scale(0.1 -0.1)">
       <use xlink:href="#DejaVuSans-48"/>
      </g>
     </g>
    </g>
    <g id="ytick_2">
     <g id="line2d_9">
      <g>
       <use style="stroke:#000000;stroke-width:0.8;" x="54" xlink:href="#mfc2ab142ed" y="213.183002"/>
      </g>
     </g>
     <g id="text_10">
      <!-- 500 -->
      <defs>
       <path d="M 10.796875 72.90625 
L 49.515625 72.90625 
L 49.515625 64.59375 
L 19.828125 64.59375 
L 19.828125 46.734375 
Q 21.96875 47.46875 24.109375 47.828125 
Q 26.265625 48.1875 28.421875 48.1875 
Q 40.625 48.1875 47.75 41.5 
Q 54.890625 34.8125 54.890625 23.390625 
Q 54.890625 11.625 47.5625 5.09375 
Q 40.234375 -1.421875 26.90625 -1.421875 
Q 22.3125 -1.421875 17.546875 -0.640625 
Q 12.796875 0.140625 7.71875 1.703125 
L 7.71875 11.625 
Q 12.109375 9.234375 16.796875 8.0625 
Q 21.484375 6.890625 26.703125 6.890625 
Q 35.15625 6.890625 40.078125 11.328125 
Q 45.015625 15.765625 45.015625 23.390625 
Q 45.015625 31 40.078125 35.4375 
Q 35.15625 39.890625 26.703125 39.890625 
Q 22.75 39.890625 18.8125 39.015625 
Q 14.890625 38.140625 10.796875 36.28125 
z
" id="DejaVuSans-53"/>
      </defs>
      <g transform="translate(27.9125 216.982221)scale(0.1 -0.1)">
       <use xlink:href="#DejaVuSans-53"/>
       <use x="63.623047" xlink:href="#DejaVuSans-48"/>
       <use x="127.246094" xlink:href="#DejaVuSans-48"/>
      </g>
     </g>
    </g>
    <g id="ytick_3">
     <g id="line2d_10">
      <g>
       <use style="stroke:#000000;stroke-width:0.8;" x="54" xlink:href="#mfc2ab142ed" y="184.24964"/>
      </g>
     </g>
     <g id="text_11">
      <!-- 1000 -->
      <g transform="translate(21.55 188.048859)scale(0.1 -0.1)">
       <use xlink:href="#DejaVuSans-49"/>
       <use x="63.623047" xlink:href="#DejaVuSans-48"/>
       <use x="127.246094" xlink:href="#DejaVuSans-48"/>
       <use x="190.869141" xlink:href="#DejaVuSans-48"/>
      </g>
     </g>
    </g>
    <g id="ytick_4">
     <g id="line2d_11">
      <g>
       <use style="stroke:#000000;stroke-width:0.8;" x="54" xlink:href="#mfc2ab142ed" y="155.316278"/>
      </g>
     </g>
     <g id="text_12">
      <!-- 1500 -->
      <g transform="translate(21.55 159.115497)scale(0.1 -0.1)">
       <use xlink:href="#DejaVuSans-49"/>
       <use x="63.623047" xlink:href="#DejaVuSans-53"/>
       <use x="127.246094" xlink:href="#DejaVuSans-48"/>
       <use x="190.869141" xlink:href="#DejaVuSans-48"/>
      </g>
     </g>
    </g>
    <g id="ytick_5">
     <g id="line2d_12">
      <g>
       <use style="stroke:#000000;stroke-width:0.8;" x="54" xlink:href="#mfc2ab142ed" y="126.382917"/>
      </g>
     </g>
     <g id="text_13">
      <!-- 2000 -->
      <g transform="translate(21.55 130.182136)scale(0.1 -0.1)">
       <use xlink:href="#DejaVuSans-50"/>
       <use x="63.623047" xlink:href="#DejaVuSans-48"/>
       <use x="127.246094" xlink:href="#DejaVuSans-48"/>
       <use x="190.869141" xlink:href="#DejaVuSans-48"/>
      </g>
     </g>
    </g>
    <g id="ytick_6">
     <g id="line2d_13">
      <g>
       <use style="stroke:#000000;stroke-width:0.8;" x="54" xlink:href="#mfc2ab142ed" y="97.449555"/>
      </g>
     </g>
     <g id="text_14">
      <!-- 2500 -->
      <g transform="translate(21.55 101.248774)scale(0.1 -0.1)">
       <use xlink:href="#DejaVuSans-50"/>
       <use x="63.623047" xlink:href="#DejaVuSans-53"/>
       <use x="127.246094" xlink:href="#DejaVuSans-48"/>
       <use x="190.869141" xlink:href="#DejaVuSans-48"/>
      </g>
     </g>
    </g>
    <g id="ytick_7">
     <g id="line2d_14">
      <g>
       <use style="stroke:#000000;stroke-width:0.8;" x="54" xlink:href="#mfc2ab142ed" y="68.516193"/>
      </g>
     </g>
     <g id="text_15">
      <!-- 3000 -->
      <g transform="translate(21.55 72.315412)scale(0.1 -0.1)">
       <use xlink:href="#DejaVuSans-51"/>
       <use x="63.623047" xlink:href="#DejaVuSans-48"/>
       <use x="127.246094" xlink:href="#DejaVuSans-48"/>
       <use x="190.869141" xlink:href="#DejaVuSans-48"/>
      </g>
     </g>
    </g>
    <g id="ytick_8">
     <g id="line2d_15">
      <g>
       <use style="stroke:#000000;stroke-width:0.8;" x="54" xlink:href="#mfc2ab142ed" y="39.582832"/>
      </g>
     </g>
     <g id="text_16">
      <!-- 3500 -->
      <g transform="translate(21.55 43.38205)scale(0.1 -0.1)">
       <use xlink:href="#DejaVuSans-51"/>
       <use x="63.623047" xlink:href="#DejaVuSans-53"/>
       <use x="127.246094" xlink:href="#DejaVuSans-48"/>
       <use x="190.869141" xlink:href="#DejaVuSans-48"/>
      </g>
     </g>
    </g>
   </g>
   <g id="line2d_16">
    <path clip-path="url(#p1568a3aa85)" d="M 75.235608 242.058497 
L 78.077239 242.116364 
L 80.918869 242.116364 
L 83.7605 242.116364 
L 86.60213 242.058497 
L 89.443761 242.116364 
L 92.285392 242.058497 
L 95.127022 241.884897 
L 97.968653 242.00063 
L 100.810284 241.711297 
L 103.651914 241.82703 
L 106.493545 241.30623 
L 109.335175 242.00063 
L 112.176806 241.074763 
L 115.018437 240.669696 
L 117.860067 241.248363 
L 120.701698 240.264628 
L 123.543328 238.991561 
L 126.384959 239.049427 
L 129.22659 237.660626 
L 132.06822 237.776359 
L 134.909851 235.982491 
L 137.751481 233.320622 
L 140.593112 231.58462 
L 143.434743 229.790752 
L 146.276373 225.797948 
L 149.118004 222.673145 
L 151.959634 219.548341 
L 154.801265 215.729138 
L 157.642896 209.710999 
L 160.484526 204.329393 
L 163.326157 198.079787 
L 166.167788 190.325646 
L 169.009418 182.050705 
L 171.851049 175.396032 
L 174.692679 163.996287 
L 177.53431 157.168014 
L 180.375941 149.529606 
L 183.217571 136.625327 
L 186.059202 126.845851 
L 188.900832 117.529308 
L 191.742463 111.800502 
L 194.584094 98.201822 
L 197.425724 97.738889 
L 200.267355 81.536206 
L 203.108985 83.040741 
L 205.950616 66.838058 
L 208.792247 62.498054 
L 211.633877 55.901248 
L 214.475508 47.568439 
L 217.317139 51.79271 
L 220.158769 48.43644 
L 223.0004 44.443636 
L 225.84203 48.43644 
L 228.683661 54.686046 
L 231.525292 60.472719 
L 234.366922 64.002589 
L 237.208553 67.300992 
L 240.050183 74.244999 
L 242.891814 86.802078 
L 245.733445 91.142082 
L 248.575075 98.317556 
L 251.416706 107.807699 
L 254.258336 116.25624 
L 257.099967 135.005059 
L 259.941598 143.395733 
L 262.783228 151.439208 
L 265.624859 157.168014 
L 268.466489 170.708827 
L 271.30812 173.66003 
L 274.149751 185.696308 
L 276.991381 191.425114 
L 279.833012 195.475785 
L 282.674643 205.660328 
L 285.516273 206.470462 
L 288.357904 214.28247 
L 291.199534 217.175806 
L 294.041165 224.061946 
L 296.882796 224.35128 
L 299.724426 230.253685 
L 302.566057 230.948086 
L 305.407687 233.436355 
L 308.249318 234.94089 
L 311.090949 236.734758 
L 313.932579 238.29716 
L 316.77421 238.528627 
L 319.61584 239.512361 
L 322.457471 240.148895 
L 325.299102 240.148895 
L 328.140732 241.074763 
L 330.982363 241.421963 
L 333.823994 241.074763 
L 336.665624 241.364096 
L 339.507255 241.711297 
L 342.348885 241.65343 
L 345.190516 242.058497 
L 348.032147 242.116364 
L 350.873777 242.058497 
L 353.715408 242.058497 
L 356.557038 242.058497 
" style="fill:none;stroke:#1f77b4;stroke-dasharray:5.55,2.4;stroke-dashoffset:0;stroke-width:1.5;"/>
    <defs>
     <path d="M 0 1 
C 0.265203 1 0.51958 0.894634 0.707107 0.707107 
C 0.894634 0.51958 1 0.265203 1 0 
C 1 -0.265203 0.894634 -0.51958 0.707107 -0.707107 
C 0.51958 -0.894634 0.265203 -1 0 -1 
C -0.265203 -1 -0.51958 -0.894634 -0.707107 -0.707107 
C -0.894634 -0.51958 -1 -0.265203 -1 0 
C -1 0.265203 -0.894634 0.51958 -0.707107 0.707107 
C -0.51958 0.894634 -0.265203 1 0 1 
z
" id="me51361b7b4" style="stroke:#1f77b4;"/>
    </defs>
    <g clip-path="url(#p1568a3aa85)">
     <use style="fill:#1f77b4;stroke:#1f77b4;" x="75.235608" xlink:href="#me51361b7b4" y="242.058497"/>
     <use style="fill:#1f77b4;stroke:#1f77b4;" x="78.077239" xlink:href="#me51361b7b4" y="242.116364"/>
     <use style="fill:#1f77b4;stroke:#1f77b4;" x="80.918869" xlink:href="#me51361b7b4" y="242.116364"/>
     <use style="fill:#1f77b4;stroke:#1f77b4;" x="83.7605" xlink:href="#me51361b7b4" y="242.116364"/>
     <use style="fill:#1f77b4;stroke:#1f77b4;" x="86.60213" xlink:href="#me51361b7b4" y="242.058497"/>
     <use style="fill:#1f77b4;stroke:#1f77b4;" x="89.443761" xlink:href="#me51361b7b4" y="242.116364"/>
     <use style="fill:#1f77b4;stroke:#1f77b4;" x="92.285392" xlink:href="#me51361b7b4" y="242.058497"/>
     <use style="fill:#1f77b4;stroke:#1f77b4;" x="95.127022" xlink:href="#me51361b7b4" y="241.884897"/>
     <use style="fill:#1f77b4;stroke:#1f77b4;" x="97.968653" xlink:href="#me51361b7b4" y="242.00063"/>
     <use style="fill:#1f77b4;stroke:#1f77b4;" x="100.810284" xlink:href="#me51361b7b4" y="241.711297"/>
     <use style="fill:#1f77b4;stroke:#1f77b4;" x="103.651914" xlink:href="#me51361b7b4" y="241.82703"/>
     <use style="fill:#1f77b4;stroke:#1f77b4;" x="106.493545" xlink:href="#me51361b7b4" y="241.30623"/>
     <use style="fill:#1f77b4;stroke:#1f77b4;" x="109.335175" xlink:href="#me51361b7b4" y="242.00063"/>
     <use style="fill:#1f77b4;stroke:#1f77b4;" x="112.176806" xlink:href="#me51361b7b4" y="241.074763"/>
     <use style="fill:#1f77b4;stroke:#1f77b4;" x="115.018437" xlink:href="#me51361b7b4" y="240.669696"/>
     <use style="fill:#1f77b4;stroke:#1f77b4;" x="117.860067" xlink:href="#me51361b7b4" y="241.248363"/>
     <use style="fill:#1f77b4;stroke:#1f77b4;" x="120.701698" xlink:href="#me51361b7b4" y="240.264628"/>
     <use style="fill:#1f77b4;stroke:#1f77b4;" x="123.543328" xlink:href="#me51361b7b4" y="238.991561"/>
     <use style="fill:#1f77b4;stroke:#1f77b4;" x="126.384959" xlink:href="#me51361b7b4" y="239.049427"/>
     <use style="fill:#1f77b4;stroke:#1f77b4;" x="129.22659" xlink:href="#me51361b7b4" y="237.660626"/>
     <use style="fill:#1f77b4;stroke:#1f77b4;" x="132.06822" xlink:href="#me51361b7b4" y="237.776359"/>
     <use style="fill:#1f77b4;stroke:#1f77b4;" x="134.909851" xlink:href="#me51361b7b4" y="235.982491"/>
     <use style="fill:#1f77b4;stroke:#1f77b4;" x="137.751481" xlink:href="#me51361b7b4" y="233.320622"/>
     <use style="fill:#1f77b4;stroke:#1f77b4;" x="140.593112" xlink:href="#me51361b7b4" y="231.58462"/>
     <use style="fill:#1f77b4;stroke:#1f77b4;" x="143.434743" xlink:href="#me51361b7b4" y="229.790752"/>
     <use style="fill:#1f77b4;stroke:#1f77b4;" x="146.276373" xlink:href="#me51361b7b4" y="225.797948"/>
     <use style="fill:#1f77b4;stroke:#1f77b4;" x="149.118004" xlink:href="#me51361b7b4" y="222.673145"/>
     <use style="fill:#1f77b4;stroke:#1f77b4;" x="151.959634" xlink:href="#me51361b7b4" y="219.548341"/>
     <use style="fill:#1f77b4;stroke:#1f77b4;" x="154.801265" xlink:href="#me51361b7b4" y="215.729138"/>
     <use style="fill:#1f77b4;stroke:#1f77b4;" x="157.642896" xlink:href="#me51361b7b4" y="209.710999"/>
     <use style="fill:#1f77b4;stroke:#1f77b4;" x="160.484526" xlink:href="#me51361b7b4" y="204.329393"/>
     <use style="fill:#1f77b4;stroke:#1f77b4;" x="163.326157" xlink:href="#me51361b7b4" y="198.079787"/>
     <use style="fill:#1f77b4;stroke:#1f77b4;" x="166.167788" xlink:href="#me51361b7b4" y="190.325646"/>
     <use style="fill:#1f77b4;stroke:#1f77b4;" x="169.009418" xlink:href="#me51361b7b4" y="182.050705"/>
     <use style="fill:#1f77b4;stroke:#1f77b4;" x="171.851049" xlink:href="#me51361b7b4" y="175.396032"/>
     <use style="fill:#1f77b4;stroke:#1f77b4;" x="174.692679" xlink:href="#me51361b7b4" y="163.996287"/>
     <use style="fill:#1f77b4;stroke:#1f77b4;" x="177.53431" xlink:href="#me51361b7b4" y="157.168014"/>
     <use style="fill:#1f77b4;stroke:#1f77b4;" x="180.375941" xlink:href="#me51361b7b4" y="149.529606"/>
     <use style="fill:#1f77b4;stroke:#1f77b4;" x="183.217571" xlink:href="#me51361b7b4" y="136.625327"/>
     <use style="fill:#1f77b4;stroke:#1f77b4;" x="186.059202" xlink:href="#me51361b7b4" y="126.845851"/>
     <use style="fill:#1f77b4;stroke:#1f77b4;" x="188.900832" xlink:href="#me51361b7b4" y="117.529308"/>
     <use style="fill:#1f77b4;stroke:#1f77b4;" x="191.742463" xlink:href="#me51361b7b4" y="111.800502"/>
     <use style="fill:#1f77b4;stroke:#1f77b4;" x="194.584094" xlink:href="#me51361b7b4" y="98.201822"/>
     <use style="fill:#1f77b4;stroke:#1f77b4;" x="197.425724" xlink:href="#me51361b7b4" y="97.738889"/>
     <use style="fill:#1f77b4;stroke:#1f77b4;" x="200.267355" xlink:href="#me51361b7b4" y="81.536206"/>
     <use style="fill:#1f77b4;stroke:#1f77b4;" x="203.108985" xlink:href="#me51361b7b4" y="83.040741"/>
     <use style="fill:#1f77b4;stroke:#1f77b4;" x="205.950616" xlink:href="#me51361b7b4" y="66.838058"/>
     <use style="fill:#1f77b4;stroke:#1f77b4;" x="208.792247" xlink:href="#me51361b7b4" y="62.498054"/>
     <use style="fill:#1f77b4;stroke:#1f77b4;" x="211.633877" xlink:href="#me51361b7b4" y="55.901248"/>
     <use style="fill:#1f77b4;stroke:#1f77b4;" x="214.475508" xlink:href="#me51361b7b4" y="47.568439"/>
     <use style="fill:#1f77b4;stroke:#1f77b4;" x="217.317139" xlink:href="#me51361b7b4" y="51.79271"/>
     <use style="fill:#1f77b4;stroke:#1f77b4;" x="220.158769" xlink:href="#me51361b7b4" y="48.43644"/>
     <use style="fill:#1f77b4;stroke:#1f77b4;" x="223.0004" xlink:href="#me51361b7b4" y="44.443636"/>
     <use style="fill:#1f77b4;stroke:#1f77b4;" x="225.84203" xlink:href="#me51361b7b4" y="48.43644"/>
     <use style="fill:#1f77b4;stroke:#1f77b4;" x="228.683661" xlink:href="#me51361b7b4" y="54.686046"/>
     <use style="fill:#1f77b4;stroke:#1f77b4;" x="231.525292" xlink:href="#me51361b7b4" y="60.472719"/>
     <use style="fill:#1f77b4;stroke:#1f77b4;" x="234.366922" xlink:href="#me51361b7b4" y="64.002589"/>
     <use style="fill:#1f77b4;stroke:#1f77b4;" x="237.208553" xlink:href="#me51361b7b4" y="67.300992"/>
     <use style="fill:#1f77b4;stroke:#1f77b4;" x="240.050183" xlink:href="#me51361b7b4" y="74.244999"/>
     <use style="fill:#1f77b4;stroke:#1f77b4;" x="242.891814" xlink:href="#me51361b7b4" y="86.802078"/>
     <use style="fill:#1f77b4;stroke:#1f77b4;" x="245.733445" xlink:href="#me51361b7b4" y="91.142082"/>
     <use style="fill:#1f77b4;stroke:#1f77b4;" x="248.575075" xlink:href="#me51361b7b4" y="98.317556"/>
     <use style="fill:#1f77b4;stroke:#1f77b4;" x="251.416706" xlink:href="#me51361b7b4" y="107.807699"/>
     <use style="fill:#1f77b4;stroke:#1f77b4;" x="254.258336" xlink:href="#me51361b7b4" y="116.25624"/>
     <use style="fill:#1f77b4;stroke:#1f77b4;" x="257.099967" xlink:href="#me51361b7b4" y="135.005059"/>
     <use style="fill:#1f77b4;stroke:#1f77b4;" x="259.941598" xlink:href="#me51361b7b4" y="143.395733"/>
     <use style="fill:#1f77b4;stroke:#1f77b4;" x="262.783228" xlink:href="#me51361b7b4" y="151.439208"/>
     <use style="fill:#1f77b4;stroke:#1f77b4;" x="265.624859" xlink:href="#me51361b7b4" y="157.168014"/>
     <use style="fill:#1f77b4;stroke:#1f77b4;" x="268.466489" xlink:href="#me51361b7b4" y="170.708827"/>
     <use style="fill:#1f77b4;stroke:#1f77b4;" x="271.30812" xlink:href="#me51361b7b4" y="173.66003"/>
     <use style="fill:#1f77b4;stroke:#1f77b4;" x="274.149751" xlink:href="#me51361b7b4" y="185.696308"/>
     <use style="fill:#1f77b4;stroke:#1f77b4;" x="276.991381" xlink:href="#me51361b7b4" y="191.425114"/>
     <use style="fill:#1f77b4;stroke:#1f77b4;" x="279.833012" xlink:href="#me51361b7b4" y="195.475785"/>
     <use style="fill:#1f77b4;stroke:#1f77b4;" x="282.674643" xlink:href="#me51361b7b4" y="205.660328"/>
     <use style="fill:#1f77b4;stroke:#1f77b4;" x="285.516273" xlink:href="#me51361b7b4" y="206.470462"/>
     <use style="fill:#1f77b4;stroke:#1f77b4;" x="288.357904" xlink:href="#me51361b7b4" y="214.28247"/>
     <use style="fill:#1f77b4;stroke:#1f77b4;" x="291.199534" xlink:href="#me51361b7b4" y="217.175806"/>
     <use style="fill:#1f77b4;stroke:#1f77b4;" x="294.041165" xlink:href="#me51361b7b4" y="224.061946"/>
     <use style="fill:#1f77b4;stroke:#1f77b4;" x="296.882796" xlink:href="#me51361b7b4" y="224.35128"/>
     <use style="fill:#1f77b4;stroke:#1f77b4;" x="299.724426" xlink:href="#me51361b7b4" y="230.253685"/>
     <use style="fill:#1f77b4;stroke:#1f77b4;" x="302.566057" xlink:href="#me51361b7b4" y="230.948086"/>
     <use style="fill:#1f77b4;stroke:#1f77b4;" x="305.407687" xlink:href="#me51361b7b4" y="233.436355"/>
     <use style="fill:#1f77b4;stroke:#1f77b4;" x="308.249318" xlink:href="#me51361b7b4" y="234.94089"/>
     <use style="fill:#1f77b4;stroke:#1f77b4;" x="311.090949" xlink:href="#me51361b7b4" y="236.734758"/>
     <use style="fill:#1f77b4;stroke:#1f77b4;" x="313.932579" xlink:href="#me51361b7b4" y="238.29716"/>
     <use style="fill:#1f77b4;stroke:#1f77b4;" x="316.77421" xlink:href="#me51361b7b4" y="238.528627"/>
     <use style="fill:#1f77b4;stroke:#1f77b4;" x="319.61584" xlink:href="#me51361b7b4" y="239.512361"/>
     <use style="fill:#1f77b4;stroke:#1f77b4;" x="322.457471" xlink:href="#me51361b7b4" y="240.148895"/>
     <use style="fill:#1f77b4;stroke:#1f77b4;" x="325.299102" xlink:href="#me51361b7b4" y="240.148895"/>
     <use style="fill:#1f77b4;stroke:#1f77b4;" x="328.140732" xlink:href="#me51361b7b4" y="241.074763"/>
     <use style="fill:#1f77b4;stroke:#1f77b4;" x="330.982363" xlink:href="#me51361b7b4" y="241.421963"/>
     <use style="fill:#1f77b4;stroke:#1f77b4;" x="333.823994" xlink:href="#me51361b7b4" y="241.074763"/>
     <use style="fill:#1f77b4;stroke:#1f77b4;" x="336.665624" xlink:href="#me51361b7b4" y="241.364096"/>
     <use style="fill:#1f77b4;stroke:#1f77b4;" x="339.507255" xlink:href="#me51361b7b4" y="241.711297"/>
     <use style="fill:#1f77b4;stroke:#1f77b4;" x="342.348885" xlink:href="#me51361b7b4" y="241.65343"/>
     <use style="fill:#1f77b4;stroke:#1f77b4;" x="345.190516" xlink:href="#me51361b7b4" y="242.058497"/>
     <use style="fill:#1f77b4;stroke:#1f77b4;" x="348.032147" xlink:href="#me51361b7b4" y="242.116364"/>
     <use style="fill:#1f77b4;stroke:#1f77b4;" x="350.873777" xlink:href="#me51361b7b4" y="242.058497"/>
     <use style="fill:#1f77b4;stroke:#1f77b4;" x="353.715408" xlink:href="#me51361b7b4" y="242.058497"/>
     <use style="fill:#1f77b4;stroke:#1f77b4;" x="356.557038" xlink:href="#me51361b7b4" y="242.058497"/>
    </g>
   </g>
   <g id="line2d_17">
    <path clip-path="url(#p1568a3aa85)" d="M 69.218182 242.108014 
L 92.591683 241.972116 
L 102.245955 241.708811 
L 108.85151 241.324615 
L 113.932706 240.83033 
L 118.505782 240.16411 
L 122.570739 239.329828 
L 126.127576 238.356505 
L 129.176294 237.298007 
L 132.225011 235.99109 
L 134.765609 234.680925 
L 137.306207 233.140908 
L 139.846805 231.342406 
L 142.387403 229.255718 
L 144.928001 226.850579 
L 147.468599 224.096801 
L 150.009197 220.965009 
L 152.549795 217.427509 
L 155.090393 213.459248 
L 157.630991 209.038852 
L 160.171589 204.14974 
L 162.712187 198.781251 
L 165.252785 192.929778 
L 168.301503 185.277472 
L 171.35022 176.961986 
L 174.398938 168.029591 
L 177.955775 156.921683 
L 182.020732 143.507305 
L 189.134406 119.068745 
L 194.723721 100.127892 
L 198.280559 88.762234 
L 201.329276 79.723211 
L 203.869874 72.830668 
L 206.410472 66.630713 
L 208.44295 62.234148 
L 210.475429 58.38687 
L 211.999788 55.885883 
L 213.524146 53.730887 
L 215.048505 51.934613 
L 216.572864 50.507749 
L 218.097223 49.458832 
L 219.113462 48.972732 
L 220.129701 48.658761 
L 221.14594 48.517761 
L 222.162179 48.55011 
L 223.178419 48.755722 
L 224.194658 49.134045 
L 225.210897 49.684063 
L 226.735256 50.827676 
L 228.259615 52.347318 
L 229.783973 54.233908 
L 231.308332 56.476239 
L 232.832691 59.061091 
L 234.865169 63.014009 
L 236.897648 67.508266 
L 238.930126 72.498535 
L 241.470724 79.358373 
L 244.519441 88.365302 
L 248.076279 99.703753 
L 252.649355 115.125844 
L 263.827986 153.210114 
L 267.892943 166.091185 
L 271.44978 176.596355 
L 274.498497 184.939018 
L 277.547215 192.620021 
L 280.087813 198.495956 
L 282.628411 203.88893 
L 285.169009 208.802166 
L 287.709607 213.245992 
L 290.250205 217.236717 
L 292.790803 220.795498 
L 295.331401 223.947228 
L 297.871999 226.719492 
L 300.412597 229.141598 
L 302.953195 231.243715 
L 305.493793 233.056118 
L 308.034391 234.608551 
L 310.574989 235.929712 
L 313.623706 237.248065 
L 316.672424 238.31624 
L 320.229261 239.298865 
L 323.786098 240.050201 
L 327.851055 240.686194 
L 332.932251 241.231423 
L 339.029686 241.633406 
L 346.65148 241.899862 
L 358.33823 242.058995 
L 373.581818 242.107871 
L 373.581818 242.107871 
" style="fill:none;stroke:#ff7f0e;stroke-dasharray:5.55,2.4;stroke-dashoffset:0;stroke-width:1.5;"/>
   </g>
   <g id="patch_3">
    <path d="M 54 252 
L 54 34.56 
" style="fill:none;stroke:#000000;stroke-linecap:square;stroke-linejoin:miter;stroke-width:0.8;"/>
   </g>
   <g id="patch_4">
    <path d="M 388.8 252 
L 388.8 34.56 
" style="fill:none;stroke:#000000;stroke-linecap:square;stroke-linejoin:miter;stroke-width:0.8;"/>
   </g>
   <g id="patch_5">
    <path d="M 54 252 
L 388.8 252 
" style="fill:none;stroke:#000000;stroke-linecap:square;stroke-linejoin:miter;stroke-width:0.8;"/>
   </g>
   <g id="patch_6">
    <path d="M 54 34.56 
L 388.8 34.56 
" style="fill:none;stroke:#000000;stroke-linecap:square;stroke-linejoin:miter;stroke-width:0.8;"/>
   </g>
   <g id="text_17">
    <!--  mean: 2899.63  -->
    <defs>
     <path id="DejaVuSans-32"/>
     <path d="M 52 44.1875 
Q 55.375 50.25 60.0625 53.125 
Q 64.75 56 71.09375 56 
Q 79.640625 56 84.28125 50.015625 
Q 88.921875 44.046875 88.921875 33.015625 
L 88.921875 0 
L 79.890625 0 
L 79.890625 32.71875 
Q 79.890625 40.578125 77.09375 44.375 
Q 74.3125 48.1875 68.609375 48.1875 
Q 61.625 48.1875 57.5625 43.546875 
Q 53.515625 38.921875 53.515625 30.90625 
L 53.515625 0 
L 44.484375 0 
L 44.484375 32.71875 
Q 44.484375 40.625 41.703125 44.40625 
Q 38.921875 48.1875 33.109375 48.1875 
Q 26.21875 48.1875 22.15625 43.53125 
Q 18.109375 38.875 18.109375 30.90625 
L 18.109375 0 
L 9.078125 0 
L 9.078125 54.6875 
L 18.109375 54.6875 
L 18.109375 46.1875 
Q 21.1875 51.21875 25.484375 53.609375 
Q 29.78125 56 35.6875 56 
Q 41.65625 56 45.828125 52.96875 
Q 50 49.953125 52 44.1875 
z
" id="DejaVuSans-109"/>
     <path d="M 56.203125 29.59375 
L 56.203125 25.203125 
L 14.890625 25.203125 
Q 15.484375 15.921875 20.484375 11.0625 
Q 25.484375 6.203125 34.421875 6.203125 
Q 39.59375 6.203125 44.453125 7.46875 
Q 49.3125 8.734375 54.109375 11.28125 
L 54.109375 2.78125 
Q 49.265625 0.734375 44.1875 -0.34375 
Q 39.109375 -1.421875 33.890625 -1.421875 
Q 20.796875 -1.421875 13.15625 6.1875 
Q 5.515625 13.8125 5.515625 26.8125 
Q 5.515625 40.234375 12.765625 48.109375 
Q 20.015625 56 32.328125 56 
Q 43.359375 56 49.78125 48.890625 
Q 56.203125 41.796875 56.203125 29.59375 
z
M 47.21875 32.234375 
Q 47.125 39.59375 43.09375 43.984375 
Q 39.0625 48.390625 32.421875 48.390625 
Q 24.90625 48.390625 20.390625 44.140625 
Q 15.875 39.890625 15.1875 32.171875 
z
" id="DejaVuSans-101"/>
     <path d="M 54.890625 33.015625 
L 54.890625 0 
L 45.90625 0 
L 45.90625 32.71875 
Q 45.90625 40.484375 42.875 44.328125 
Q 39.84375 48.1875 33.796875 48.1875 
Q 26.515625 48.1875 22.3125 43.546875 
Q 18.109375 38.921875 18.109375 30.90625 
L 18.109375 0 
L 9.078125 0 
L 9.078125 54.6875 
L 18.109375 54.6875 
L 18.109375 46.1875 
Q 21.34375 51.125 25.703125 53.5625 
Q 30.078125 56 35.796875 56 
Q 45.21875 56 50.046875 50.171875 
Q 54.890625 44.34375 54.890625 33.015625 
z
" id="DejaVuSans-110"/>
     <path d="M 11.71875 12.40625 
L 22.015625 12.40625 
L 22.015625 0 
L 11.71875 0 
z
M 11.71875 51.703125 
L 22.015625 51.703125 
L 22.015625 39.3125 
L 11.71875 39.3125 
z
" id="DejaVuSans-58"/>
     <path d="M 10.6875 12.40625 
L 21 12.40625 
L 21 0 
L 10.6875 0 
z
" id="DejaVuSans-46"/>
    </defs>
    <g style="fill:#008000;" transform="translate(69.218182 65.532382)scale(0.13 -0.13)">
     <use xlink:href="#DejaVuSans-32"/>
     <use x="31.787109" xlink:href="#DejaVuSans-109"/>
     <use x="129.199219" xlink:href="#DejaVuSans-101"/>
     <use x="190.722656" xlink:href="#DejaVuSans-97"/>
     <use x="252.001953" xlink:href="#DejaVuSans-110"/>
     <use x="315.380859" xlink:href="#DejaVuSans-58"/>
     <use x="349.072266" xlink:href="#DejaVuSans-32"/>
     <use x="380.859375" xlink:href="#DejaVuSans-50"/>
     <use x="444.482422" xlink:href="#DejaVuSans-56"/>
     <use x="508.105469" xlink:href="#DejaVuSans-57"/>
     <use x="571.728516" xlink:href="#DejaVuSans-57"/>
     <use x="635.351562" xlink:href="#DejaVuSans-46"/>
     <use x="667.138672" xlink:href="#DejaVuSans-54"/>
     <use x="730.761719" xlink:href="#DejaVuSans-51"/>
     <use x="794.384766" xlink:href="#DejaVuSans-32"/>
    </g>
    <!--  std: 66.83 -->
    <defs>
     <path d="M 44.28125 53.078125 
L 44.28125 44.578125 
Q 40.484375 46.53125 36.375 47.5 
Q 32.28125 48.484375 27.875 48.484375 
Q 21.1875 48.484375 17.84375 46.4375 
Q 14.5 44.390625 14.5 40.28125 
Q 14.5 37.15625 16.890625 35.375 
Q 19.28125 33.59375 26.515625 31.984375 
L 29.59375 31.296875 
Q 39.15625 29.25 43.1875 25.515625 
Q 47.21875 21.78125 47.21875 15.09375 
Q 47.21875 7.46875 41.1875 3.015625 
Q 35.15625 -1.421875 24.609375 -1.421875 
Q 20.21875 -1.421875 15.453125 -0.5625 
Q 10.6875 0.296875 5.421875 2 
L 5.421875 11.28125 
Q 10.40625 8.6875 15.234375 7.390625 
Q 20.0625 6.109375 24.8125 6.109375 
Q 31.15625 6.109375 34.5625 8.28125 
Q 37.984375 10.453125 37.984375 14.40625 
Q 37.984375 18.0625 35.515625 20.015625 
Q 33.0625 21.96875 24.703125 23.78125 
L 21.578125 24.515625 
Q 13.234375 26.265625 9.515625 29.90625 
Q 5.8125 33.546875 5.8125 39.890625 
Q 5.8125 47.609375 11.28125 51.796875 
Q 16.75 56 26.8125 56 
Q 31.78125 56 36.171875 55.265625 
Q 40.578125 54.546875 44.28125 53.078125 
z
" id="DejaVuSans-115"/>
     <path d="M 45.40625 46.390625 
L 45.40625 75.984375 
L 54.390625 75.984375 
L 54.390625 0 
L 45.40625 0 
L 45.40625 8.203125 
Q 42.578125 3.328125 38.25 0.953125 
Q 33.9375 -1.421875 27.875 -1.421875 
Q 17.96875 -1.421875 11.734375 6.484375 
Q 5.515625 14.40625 5.515625 27.296875 
Q 5.515625 40.1875 11.734375 48.09375 
Q 17.96875 56 27.875 56 
Q 33.9375 56 38.25 53.625 
Q 42.578125 51.265625 45.40625 46.390625 
z
M 14.796875 27.296875 
Q 14.796875 17.390625 18.875 11.75 
Q 22.953125 6.109375 30.078125 6.109375 
Q 37.203125 6.109375 41.296875 11.75 
Q 45.40625 17.390625 45.40625 27.296875 
Q 45.40625 37.203125 41.296875 42.84375 
Q 37.203125 48.484375 30.078125 48.484375 
Q 22.953125 48.484375 18.875 42.84375 
Q 14.796875 37.203125 14.796875 27.296875 
z
" id="DejaVuSans-100"/>
    </defs>
    <g style="fill:#008000;" transform="translate(69.218182 80.089538)scale(0.13 -0.13)">
     <use xlink:href="#DejaVuSans-32"/>
     <use x="31.787109" xlink:href="#DejaVuSans-115"/>
     <use x="83.886719" xlink:href="#DejaVuSans-116"/>
     <use x="123.095703" xlink:href="#DejaVuSans-100"/>
     <use x="186.572266" xlink:href="#DejaVuSans-58"/>
     <use x="220.263672" xlink:href="#DejaVuSans-32"/>
     <use x="252.050781" xlink:href="#DejaVuSans-54"/>
     <use x="315.673828" xlink:href="#DejaVuSans-54"/>
     <use x="379.296875" xlink:href="#DejaVuSans-46"/>
     <use x="411.083984" xlink:href="#DejaVuSans-56"/>
     <use x="474.707031" xlink:href="#DejaVuSans-51"/>
    </g>
   </g>
   <g id="text_18">
    <!-- totalPE for 2MeV gamma -->
    <defs>
     <path d="M 37.109375 75.984375 
L 37.109375 68.5 
L 28.515625 68.5 
Q 23.6875 68.5 21.796875 66.546875 
Q 19.921875 64.59375 19.921875 59.515625 
L 19.921875 54.6875 
L 34.71875 54.6875 
L 34.71875 47.703125 
L 19.921875 47.703125 
L 19.921875 0 
L 10.890625 0 
L 10.890625 47.703125 
L 2.296875 47.703125 
L 2.296875 54.6875 
L 10.890625 54.6875 
L 10.890625 58.5 
Q 10.890625 67.625 15.140625 71.796875 
Q 19.390625 75.984375 28.609375 75.984375 
z
" id="DejaVuSans-102"/>
     <path d="M 41.109375 46.296875 
Q 39.59375 47.171875 37.8125 47.578125 
Q 36.03125 48 33.890625 48 
Q 26.265625 48 22.1875 43.046875 
Q 18.109375 38.09375 18.109375 28.8125 
L 18.109375 0 
L 9.078125 0 
L 9.078125 54.6875 
L 18.109375 54.6875 
L 18.109375 46.1875 
Q 20.953125 51.171875 25.484375 53.578125 
Q 30.03125 56 36.53125 56 
Q 37.453125 56 38.578125 55.875 
Q 39.703125 55.765625 41.0625 55.515625 
z
" id="DejaVuSans-114"/>
     <path d="M 9.8125 72.90625 
L 24.515625 72.90625 
L 43.109375 23.296875 
L 61.8125 72.90625 
L 76.515625 72.90625 
L 76.515625 0 
L 66.890625 0 
L 66.890625 64.015625 
L 48.09375 14.015625 
L 38.1875 14.015625 
L 19.390625 64.015625 
L 19.390625 0 
L 9.8125 0 
z
" id="DejaVuSans-77"/>
     <path d="M 28.609375 0 
L 0.78125 72.90625 
L 11.078125 72.90625 
L 34.1875 11.53125 
L 57.328125 72.90625 
L 67.578125 72.90625 
L 39.796875 0 
z
" id="DejaVuSans-86"/>
     <path d="M 45.40625 27.984375 
Q 45.40625 37.75 41.375 43.109375 
Q 37.359375 48.484375 30.078125 48.484375 
Q 22.859375 48.484375 18.828125 43.109375 
Q 14.796875 37.75 14.796875 27.984375 
Q 14.796875 18.265625 18.828125 12.890625 
Q 22.859375 7.515625 30.078125 7.515625 
Q 37.359375 7.515625 41.375 12.890625 
Q 45.40625 18.265625 45.40625 27.984375 
z
M 54.390625 6.78125 
Q 54.390625 -7.171875 48.1875 -13.984375 
Q 42 -20.796875 29.203125 -20.796875 
Q 24.46875 -20.796875 20.265625 -20.09375 
Q 16.0625 -19.390625 12.109375 -17.921875 
L 12.109375 -9.1875 
Q 16.0625 -11.328125 19.921875 -12.34375 
Q 23.78125 -13.375 27.78125 -13.375 
Q 36.625 -13.375 41.015625 -8.765625 
Q 45.40625 -4.15625 45.40625 5.171875 
L 45.40625 9.625 
Q 42.625 4.78125 38.28125 2.390625 
Q 33.9375 0 27.875 0 
Q 17.828125 0 11.671875 7.65625 
Q 5.515625 15.328125 5.515625 27.984375 
Q 5.515625 40.671875 11.671875 48.328125 
Q 17.828125 56 27.875 56 
Q 33.9375 56 38.28125 53.609375 
Q 42.625 51.21875 45.40625 46.390625 
L 45.40625 54.6875 
L 54.390625 54.6875 
z
" id="DejaVuSans-103"/>
    </defs>
    <g transform="translate(146.65875 28.56)scale(0.12 -0.12)">
     <use xlink:href="#DejaVuSans-116"/>
     <use x="39.208984" xlink:href="#DejaVuSans-111"/>
     <use x="100.390625" xlink:href="#DejaVuSans-116"/>
     <use x="139.599609" xlink:href="#DejaVuSans-97"/>
     <use x="200.878906" xlink:href="#DejaVuSans-108"/>
     <use x="228.662109" xlink:href="#DejaVuSans-80"/>
     <use x="288.964844" xlink:href="#DejaVuSans-69"/>
     <use x="352.148438" xlink:href="#DejaVuSans-32"/>
     <use x="383.935547" xlink:href="#DejaVuSans-102"/>
     <use x="419.140625" xlink:href="#DejaVuSans-111"/>
     <use x="480.322266" xlink:href="#DejaVuSans-114"/>
     <use x="521.435547" xlink:href="#DejaVuSans-32"/>
     <use x="553.222656" xlink:href="#DejaVuSans-50"/>
     <use x="616.845703" xlink:href="#DejaVuSans-77"/>
     <use x="703.125" xlink:href="#DejaVuSans-101"/>
     <use x="764.648438" xlink:href="#DejaVuSans-86"/>
     <use x="833.056641" xlink:href="#DejaVuSans-32"/>
     <use x="864.84375" xlink:href="#DejaVuSans-103"/>
     <use x="928.320312" xlink:href="#DejaVuSans-97"/>
     <use x="989.599609" xlink:href="#DejaVuSans-109"/>
     <use x="1087.011719" xlink:href="#DejaVuSans-109"/>
     <use x="1184.423828" xlink:href="#DejaVuSans-97"/>
    </g>
   </g>
  </g>
 </g>
 <defs>
  <clipPath id="p1568a3aa85">
   <rect height="217.44" width="334.8" x="54" y="34.56"/>
  </clipPath>
 </defs>
</svg>
