<?xml version="1.0" encoding="utf-8" standalone="no"?>
<!DOCTYPE svg PUBLIC "-//W3C//DTD SVG 1.1//EN"
  "http://www.w3.org/Graphics/SVG/1.1/DTD/svg11.dtd">
<!-- Created with matplotlib (https://matplotlib.org/) -->
<svg height="288pt" version="1.1" viewBox="0 0 432 288" width="432pt" xmlns="http://www.w3.org/2000/svg" xmlns:xlink="http://www.w3.org/1999/xlink">
 <defs>
  <style type="text/css">
*{stroke-linecap:butt;stroke-linejoin:round;}
  </style>
 </defs>
 <g id="figure_1">
  <g id="patch_1">
   <path d="M 0 288 
L 432 288 
L 432 0 
L 0 0 
z
" style="fill:#ffffff;"/>
  </g>
  <g id="axes_1">
   <g id="patch_2">
    <path d="M 54 252 
L 388.8 252 
L 388.8 34.56 
L 54 34.56 
z
" style="fill:#ffffff;"/>
   </g>
   <g id="matplotlib.axis_1">
    <g id="xtick_1">
     <g id="line2d_1">
      <defs>
       <path d="M 0 0 
L 0 3.5 
" id="mbfd9aff2d4" style="stroke:#000000;stroke-width:0.8;"/>
      </defs>
      <g>
       <use style="stroke:#000000;stroke-width:0.8;" x="100.54479" xlink:href="#mbfd9aff2d4" y="252"/>
      </g>
     </g>
     <g id="text_1">
      <!-- 5600 -->
      <defs>
       <path d="M 10.796875 72.90625 
L 49.515625 72.90625 
L 49.515625 64.59375 
L 19.828125 64.59375 
L 19.828125 46.734375 
Q 21.96875 47.46875 24.109375 47.828125 
Q 26.265625 48.1875 28.421875 48.1875 
Q 40.625 48.1875 47.75 41.5 
Q 54.890625 34.8125 54.890625 23.390625 
Q 54.890625 11.625 47.5625 5.09375 
Q 40.234375 -1.421875 26.90625 -1.421875 
Q 22.3125 -1.421875 17.546875 -0.640625 
Q 12.796875 0.140625 7.71875 1.703125 
L 7.71875 11.625 
Q 12.109375 9.234375 16.796875 8.0625 
Q 21.484375 6.890625 26.703125 6.890625 
Q 35.15625 6.890625 40.078125 11.328125 
Q 45.015625 15.765625 45.015625 23.390625 
Q 45.015625 31 40.078125 35.4375 
Q 35.15625 39.890625 26.703125 39.890625 
Q 22.75 39.890625 18.8125 39.015625 
Q 14.890625 38.140625 10.796875 36.28125 
z
" id="DejaVuSans-53"/>
       <path d="M 33.015625 40.375 
Q 26.375 40.375 22.484375 35.828125 
Q 18.609375 31.296875 18.609375 23.390625 
Q 18.609375 15.53125 22.484375 10.953125 
Q 26.375 6.390625 33.015625 6.390625 
Q 39.65625 6.390625 43.53125 10.953125 
Q 47.40625 15.53125 47.40625 23.390625 
Q 47.40625 31.296875 43.53125 35.828125 
Q 39.65625 40.375 33.015625 40.375 
z
M 52.59375 71.296875 
L 52.59375 62.3125 
Q 48.875 64.0625 45.09375 64.984375 
Q 41.3125 65.921875 37.59375 65.921875 
Q 27.828125 65.921875 22.671875 59.328125 
Q 17.53125 52.734375 16.796875 39.40625 
Q 19.671875 43.65625 24.015625 45.921875 
Q 28.375 48.1875 33.59375 48.1875 
Q 44.578125 48.1875 50.953125 41.515625 
Q 57.328125 34.859375 57.328125 23.390625 
Q 57.328125 12.15625 50.6875 5.359375 
Q 44.046875 -1.421875 33.015625 -1.421875 
Q 20.359375 -1.421875 13.671875 8.265625 
Q 6.984375 17.96875 6.984375 36.375 
Q 6.984375 53.65625 15.1875 63.9375 
Q 23.390625 74.21875 37.203125 74.21875 
Q 40.921875 74.21875 44.703125 73.484375 
Q 48.484375 72.75 52.59375 71.296875 
z
" id="DejaVuSans-54"/>
       <path d="M 31.78125 66.40625 
Q 24.171875 66.40625 20.328125 58.90625 
Q 16.5 51.421875 16.5 36.375 
Q 16.5 21.390625 20.328125 13.890625 
Q 24.171875 6.390625 31.78125 6.390625 
Q 39.453125 6.390625 43.28125 13.890625 
Q 47.125 21.390625 47.125 36.375 
Q 47.125 51.421875 43.28125 58.90625 
Q 39.453125 66.40625 31.78125 66.40625 
z
M 31.78125 74.21875 
Q 44.046875 74.21875 50.515625 64.515625 
Q 56.984375 54.828125 56.984375 36.375 
Q 56.984375 17.96875 50.515625 8.265625 
Q 44.046875 -1.421875 31.78125 -1.421875 
Q 19.53125 -1.421875 13.0625 8.265625 
Q 6.59375 17.96875 6.59375 36.375 
Q 6.59375 54.828125 13.0625 64.515625 
Q 19.53125 74.21875 31.78125 74.21875 
z
" id="DejaVuSans-48"/>
      </defs>
      <g transform="translate(87.81979 266.598437)scale(0.1 -0.1)">
       <use xlink:href="#DejaVuSans-53"/>
       <use x="63.623047" xlink:href="#DejaVuSans-54"/>
       <use x="127.246094" xlink:href="#DejaVuSans-48"/>
       <use x="190.869141" xlink:href="#DejaVuSans-48"/>
      </g>
     </g>
    </g>
    <g id="xtick_2">
     <g id="line2d_2">
      <g>
       <use style="stroke:#000000;stroke-width:0.8;" x="172.78458" xlink:href="#mbfd9aff2d4" y="252"/>
      </g>
     </g>
     <g id="text_2">
      <!-- 5800 -->
      <defs>
       <path d="M 31.78125 34.625 
Q 24.75 34.625 20.71875 30.859375 
Q 16.703125 27.09375 16.703125 20.515625 
Q 16.703125 13.921875 20.71875 10.15625 
Q 24.75 6.390625 31.78125 6.390625 
Q 38.8125 6.390625 42.859375 10.171875 
Q 46.921875 13.96875 46.921875 20.515625 
Q 46.921875 27.09375 42.890625 30.859375 
Q 38.875 34.625 31.78125 34.625 
z
M 21.921875 38.8125 
Q 15.578125 40.375 12.03125 44.71875 
Q 8.5 49.078125 8.5 55.328125 
Q 8.5 64.0625 14.71875 69.140625 
Q 20.953125 74.21875 31.78125 74.21875 
Q 42.671875 74.21875 48.875 69.140625 
Q 55.078125 64.0625 55.078125 55.328125 
Q 55.078125 49.078125 51.53125 44.71875 
Q 48 40.375 41.703125 38.8125 
Q 48.828125 37.15625 52.796875 32.3125 
Q 56.78125 27.484375 56.78125 20.515625 
Q 56.78125 9.90625 50.3125 4.234375 
Q 43.84375 -1.421875 31.78125 -1.421875 
Q 19.734375 -1.421875 13.25 4.234375 
Q 6.78125 9.90625 6.78125 20.515625 
Q 6.78125 27.484375 10.78125 32.3125 
Q 14.796875 37.15625 21.921875 38.8125 
z
M 18.3125 54.390625 
Q 18.3125 48.734375 21.84375 45.5625 
Q 25.390625 42.390625 31.78125 42.390625 
Q 38.140625 42.390625 41.71875 45.5625 
Q 45.3125 48.734375 45.3125 54.390625 
Q 45.3125 60.0625 41.71875 63.234375 
Q 38.140625 66.40625 31.78125 66.40625 
Q 25.390625 66.40625 21.84375 63.234375 
Q 18.3125 60.0625 18.3125 54.390625 
z
" id="DejaVuSans-56"/>
      </defs>
      <g transform="translate(160.05958 266.598437)scale(0.1 -0.1)">
       <use xlink:href="#DejaVuSans-53"/>
       <use x="63.623047" xlink:href="#DejaVuSans-56"/>
       <use x="127.246094" xlink:href="#DejaVuSans-48"/>
       <use x="190.869141" xlink:href="#DejaVuSans-48"/>
      </g>
     </g>
    </g>
    <g id="xtick_3">
     <g id="line2d_3">
      <g>
       <use style="stroke:#000000;stroke-width:0.8;" x="245.024371" xlink:href="#mbfd9aff2d4" y="252"/>
      </g>
     </g>
     <g id="text_3">
      <!-- 6000 -->
      <g transform="translate(232.299371 266.598437)scale(0.1 -0.1)">
       <use xlink:href="#DejaVuSans-54"/>
       <use x="63.623047" xlink:href="#DejaVuSans-48"/>
       <use x="127.246094" xlink:href="#DejaVuSans-48"/>
       <use x="190.869141" xlink:href="#DejaVuSans-48"/>
      </g>
     </g>
    </g>
    <g id="xtick_4">
     <g id="line2d_4">
      <g>
       <use style="stroke:#000000;stroke-width:0.8;" x="317.264162" xlink:href="#mbfd9aff2d4" y="252"/>
      </g>
     </g>
     <g id="text_4">
      <!-- 6200 -->
      <defs>
       <path d="M 19.1875 8.296875 
L 53.609375 8.296875 
L 53.609375 0 
L 7.328125 0 
L 7.328125 8.296875 
Q 12.9375 14.109375 22.625 23.890625 
Q 32.328125 33.6875 34.8125 36.53125 
Q 39.546875 41.84375 41.421875 45.53125 
Q 43.3125 49.21875 43.3125 52.78125 
Q 43.3125 58.59375 39.234375 62.25 
Q 35.15625 65.921875 28.609375 65.921875 
Q 23.96875 65.921875 18.8125 64.3125 
Q 13.671875 62.703125 7.8125 59.421875 
L 7.8125 69.390625 
Q 13.765625 71.78125 18.9375 73 
Q 24.125 74.21875 28.421875 74.21875 
Q 39.75 74.21875 46.484375 68.546875 
Q 53.21875 62.890625 53.21875 53.421875 
Q 53.21875 48.921875 51.53125 44.890625 
Q 49.859375 40.875 45.40625 35.40625 
Q 44.1875 33.984375 37.640625 27.21875 
Q 31.109375 20.453125 19.1875 8.296875 
z
" id="DejaVuSans-50"/>
      </defs>
      <g transform="translate(304.539162 266.598437)scale(0.1 -0.1)">
       <use xlink:href="#DejaVuSans-54"/>
       <use x="63.623047" xlink:href="#DejaVuSans-50"/>
       <use x="127.246094" xlink:href="#DejaVuSans-48"/>
       <use x="190.869141" xlink:href="#DejaVuSans-48"/>
      </g>
     </g>
    </g>
    <g id="text_5">
     <!-- totalPE -->
     <defs>
      <path d="M 18.3125 70.21875 
L 18.3125 54.6875 
L 36.8125 54.6875 
L 36.8125 47.703125 
L 18.3125 47.703125 
L 18.3125 18.015625 
Q 18.3125 11.328125 20.140625 9.421875 
Q 21.96875 7.515625 27.59375 7.515625 
L 36.8125 7.515625 
L 36.8125 0 
L 27.59375 0 
Q 17.1875 0 13.234375 3.875 
Q 9.28125 7.765625 9.28125 18.015625 
L 9.28125 47.703125 
L 2.6875 47.703125 
L 2.6875 54.6875 
L 9.28125 54.6875 
L 9.28125 70.21875 
z
" id="DejaVuSans-116"/>
      <path d="M 30.609375 48.390625 
Q 23.390625 48.390625 19.1875 42.75 
Q 14.984375 37.109375 14.984375 27.296875 
Q 14.984375 17.484375 19.15625 11.84375 
Q 23.34375 6.203125 30.609375 6.203125 
Q 37.796875 6.203125 41.984375 11.859375 
Q 46.1875 17.53125 46.1875 27.296875 
Q 46.1875 37.015625 41.984375 42.703125 
Q 37.796875 48.390625 30.609375 48.390625 
z
M 30.609375 56 
Q 42.328125 56 49.015625 48.375 
Q 55.71875 40.765625 55.71875 27.296875 
Q 55.71875 13.875 49.015625 6.21875 
Q 42.328125 -1.421875 30.609375 -1.421875 
Q 18.84375 -1.421875 12.171875 6.21875 
Q 5.515625 13.875 5.515625 27.296875 
Q 5.515625 40.765625 12.171875 48.375 
Q 18.84375 56 30.609375 56 
z
" id="DejaVuSans-111"/>
      <path d="M 34.28125 27.484375 
Q 23.390625 27.484375 19.1875 25 
Q 14.984375 22.515625 14.984375 16.5 
Q 14.984375 11.71875 18.140625 8.90625 
Q 21.296875 6.109375 26.703125 6.109375 
Q 34.1875 6.109375 38.703125 11.40625 
Q 43.21875 16.703125 43.21875 25.484375 
L 43.21875 27.484375 
z
M 52.203125 31.203125 
L 52.203125 0 
L 43.21875 0 
L 43.21875 8.296875 
Q 40.140625 3.328125 35.546875 0.953125 
Q 30.953125 -1.421875 24.3125 -1.421875 
Q 15.921875 -1.421875 10.953125 3.296875 
Q 6 8.015625 6 15.921875 
Q 6 25.140625 12.171875 29.828125 
Q 18.359375 34.515625 30.609375 34.515625 
L 43.21875 34.515625 
L 43.21875 35.40625 
Q 43.21875 41.609375 39.140625 45 
Q 35.0625 48.390625 27.6875 48.390625 
Q 23 48.390625 18.546875 47.265625 
Q 14.109375 46.140625 10.015625 43.890625 
L 10.015625 52.203125 
Q 14.9375 54.109375 19.578125 55.046875 
Q 24.21875 56 28.609375 56 
Q 40.484375 56 46.34375 49.84375 
Q 52.203125 43.703125 52.203125 31.203125 
z
" id="DejaVuSans-97"/>
      <path d="M 9.421875 75.984375 
L 18.40625 75.984375 
L 18.40625 0 
L 9.421875 0 
z
" id="DejaVuSans-108"/>
      <path d="M 19.671875 64.796875 
L 19.671875 37.40625 
L 32.078125 37.40625 
Q 38.96875 37.40625 42.71875 40.96875 
Q 46.484375 44.53125 46.484375 51.125 
Q 46.484375 57.671875 42.71875 61.234375 
Q 38.96875 64.796875 32.078125 64.796875 
z
M 9.8125 72.90625 
L 32.078125 72.90625 
Q 44.34375 72.90625 50.609375 67.359375 
Q 56.890625 61.8125 56.890625 51.125 
Q 56.890625 40.328125 50.609375 34.8125 
Q 44.34375 29.296875 32.078125 29.296875 
L 19.671875 29.296875 
L 19.671875 0 
L 9.8125 0 
z
" id="DejaVuSans-80"/>
      <path d="M 9.8125 72.90625 
L 55.90625 72.90625 
L 55.90625 64.59375 
L 19.671875 64.59375 
L 19.671875 43.015625 
L 54.390625 43.015625 
L 54.390625 34.71875 
L 19.671875 34.71875 
L 19.671875 8.296875 
L 56.78125 8.296875 
L 56.78125 0 
L 9.8125 0 
z
" id="DejaVuSans-69"/>
     </defs>
     <g transform="translate(203.792969 280.276563)scale(0.1 -0.1)">
      <use xlink:href="#DejaVuSans-116"/>
      <use x="39.208984" xlink:href="#DejaVuSans-111"/>
      <use x="100.390625" xlink:href="#DejaVuSans-116"/>
      <use x="139.599609" xlink:href="#DejaVuSans-97"/>
      <use x="200.878906" xlink:href="#DejaVuSans-108"/>
      <use x="228.662109" xlink:href="#DejaVuSans-80"/>
      <use x="288.964844" xlink:href="#DejaVuSans-69"/>
     </g>
    </g>
   </g>
   <g id="matplotlib.axis_2">
    <g id="ytick_1">
     <g id="line2d_5">
      <defs>
       <path d="M 0 0 
L -3.5 0 
" id="m26ad7eeed7" style="stroke:#000000;stroke-width:0.8;"/>
      </defs>
      <g>
       <use style="stroke:#000000;stroke-width:0.8;" x="54" xlink:href="#m26ad7eeed7" y="242.116364"/>
      </g>
     </g>
     <g id="text_6">
      <!-- 0 -->
      <g transform="translate(40.6375 245.915582)scale(0.1 -0.1)">
       <use xlink:href="#DejaVuSans-48"/>
      </g>
     </g>
    </g>
    <g id="ytick_2">
     <g id="line2d_6">
      <g>
       <use style="stroke:#000000;stroke-width:0.8;" x="54" xlink:href="#m26ad7eeed7" y="213.055392"/>
      </g>
     </g>
     <g id="text_7">
      <!-- 500 -->
      <g transform="translate(27.9125 216.854611)scale(0.1 -0.1)">
       <use xlink:href="#DejaVuSans-53"/>
       <use x="63.623047" xlink:href="#DejaVuSans-48"/>
       <use x="127.246094" xlink:href="#DejaVuSans-48"/>
      </g>
     </g>
    </g>
    <g id="ytick_3">
     <g id="line2d_7">
      <g>
       <use style="stroke:#000000;stroke-width:0.8;" x="54" xlink:href="#m26ad7eeed7" y="183.994421"/>
      </g>
     </g>
     <g id="text_8">
      <!-- 1000 -->
      <defs>
       <path d="M 12.40625 8.296875 
L 28.515625 8.296875 
L 28.515625 63.921875 
L 10.984375 60.40625 
L 10.984375 69.390625 
L 28.421875 72.90625 
L 38.28125 72.90625 
L 38.28125 8.296875 
L 54.390625 8.296875 
L 54.390625 0 
L 12.40625 0 
z
" id="DejaVuSans-49"/>
      </defs>
      <g transform="translate(21.55 187.79364)scale(0.1 -0.1)">
       <use xlink:href="#DejaVuSans-49"/>
       <use x="63.623047" xlink:href="#DejaVuSans-48"/>
       <use x="127.246094" xlink:href="#DejaVuSans-48"/>
       <use x="190.869141" xlink:href="#DejaVuSans-48"/>
      </g>
     </g>
    </g>
    <g id="ytick_4">
     <g id="line2d_8">
      <g>
       <use style="stroke:#000000;stroke-width:0.8;" x="54" xlink:href="#m26ad7eeed7" y="154.93345"/>
      </g>
     </g>
     <g id="text_9">
      <!-- 1500 -->
      <g transform="translate(21.55 158.732668)scale(0.1 -0.1)">
       <use xlink:href="#DejaVuSans-49"/>
       <use x="63.623047" xlink:href="#DejaVuSans-53"/>
       <use x="127.246094" xlink:href="#DejaVuSans-48"/>
       <use x="190.869141" xlink:href="#DejaVuSans-48"/>
      </g>
     </g>
    </g>
    <g id="ytick_5">
     <g id="line2d_9">
      <g>
       <use style="stroke:#000000;stroke-width:0.8;" x="54" xlink:href="#m26ad7eeed7" y="125.872478"/>
      </g>
     </g>
     <g id="text_10">
      <!-- 2000 -->
      <g transform="translate(21.55 129.671697)scale(0.1 -0.1)">
       <use xlink:href="#DejaVuSans-50"/>
       <use x="63.623047" xlink:href="#DejaVuSans-48"/>
       <use x="127.246094" xlink:href="#DejaVuSans-48"/>
       <use x="190.869141" xlink:href="#DejaVuSans-48"/>
      </g>
     </g>
    </g>
    <g id="ytick_6">
     <g id="line2d_10">
      <g>
       <use style="stroke:#000000;stroke-width:0.8;" x="54" xlink:href="#m26ad7eeed7" y="96.811507"/>
      </g>
     </g>
     <g id="text_11">
      <!-- 2500 -->
      <g transform="translate(21.55 100.610726)scale(0.1 -0.1)">
       <use xlink:href="#DejaVuSans-50"/>
       <use x="63.623047" xlink:href="#DejaVuSans-53"/>
       <use x="127.246094" xlink:href="#DejaVuSans-48"/>
       <use x="190.869141" xlink:href="#DejaVuSans-48"/>
      </g>
     </g>
    </g>
    <g id="ytick_7">
     <g id="line2d_11">
      <g>
       <use style="stroke:#000000;stroke-width:0.8;" x="54" xlink:href="#m26ad7eeed7" y="67.750535"/>
      </g>
     </g>
     <g id="text_12">
      <!-- 3000 -->
      <defs>
       <path d="M 40.578125 39.3125 
Q 47.65625 37.796875 51.625 33 
Q 55.609375 28.21875 55.609375 21.1875 
Q 55.609375 10.40625 48.1875 4.484375 
Q 40.765625 -1.421875 27.09375 -1.421875 
Q 22.515625 -1.421875 17.65625 -0.515625 
Q 12.796875 0.390625 7.625 2.203125 
L 7.625 11.71875 
Q 11.71875 9.328125 16.59375 8.109375 
Q 21.484375 6.890625 26.8125 6.890625 
Q 36.078125 6.890625 40.9375 10.546875 
Q 45.796875 14.203125 45.796875 21.1875 
Q 45.796875 27.640625 41.28125 31.265625 
Q 36.765625 34.90625 28.71875 34.90625 
L 20.21875 34.90625 
L 20.21875 43.015625 
L 29.109375 43.015625 
Q 36.375 43.015625 40.234375 45.921875 
Q 44.09375 48.828125 44.09375 54.296875 
Q 44.09375 59.90625 40.109375 62.90625 
Q 36.140625 65.921875 28.71875 65.921875 
Q 24.65625 65.921875 20.015625 65.03125 
Q 15.375 64.15625 9.8125 62.3125 
L 9.8125 71.09375 
Q 15.4375 72.65625 20.34375 73.4375 
Q 25.25 74.21875 29.59375 74.21875 
Q 40.828125 74.21875 47.359375 69.109375 
Q 53.90625 64.015625 53.90625 55.328125 
Q 53.90625 49.265625 50.4375 45.09375 
Q 46.96875 40.921875 40.578125 39.3125 
z
" id="DejaVuSans-51"/>
      </defs>
      <g transform="translate(21.55 71.549754)scale(0.1 -0.1)">
       <use xlink:href="#DejaVuSans-51"/>
       <use x="63.623047" xlink:href="#DejaVuSans-48"/>
       <use x="127.246094" xlink:href="#DejaVuSans-48"/>
       <use x="190.869141" xlink:href="#DejaVuSans-48"/>
      </g>
     </g>
    </g>
    <g id="ytick_8">
     <g id="line2d_12">
      <g>
       <use style="stroke:#000000;stroke-width:0.8;" x="54" xlink:href="#m26ad7eeed7" y="38.689564"/>
      </g>
     </g>
     <g id="text_13">
      <!-- 3500 -->
      <g transform="translate(21.55 42.488783)scale(0.1 -0.1)">
       <use xlink:href="#DejaVuSans-51"/>
       <use x="63.623047" xlink:href="#DejaVuSans-53"/>
       <use x="127.246094" xlink:href="#DejaVuSans-48"/>
       <use x="190.869141" xlink:href="#DejaVuSans-48"/>
      </g>
     </g>
    </g>
   </g>
   <g id="line2d_13">
    <path clip-path="url(#pe4b01e78f1)" d="M 69.218182 242.058242 
L 72.292562 242.058242 
L 75.366942 242.058242 
L 78.441322 242.116364 
L 81.515702 242.116364 
L 84.590083 242.00012 
L 87.664463 242.00012 
L 90.738843 241.941998 
L 93.813223 242.00012 
L 96.887603 241.4189 
L 99.961983 241.477022 
L 103.036364 241.825754 
L 106.110744 241.477022 
L 109.185124 240.953925 
L 112.259504 241.477022 
L 115.333884 241.070169 
L 118.408264 239.558998 
L 121.482645 238.454681 
L 124.557025 238.164072 
L 127.631405 237.059755 
L 130.705785 236.652901 
L 133.780165 234.502389 
L 136.854545 233.63056 
L 139.928926 231.363804 
L 143.003306 228.108975 
L 146.077686 225.900342 
L 149.152066 222.587391 
L 152.226446 214.973416 
L 155.300826 215.496514 
L 158.375207 206.894466 
L 161.449587 202.186589 
L 164.523967 198.524907 
L 167.598347 189.283518 
L 170.672727 180.274617 
L 173.747107 173.358105 
L 176.821488 166.092863 
L 179.895868 158.595132 
L 182.970248 145.459573 
L 186.044628 137.438745 
L 189.119008 127.674258 
L 192.193388 114.771187 
L 195.267769 105.529798 
L 198.342149 99.717604 
L 201.416529 90.476215 
L 204.490909 74.376437 
L 207.565289 71.295974 
L 210.639669 61.00839 
L 213.71405 60.950268 
L 216.78843 47.23349 
L 219.86281 47.872831 
L 222.93719 49.151514 
L 226.01157 47.291612 
L 229.08595 49.674611 
L 232.160331 44.443636 
L 235.234711 47.001002 
L 238.309091 50.662684 
L 241.383471 61.647731 
L 244.457851 69.37795 
L 247.532231 74.143949 
L 250.606612 84.431533 
L 253.680992 96.114043 
L 256.755372 105.239188 
L 259.829752 112.504431 
L 262.904132 121.338967 
L 265.978512 137.090013 
L 269.052893 142.262866 
L 272.127273 152.085474 
L 275.201653 161.501229 
L 278.276033 172.370032 
L 281.350413 181.495177 
L 284.424793 186.203055 
L 287.499174 192.015249 
L 290.573554 199.745467 
L 293.647934 207.650052 
L 296.722314 212.590417 
L 299.796694 216.019611 
L 302.871074 221.134342 
L 305.945455 226.132829 
L 309.019835 228.515829 
L 312.094215 229.562024 
L 315.168595 231.073195 
L 318.242975 234.618633 
L 321.317355 235.839194 
L 324.391736 237.23412 
L 327.466116 238.512803 
L 330.540496 239.500876 
L 333.614876 239.733364 
L 336.689256 240.663315 
L 339.763636 240.721437 
L 342.838017 240.837681 
L 345.912397 240.953925 
L 348.986777 241.360778 
L 352.061157 241.70951 
L 355.135537 241.825754 
L 358.209917 241.883876 
L 361.284298 241.883876 
L 364.358678 241.941998 
L 367.433058 242.058242 
L 370.507438 242.116364 
L 373.581818 242.058242 
" style="fill:none;stroke:#1f77b4;stroke-dasharray:5.55,2.4;stroke-dashoffset:0;stroke-width:1.5;"/>
    <defs>
     <path d="M 0 1 
C 0.265203 1 0.51958 0.894634 0.707107 0.707107 
C 0.894634 0.51958 1 0.265203 1 0 
C 1 -0.265203 0.894634 -0.51958 0.707107 -0.707107 
C 0.51958 -0.894634 0.265203 -1 0 -1 
C -0.265203 -1 -0.51958 -0.894634 -0.707107 -0.707107 
C -0.894634 -0.51958 -1 -0.265203 -1 0 
C -1 0.265203 -0.894634 0.51958 -0.707107 0.707107 
C -0.51958 0.894634 -0.265203 1 0 1 
z
" id="me57f8b4b28" style="stroke:#1f77b4;"/>
    </defs>
    <g clip-path="url(#pe4b01e78f1)">
     <use style="fill:#1f77b4;stroke:#1f77b4;" x="69.218182" xlink:href="#me57f8b4b28" y="242.058242"/>
     <use style="fill:#1f77b4;stroke:#1f77b4;" x="72.292562" xlink:href="#me57f8b4b28" y="242.058242"/>
     <use style="fill:#1f77b4;stroke:#1f77b4;" x="75.366942" xlink:href="#me57f8b4b28" y="242.058242"/>
     <use style="fill:#1f77b4;stroke:#1f77b4;" x="78.441322" xlink:href="#me57f8b4b28" y="242.116364"/>
     <use style="fill:#1f77b4;stroke:#1f77b4;" x="81.515702" xlink:href="#me57f8b4b28" y="242.116364"/>
     <use style="fill:#1f77b4;stroke:#1f77b4;" x="84.590083" xlink:href="#me57f8b4b28" y="242.00012"/>
     <use style="fill:#1f77b4;stroke:#1f77b4;" x="87.664463" xlink:href="#me57f8b4b28" y="242.00012"/>
     <use style="fill:#1f77b4;stroke:#1f77b4;" x="90.738843" xlink:href="#me57f8b4b28" y="241.941998"/>
     <use style="fill:#1f77b4;stroke:#1f77b4;" x="93.813223" xlink:href="#me57f8b4b28" y="242.00012"/>
     <use style="fill:#1f77b4;stroke:#1f77b4;" x="96.887603" xlink:href="#me57f8b4b28" y="241.4189"/>
     <use style="fill:#1f77b4;stroke:#1f77b4;" x="99.961983" xlink:href="#me57f8b4b28" y="241.477022"/>
     <use style="fill:#1f77b4;stroke:#1f77b4;" x="103.036364" xlink:href="#me57f8b4b28" y="241.825754"/>
     <use style="fill:#1f77b4;stroke:#1f77b4;" x="106.110744" xlink:href="#me57f8b4b28" y="241.477022"/>
     <use style="fill:#1f77b4;stroke:#1f77b4;" x="109.185124" xlink:href="#me57f8b4b28" y="240.953925"/>
     <use style="fill:#1f77b4;stroke:#1f77b4;" x="112.259504" xlink:href="#me57f8b4b28" y="241.477022"/>
     <use style="fill:#1f77b4;stroke:#1f77b4;" x="115.333884" xlink:href="#me57f8b4b28" y="241.070169"/>
     <use style="fill:#1f77b4;stroke:#1f77b4;" x="118.408264" xlink:href="#me57f8b4b28" y="239.558998"/>
     <use style="fill:#1f77b4;stroke:#1f77b4;" x="121.482645" xlink:href="#me57f8b4b28" y="238.454681"/>
     <use style="fill:#1f77b4;stroke:#1f77b4;" x="124.557025" xlink:href="#me57f8b4b28" y="238.164072"/>
     <use style="fill:#1f77b4;stroke:#1f77b4;" x="127.631405" xlink:href="#me57f8b4b28" y="237.059755"/>
     <use style="fill:#1f77b4;stroke:#1f77b4;" x="130.705785" xlink:href="#me57f8b4b28" y="236.652901"/>
     <use style="fill:#1f77b4;stroke:#1f77b4;" x="133.780165" xlink:href="#me57f8b4b28" y="234.502389"/>
     <use style="fill:#1f77b4;stroke:#1f77b4;" x="136.854545" xlink:href="#me57f8b4b28" y="233.63056"/>
     <use style="fill:#1f77b4;stroke:#1f77b4;" x="139.928926" xlink:href="#me57f8b4b28" y="231.363804"/>
     <use style="fill:#1f77b4;stroke:#1f77b4;" x="143.003306" xlink:href="#me57f8b4b28" y="228.108975"/>
     <use style="fill:#1f77b4;stroke:#1f77b4;" x="146.077686" xlink:href="#me57f8b4b28" y="225.900342"/>
     <use style="fill:#1f77b4;stroke:#1f77b4;" x="149.152066" xlink:href="#me57f8b4b28" y="222.587391"/>
     <use style="fill:#1f77b4;stroke:#1f77b4;" x="152.226446" xlink:href="#me57f8b4b28" y="214.973416"/>
     <use style="fill:#1f77b4;stroke:#1f77b4;" x="155.300826" xlink:href="#me57f8b4b28" y="215.496514"/>
     <use style="fill:#1f77b4;stroke:#1f77b4;" x="158.375207" xlink:href="#me57f8b4b28" y="206.894466"/>
     <use style="fill:#1f77b4;stroke:#1f77b4;" x="161.449587" xlink:href="#me57f8b4b28" y="202.186589"/>
     <use style="fill:#1f77b4;stroke:#1f77b4;" x="164.523967" xlink:href="#me57f8b4b28" y="198.524907"/>
     <use style="fill:#1f77b4;stroke:#1f77b4;" x="167.598347" xlink:href="#me57f8b4b28" y="189.283518"/>
     <use style="fill:#1f77b4;stroke:#1f77b4;" x="170.672727" xlink:href="#me57f8b4b28" y="180.274617"/>
     <use style="fill:#1f77b4;stroke:#1f77b4;" x="173.747107" xlink:href="#me57f8b4b28" y="173.358105"/>
     <use style="fill:#1f77b4;stroke:#1f77b4;" x="176.821488" xlink:href="#me57f8b4b28" y="166.092863"/>
     <use style="fill:#1f77b4;stroke:#1f77b4;" x="179.895868" xlink:href="#me57f8b4b28" y="158.595132"/>
     <use style="fill:#1f77b4;stroke:#1f77b4;" x="182.970248" xlink:href="#me57f8b4b28" y="145.459573"/>
     <use style="fill:#1f77b4;stroke:#1f77b4;" x="186.044628" xlink:href="#me57f8b4b28" y="137.438745"/>
     <use style="fill:#1f77b4;stroke:#1f77b4;" x="189.119008" xlink:href="#me57f8b4b28" y="127.674258"/>
     <use style="fill:#1f77b4;stroke:#1f77b4;" x="192.193388" xlink:href="#me57f8b4b28" y="114.771187"/>
     <use style="fill:#1f77b4;stroke:#1f77b4;" x="195.267769" xlink:href="#me57f8b4b28" y="105.529798"/>
     <use style="fill:#1f77b4;stroke:#1f77b4;" x="198.342149" xlink:href="#me57f8b4b28" y="99.717604"/>
     <use style="fill:#1f77b4;stroke:#1f77b4;" x="201.416529" xlink:href="#me57f8b4b28" y="90.476215"/>
     <use style="fill:#1f77b4;stroke:#1f77b4;" x="204.490909" xlink:href="#me57f8b4b28" y="74.376437"/>
     <use style="fill:#1f77b4;stroke:#1f77b4;" x="207.565289" xlink:href="#me57f8b4b28" y="71.295974"/>
     <use style="fill:#1f77b4;stroke:#1f77b4;" x="210.639669" xlink:href="#me57f8b4b28" y="61.00839"/>
     <use style="fill:#1f77b4;stroke:#1f77b4;" x="213.71405" xlink:href="#me57f8b4b28" y="60.950268"/>
     <use style="fill:#1f77b4;stroke:#1f77b4;" x="216.78843" xlink:href="#me57f8b4b28" y="47.23349"/>
     <use style="fill:#1f77b4;stroke:#1f77b4;" x="219.86281" xlink:href="#me57f8b4b28" y="47.872831"/>
     <use style="fill:#1f77b4;stroke:#1f77b4;" x="222.93719" xlink:href="#me57f8b4b28" y="49.151514"/>
     <use style="fill:#1f77b4;stroke:#1f77b4;" x="226.01157" xlink:href="#me57f8b4b28" y="47.291612"/>
     <use style="fill:#1f77b4;stroke:#1f77b4;" x="229.08595" xlink:href="#me57f8b4b28" y="49.674611"/>
     <use style="fill:#1f77b4;stroke:#1f77b4;" x="232.160331" xlink:href="#me57f8b4b28" y="44.443636"/>
     <use style="fill:#1f77b4;stroke:#1f77b4;" x="235.234711" xlink:href="#me57f8b4b28" y="47.001002"/>
     <use style="fill:#1f77b4;stroke:#1f77b4;" x="238.309091" xlink:href="#me57f8b4b28" y="50.662684"/>
     <use style="fill:#1f77b4;stroke:#1f77b4;" x="241.383471" xlink:href="#me57f8b4b28" y="61.647731"/>
     <use style="fill:#1f77b4;stroke:#1f77b4;" x="244.457851" xlink:href="#me57f8b4b28" y="69.37795"/>
     <use style="fill:#1f77b4;stroke:#1f77b4;" x="247.532231" xlink:href="#me57f8b4b28" y="74.143949"/>
     <use style="fill:#1f77b4;stroke:#1f77b4;" x="250.606612" xlink:href="#me57f8b4b28" y="84.431533"/>
     <use style="fill:#1f77b4;stroke:#1f77b4;" x="253.680992" xlink:href="#me57f8b4b28" y="96.114043"/>
     <use style="fill:#1f77b4;stroke:#1f77b4;" x="256.755372" xlink:href="#me57f8b4b28" y="105.239188"/>
     <use style="fill:#1f77b4;stroke:#1f77b4;" x="259.829752" xlink:href="#me57f8b4b28" y="112.504431"/>
     <use style="fill:#1f77b4;stroke:#1f77b4;" x="262.904132" xlink:href="#me57f8b4b28" y="121.338967"/>
     <use style="fill:#1f77b4;stroke:#1f77b4;" x="265.978512" xlink:href="#me57f8b4b28" y="137.090013"/>
     <use style="fill:#1f77b4;stroke:#1f77b4;" x="269.052893" xlink:href="#me57f8b4b28" y="142.262866"/>
     <use style="fill:#1f77b4;stroke:#1f77b4;" x="272.127273" xlink:href="#me57f8b4b28" y="152.085474"/>
     <use style="fill:#1f77b4;stroke:#1f77b4;" x="275.201653" xlink:href="#me57f8b4b28" y="161.501229"/>
     <use style="fill:#1f77b4;stroke:#1f77b4;" x="278.276033" xlink:href="#me57f8b4b28" y="172.370032"/>
     <use style="fill:#1f77b4;stroke:#1f77b4;" x="281.350413" xlink:href="#me57f8b4b28" y="181.495177"/>
     <use style="fill:#1f77b4;stroke:#1f77b4;" x="284.424793" xlink:href="#me57f8b4b28" y="186.203055"/>
     <use style="fill:#1f77b4;stroke:#1f77b4;" x="287.499174" xlink:href="#me57f8b4b28" y="192.015249"/>
     <use style="fill:#1f77b4;stroke:#1f77b4;" x="290.573554" xlink:href="#me57f8b4b28" y="199.745467"/>
     <use style="fill:#1f77b4;stroke:#1f77b4;" x="293.647934" xlink:href="#me57f8b4b28" y="207.650052"/>
     <use style="fill:#1f77b4;stroke:#1f77b4;" x="296.722314" xlink:href="#me57f8b4b28" y="212.590417"/>
     <use style="fill:#1f77b4;stroke:#1f77b4;" x="299.796694" xlink:href="#me57f8b4b28" y="216.019611"/>
     <use style="fill:#1f77b4;stroke:#1f77b4;" x="302.871074" xlink:href="#me57f8b4b28" y="221.134342"/>
     <use style="fill:#1f77b4;stroke:#1f77b4;" x="305.945455" xlink:href="#me57f8b4b28" y="226.132829"/>
     <use style="fill:#1f77b4;stroke:#1f77b4;" x="309.019835" xlink:href="#me57f8b4b28" y="228.515829"/>
     <use style="fill:#1f77b4;stroke:#1f77b4;" x="312.094215" xlink:href="#me57f8b4b28" y="229.562024"/>
     <use style="fill:#1f77b4;stroke:#1f77b4;" x="315.168595" xlink:href="#me57f8b4b28" y="231.073195"/>
     <use style="fill:#1f77b4;stroke:#1f77b4;" x="318.242975" xlink:href="#me57f8b4b28" y="234.618633"/>
     <use style="fill:#1f77b4;stroke:#1f77b4;" x="321.317355" xlink:href="#me57f8b4b28" y="235.839194"/>
     <use style="fill:#1f77b4;stroke:#1f77b4;" x="324.391736" xlink:href="#me57f8b4b28" y="237.23412"/>
     <use style="fill:#1f77b4;stroke:#1f77b4;" x="327.466116" xlink:href="#me57f8b4b28" y="238.512803"/>
     <use style="fill:#1f77b4;stroke:#1f77b4;" x="330.540496" xlink:href="#me57f8b4b28" y="239.500876"/>
     <use style="fill:#1f77b4;stroke:#1f77b4;" x="333.614876" xlink:href="#me57f8b4b28" y="239.733364"/>
     <use style="fill:#1f77b4;stroke:#1f77b4;" x="336.689256" xlink:href="#me57f8b4b28" y="240.663315"/>
     <use style="fill:#1f77b4;stroke:#1f77b4;" x="339.763636" xlink:href="#me57f8b4b28" y="240.721437"/>
     <use style="fill:#1f77b4;stroke:#1f77b4;" x="342.838017" xlink:href="#me57f8b4b28" y="240.837681"/>
     <use style="fill:#1f77b4;stroke:#1f77b4;" x="345.912397" xlink:href="#me57f8b4b28" y="240.953925"/>
     <use style="fill:#1f77b4;stroke:#1f77b4;" x="348.986777" xlink:href="#me57f8b4b28" y="241.360778"/>
     <use style="fill:#1f77b4;stroke:#1f77b4;" x="352.061157" xlink:href="#me57f8b4b28" y="241.70951"/>
     <use style="fill:#1f77b4;stroke:#1f77b4;" x="355.135537" xlink:href="#me57f8b4b28" y="241.825754"/>
     <use style="fill:#1f77b4;stroke:#1f77b4;" x="358.209917" xlink:href="#me57f8b4b28" y="241.883876"/>
     <use style="fill:#1f77b4;stroke:#1f77b4;" x="361.284298" xlink:href="#me57f8b4b28" y="241.883876"/>
     <use style="fill:#1f77b4;stroke:#1f77b4;" x="364.358678" xlink:href="#me57f8b4b28" y="241.941998"/>
     <use style="fill:#1f77b4;stroke:#1f77b4;" x="367.433058" xlink:href="#me57f8b4b28" y="242.058242"/>
     <use style="fill:#1f77b4;stroke:#1f77b4;" x="370.507438" xlink:href="#me57f8b4b28" y="242.116364"/>
     <use style="fill:#1f77b4;stroke:#1f77b4;" x="373.581818" xlink:href="#me57f8b4b28" y="242.058242"/>
    </g>
   </g>
   <g id="line2d_14">
    <path clip-path="url(#pe4b01e78f1)" d="M 100.54479 241.658019 
L 107.40757 241.244841 
L 112.825554 240.705223 
L 117.521141 240.012211 
L 121.494329 239.204464 
L 125.106319 238.244655 
L 128.357109 237.155527 
L 131.246701 235.974474 
L 134.136292 234.5606 
L 137.025884 232.88036 
L 139.554277 231.163788 
L 142.082669 229.191466 
L 144.611062 226.938288 
L 147.139455 224.379166 
L 149.667847 221.489558 
L 152.19624 218.246074 
L 154.724633 214.627165 
L 157.253025 210.613852 
L 159.781418 206.190519 
L 162.309811 201.345726 
L 165.199402 195.284746 
L 168.088994 188.664833 
L 170.978586 181.497128 
L 174.229376 172.808863 
L 177.841366 162.445301 
L 181.814554 150.309991 
L 186.87134 134.057248 
L 199.513303 93.005186 
L 203.125292 82.261315 
L 206.014884 74.320104 
L 208.543277 67.96239 
L 210.71047 63.019154 
L 212.877664 58.595371 
L 214.683659 55.338242 
L 216.489654 52.496443 
L 218.295648 50.090545 
L 219.740444 48.491597 
L 221.18524 47.190476 
L 222.630036 46.193345 
L 224.074832 45.504943 
L 225.519628 45.128554 
L 226.603224 45.052159 
L 227.686821 45.152519 
L 228.770418 45.429365 
L 230.215214 46.07167 
L 231.66001 47.023284 
L 233.104806 48.279682 
L 234.549601 49.834908 
L 235.994397 51.681628 
L 237.800392 54.386631 
L 239.606387 57.513827 
L 241.77358 61.791938 
L 243.940774 66.601885 
L 246.469167 72.821169 
L 249.358758 80.628282 
L 252.609549 90.145097 
L 256.582737 102.557185 
L 262.72312 122.643743 
L 270.308298 147.356383 
L 274.642685 160.731681 
L 278.254675 171.205626 
L 281.505465 180.006159 
L 284.756256 188.151973 
L 287.645847 194.813032 
L 290.535439 200.915577 
L 293.425031 206.459051 
L 295.953423 210.858196 
L 298.481816 214.848123 
L 301.010209 218.444665 
L 303.538601 221.66697 
L 306.066994 224.536716 
L 308.595387 227.077377 
L 311.123779 229.313541 
L 313.652172 231.270315 
L 316.180565 232.972787 
L 319.070156 234.638639 
L 321.959748 236.039882 
L 324.84934 237.209949 
L 328.10013 238.288526 
L 331.71212 239.238627 
L 335.685308 240.037825 
L 340.019696 240.678737 
L 345.076481 241.198095 
L 351.216863 241.597361 
L 353.022858 241.679942 
L 353.022858 241.679942 
" style="fill:none;stroke:#ff7f0e;stroke-dasharray:5.55,2.4;stroke-dashoffset:0;stroke-width:1.5;"/>
   </g>
   <g id="patch_3">
    <path d="M 54 252 
L 54 34.56 
" style="fill:none;stroke:#000000;stroke-linecap:square;stroke-linejoin:miter;stroke-width:0.8;"/>
   </g>
   <g id="patch_4">
    <path d="M 388.8 252 
L 388.8 34.56 
" style="fill:none;stroke:#000000;stroke-linecap:square;stroke-linejoin:miter;stroke-width:0.8;"/>
   </g>
   <g id="patch_5">
    <path d="M 54 252 
L 388.8 252 
" style="fill:none;stroke:#000000;stroke-linecap:square;stroke-linejoin:miter;stroke-width:0.8;"/>
   </g>
   <g id="patch_6">
    <path d="M 54 34.56 
L 388.8 34.56 
" style="fill:none;stroke:#000000;stroke-linecap:square;stroke-linejoin:miter;stroke-width:0.8;"/>
   </g>
   <g id="text_14">
    <!--  mean: 5948.80  -->
    <defs>
     <path id="DejaVuSans-32"/>
     <path d="M 52 44.1875 
Q 55.375 50.25 60.0625 53.125 
Q 64.75 56 71.09375 56 
Q 79.640625 56 84.28125 50.015625 
Q 88.921875 44.046875 88.921875 33.015625 
L 88.921875 0 
L 79.890625 0 
L 79.890625 32.71875 
Q 79.890625 40.578125 77.09375 44.375 
Q 74.3125 48.1875 68.609375 48.1875 
Q 61.625 48.1875 57.5625 43.546875 
Q 53.515625 38.921875 53.515625 30.90625 
L 53.515625 0 
L 44.484375 0 
L 44.484375 32.71875 
Q 44.484375 40.625 41.703125 44.40625 
Q 38.921875 48.1875 33.109375 48.1875 
Q 26.21875 48.1875 22.15625 43.53125 
Q 18.109375 38.875 18.109375 30.90625 
L 18.109375 0 
L 9.078125 0 
L 9.078125 54.6875 
L 18.109375 54.6875 
L 18.109375 46.1875 
Q 21.1875 51.21875 25.484375 53.609375 
Q 29.78125 56 35.6875 56 
Q 41.65625 56 45.828125 52.96875 
Q 50 49.953125 52 44.1875 
z
" id="DejaVuSans-109"/>
     <path d="M 56.203125 29.59375 
L 56.203125 25.203125 
L 14.890625 25.203125 
Q 15.484375 15.921875 20.484375 11.0625 
Q 25.484375 6.203125 34.421875 6.203125 
Q 39.59375 6.203125 44.453125 7.46875 
Q 49.3125 8.734375 54.109375 11.28125 
L 54.109375 2.78125 
Q 49.265625 0.734375 44.1875 -0.34375 
Q 39.109375 -1.421875 33.890625 -1.421875 
Q 20.796875 -1.421875 13.15625 6.1875 
Q 5.515625 13.8125 5.515625 26.8125 
Q 5.515625 40.234375 12.765625 48.109375 
Q 20.015625 56 32.328125 56 
Q 43.359375 56 49.78125 48.890625 
Q 56.203125 41.796875 56.203125 29.59375 
z
M 47.21875 32.234375 
Q 47.125 39.59375 43.09375 43.984375 
Q 39.0625 48.390625 32.421875 48.390625 
Q 24.90625 48.390625 20.390625 44.140625 
Q 15.875 39.890625 15.1875 32.171875 
z
" id="DejaVuSans-101"/>
     <path d="M 54.890625 33.015625 
L 54.890625 0 
L 45.90625 0 
L 45.90625 32.71875 
Q 45.90625 40.484375 42.875 44.328125 
Q 39.84375 48.1875 33.796875 48.1875 
Q 26.515625 48.1875 22.3125 43.546875 
Q 18.109375 38.921875 18.109375 30.90625 
L 18.109375 0 
L 9.078125 0 
L 9.078125 54.6875 
L 18.109375 54.6875 
L 18.109375 46.1875 
Q 21.34375 51.125 25.703125 53.5625 
Q 30.078125 56 35.796875 56 
Q 45.21875 56 50.046875 50.171875 
Q 54.890625 44.34375 54.890625 33.015625 
z
" id="DejaVuSans-110"/>
     <path d="M 11.71875 12.40625 
L 22.015625 12.40625 
L 22.015625 0 
L 11.71875 0 
z
M 11.71875 51.703125 
L 22.015625 51.703125 
L 22.015625 39.3125 
L 11.71875 39.3125 
z
" id="DejaVuSans-58"/>
     <path d="M 10.984375 1.515625 
L 10.984375 10.5 
Q 14.703125 8.734375 18.5 7.8125 
Q 22.3125 6.890625 25.984375 6.890625 
Q 35.75 6.890625 40.890625 13.453125 
Q 46.046875 20.015625 46.78125 33.40625 
Q 43.953125 29.203125 39.59375 26.953125 
Q 35.25 24.703125 29.984375 24.703125 
Q 19.046875 24.703125 12.671875 31.3125 
Q 6.296875 37.9375 6.296875 49.421875 
Q 6.296875 60.640625 12.9375 67.421875 
Q 19.578125 74.21875 30.609375 74.21875 
Q 43.265625 74.21875 49.921875 64.515625 
Q 56.59375 54.828125 56.59375 36.375 
Q 56.59375 19.140625 48.40625 8.859375 
Q 40.234375 -1.421875 26.421875 -1.421875 
Q 22.703125 -1.421875 18.890625 -0.6875 
Q 15.09375 0.046875 10.984375 1.515625 
z
M 30.609375 32.421875 
Q 37.25 32.421875 41.125 36.953125 
Q 45.015625 41.5 45.015625 49.421875 
Q 45.015625 57.28125 41.125 61.84375 
Q 37.25 66.40625 30.609375 66.40625 
Q 23.96875 66.40625 20.09375 61.84375 
Q 16.21875 57.28125 16.21875 49.421875 
Q 16.21875 41.5 20.09375 36.953125 
Q 23.96875 32.421875 30.609375 32.421875 
z
" id="DejaVuSans-57"/>
     <path d="M 37.796875 64.3125 
L 12.890625 25.390625 
L 37.796875 25.390625 
z
M 35.203125 72.90625 
L 47.609375 72.90625 
L 47.609375 25.390625 
L 58.015625 25.390625 
L 58.015625 17.1875 
L 47.609375 17.1875 
L 47.609375 0 
L 37.796875 0 
L 37.796875 17.1875 
L 4.890625 17.1875 
L 4.890625 26.703125 
z
" id="DejaVuSans-52"/>
     <path d="M 10.6875 12.40625 
L 21 12.40625 
L 21 0 
L 10.6875 0 
z
" id="DejaVuSans-46"/>
    </defs>
    <g style="fill:#008000;" transform="translate(64.424895 64.817768)scale(0.13 -0.13)">
     <use xlink:href="#DejaVuSans-32"/>
     <use x="31.787109" xlink:href="#DejaVuSans-109"/>
     <use x="129.199219" xlink:href="#DejaVuSans-101"/>
     <use x="190.722656" xlink:href="#DejaVuSans-97"/>
     <use x="252.001953" xlink:href="#DejaVuSans-110"/>
     <use x="315.380859" xlink:href="#DejaVuSans-58"/>
     <use x="349.072266" xlink:href="#DejaVuSans-32"/>
     <use x="380.859375" xlink:href="#DejaVuSans-53"/>
     <use x="444.482422" xlink:href="#DejaVuSans-57"/>
     <use x="508.105469" xlink:href="#DejaVuSans-52"/>
     <use x="571.728516" xlink:href="#DejaVuSans-56"/>
     <use x="635.351562" xlink:href="#DejaVuSans-46"/>
     <use x="667.138672" xlink:href="#DejaVuSans-56"/>
     <use x="730.761719" xlink:href="#DejaVuSans-48"/>
     <use x="794.384766" xlink:href="#DejaVuSans-32"/>
    </g>
    <!--  std: 100.16 -->
    <defs>
     <path d="M 44.28125 53.078125 
L 44.28125 44.578125 
Q 40.484375 46.53125 36.375 47.5 
Q 32.28125 48.484375 27.875 48.484375 
Q 21.1875 48.484375 17.84375 46.4375 
Q 14.5 44.390625 14.5 40.28125 
Q 14.5 37.15625 16.890625 35.375 
Q 19.28125 33.59375 26.515625 31.984375 
L 29.59375 31.296875 
Q 39.15625 29.25 43.1875 25.515625 
Q 47.21875 21.78125 47.21875 15.09375 
Q 47.21875 7.46875 41.1875 3.015625 
Q 35.15625 -1.421875 24.609375 -1.421875 
Q 20.21875 -1.421875 15.453125 -0.5625 
Q 10.6875 0.296875 5.421875 2 
L 5.421875 11.28125 
Q 10.40625 8.6875 15.234375 7.390625 
Q 20.0625 6.109375 24.8125 6.109375 
Q 31.15625 6.109375 34.5625 8.28125 
Q 37.984375 10.453125 37.984375 14.40625 
Q 37.984375 18.0625 35.515625 20.015625 
Q 33.0625 21.96875 24.703125 23.78125 
L 21.578125 24.515625 
Q 13.234375 26.265625 9.515625 29.90625 
Q 5.8125 33.546875 5.8125 39.890625 
Q 5.8125 47.609375 11.28125 51.796875 
Q 16.75 56 26.8125 56 
Q 31.78125 56 36.171875 55.265625 
Q 40.578125 54.546875 44.28125 53.078125 
z
" id="DejaVuSans-115"/>
     <path d="M 45.40625 46.390625 
L 45.40625 75.984375 
L 54.390625 75.984375 
L 54.390625 0 
L 45.40625 0 
L 45.40625 8.203125 
Q 42.578125 3.328125 38.25 0.953125 
Q 33.9375 -1.421875 27.875 -1.421875 
Q 17.96875 -1.421875 11.734375 6.484375 
Q 5.515625 14.40625 5.515625 27.296875 
Q 5.515625 40.1875 11.734375 48.09375 
Q 17.96875 56 27.875 56 
Q 33.9375 56 38.25 53.625 
Q 42.578125 51.265625 45.40625 46.390625 
z
M 14.796875 27.296875 
Q 14.796875 17.390625 18.875 11.75 
Q 22.953125 6.109375 30.078125 6.109375 
Q 37.203125 6.109375 41.296875 11.75 
Q 45.40625 17.390625 45.40625 27.296875 
Q 45.40625 37.203125 41.296875 42.84375 
Q 37.203125 48.484375 30.078125 48.484375 
Q 22.953125 48.484375 18.875 42.84375 
Q 14.796875 37.203125 14.796875 27.296875 
z
" id="DejaVuSans-100"/>
    </defs>
    <g style="fill:#008000;" transform="translate(64.424895 79.374924)scale(0.13 -0.13)">
     <use xlink:href="#DejaVuSans-32"/>
     <use x="31.787109" xlink:href="#DejaVuSans-115"/>
     <use x="83.886719" xlink:href="#DejaVuSans-116"/>
     <use x="123.095703" xlink:href="#DejaVuSans-100"/>
     <use x="186.572266" xlink:href="#DejaVuSans-58"/>
     <use x="220.263672" xlink:href="#DejaVuSans-32"/>
     <use x="252.050781" xlink:href="#DejaVuSans-49"/>
     <use x="315.673828" xlink:href="#DejaVuSans-48"/>
     <use x="379.296875" xlink:href="#DejaVuSans-48"/>
     <use x="442.919922" xlink:href="#DejaVuSans-46"/>
     <use x="474.707031" xlink:href="#DejaVuSans-49"/>
     <use x="538.330078" xlink:href="#DejaVuSans-54"/>
    </g>
   </g>
   <g id="text_15">
    <!-- totalPE for 4MeV gamma -->
    <defs>
     <path d="M 37.109375 75.984375 
L 37.109375 68.5 
L 28.515625 68.5 
Q 23.6875 68.5 21.796875 66.546875 
Q 19.921875 64.59375 19.921875 59.515625 
L 19.921875 54.6875 
L 34.71875 54.6875 
L 34.71875 47.703125 
L 19.921875 47.703125 
L 19.921875 0 
L 10.890625 0 
L 10.890625 47.703125 
L 2.296875 47.703125 
L 2.296875 54.6875 
L 10.890625 54.6875 
L 10.890625 58.5 
Q 10.890625 67.625 15.140625 71.796875 
Q 19.390625 75.984375 28.609375 75.984375 
z
" id="DejaVuSans-102"/>
     <path d="M 41.109375 46.296875 
Q 39.59375 47.171875 37.8125 47.578125 
Q 36.03125 48 33.890625 48 
Q 26.265625 48 22.1875 43.046875 
Q 18.109375 38.09375 18.109375 28.8125 
L 18.109375 0 
L 9.078125 0 
L 9.078125 54.6875 
L 18.109375 54.6875 
L 18.109375 46.1875 
Q 20.953125 51.171875 25.484375 53.578125 
Q 30.03125 56 36.53125 56 
Q 37.453125 56 38.578125 55.875 
Q 39.703125 55.765625 41.0625 55.515625 
z
" id="DejaVuSans-114"/>
     <path d="M 9.8125 72.90625 
L 24.515625 72.90625 
L 43.109375 23.296875 
L 61.8125 72.90625 
L 76.515625 72.90625 
L 76.515625 0 
L 66.890625 0 
L 66.890625 64.015625 
L 48.09375 14.015625 
L 38.1875 14.015625 
L 19.390625 64.015625 
L 19.390625 0 
L 9.8125 0 
z
" id="DejaVuSans-77"/>
     <path d="M 28.609375 0 
L 0.78125 72.90625 
L 11.078125 72.90625 
L 34.1875 11.53125 
L 57.328125 72.90625 
L 67.578125 72.90625 
L 39.796875 0 
z
" id="DejaVuSans-86"/>
     <path d="M 45.40625 27.984375 
Q 45.40625 37.75 41.375 43.109375 
Q 37.359375 48.484375 30.078125 48.484375 
Q 22.859375 48.484375 18.828125 43.109375 
Q 14.796875 37.75 14.796875 27.984375 
Q 14.796875 18.265625 18.828125 12.890625 
Q 22.859375 7.515625 30.078125 7.515625 
Q 37.359375 7.515625 41.375 12.890625 
Q 45.40625 18.265625 45.40625 27.984375 
z
M 54.390625 6.78125 
Q 54.390625 -7.171875 48.1875 -13.984375 
Q 42 -20.796875 29.203125 -20.796875 
Q 24.46875 -20.796875 20.265625 -20.09375 
Q 16.0625 -19.390625 12.109375 -17.921875 
L 12.109375 -9.1875 
Q 16.0625 -11.328125 19.921875 -12.34375 
Q 23.78125 -13.375 27.78125 -13.375 
Q 36.625 -13.375 41.015625 -8.765625 
Q 45.40625 -4.15625 45.40625 5.171875 
L 45.40625 9.625 
Q 42.625 4.78125 38.28125 2.390625 
Q 33.9375 0 27.875 0 
Q 17.828125 0 11.671875 7.65625 
Q 5.515625 15.328125 5.515625 27.984375 
Q 5.515625 40.671875 11.671875 48.328125 
Q 17.828125 56 27.875 56 
Q 33.9375 56 38.28125 53.609375 
Q 42.625 51.21875 45.40625 46.390625 
L 45.40625 54.6875 
L 54.390625 54.6875 
z
" id="DejaVuSans-103"/>
    </defs>
    <g transform="translate(146.65875 28.56)scale(0.12 -0.12)">
     <use xlink:href="#DejaVuSans-116"/>
     <use x="39.208984" xlink:href="#DejaVuSans-111"/>
     <use x="100.390625" xlink:href="#DejaVuSans-116"/>
     <use x="139.599609" xlink:href="#DejaVuSans-97"/>
     <use x="200.878906" xlink:href="#DejaVuSans-108"/>
     <use x="228.662109" xlink:href="#DejaVuSans-80"/>
     <use x="288.964844" xlink:href="#DejaVuSans-69"/>
     <use x="352.148438" xlink:href="#DejaVuSans-32"/>
     <use x="383.935547" xlink:href="#DejaVuSans-102"/>
     <use x="419.140625" xlink:href="#DejaVuSans-111"/>
     <use x="480.322266" xlink:href="#DejaVuSans-114"/>
     <use x="521.435547" xlink:href="#DejaVuSans-32"/>
     <use x="553.222656" xlink:href="#DejaVuSans-52"/>
     <use x="616.845703" xlink:href="#DejaVuSans-77"/>
     <use x="703.125" xlink:href="#DejaVuSans-101"/>
     <use x="764.648438" xlink:href="#DejaVuSans-86"/>
     <use x="833.056641" xlink:href="#DejaVuSans-32"/>
     <use x="864.84375" xlink:href="#DejaVuSans-103"/>
     <use x="928.320312" xlink:href="#DejaVuSans-97"/>
     <use x="989.599609" xlink:href="#DejaVuSans-109"/>
     <use x="1087.011719" xlink:href="#DejaVuSans-109"/>
     <use x="1184.423828" xlink:href="#DejaVuSans-97"/>
    </g>
   </g>
  </g>
 </g>
 <defs>
  <clipPath id="pe4b01e78f1">
   <rect height="217.44" width="334.8" x="54" y="34.56"/>
  </clipPath>
 </defs>
</svg>
