<?xml version="1.0" encoding="utf-8" standalone="no"?>
<!DOCTYPE svg PUBLIC "-//W3C//DTD SVG 1.1//EN"
  "http://www.w3.org/Graphics/SVG/1.1/DTD/svg11.dtd">
<!-- Created with matplotlib (https://matplotlib.org/) -->
<svg height="288pt" version="1.1" viewBox="0 0 432 288" width="432pt" xmlns="http://www.w3.org/2000/svg" xmlns:xlink="http://www.w3.org/1999/xlink">
 <defs>
  <style type="text/css">
*{stroke-linecap:butt;stroke-linejoin:round;}
  </style>
 </defs>
 <g id="figure_1">
  <g id="patch_1">
   <path d="M 0 288 
L 432 288 
L 432 0 
L 0 0 
z
" style="fill:#ffffff;"/>
  </g>
  <g id="axes_1">
   <g id="patch_2">
    <path d="M 54 252 
L 388.8 252 
L 388.8 34.56 
L 54 34.56 
z
" style="fill:#ffffff;"/>
   </g>
   <g id="matplotlib.axis_1">
    <g id="xtick_1">
     <g id="line2d_1">
      <defs>
       <path d="M 0 0 
L 0 3.5 
" id="m2e26750fc8" style="stroke:#000000;stroke-width:0.8;"/>
      </defs>
      <g>
       <use style="stroke:#000000;stroke-width:0.8;" x="57.080676" xlink:href="#m2e26750fc8" y="252"/>
      </g>
     </g>
     <g id="text_1">
      <!-- 11400 -->
      <defs>
       <path d="M 12.40625 8.296875 
L 28.515625 8.296875 
L 28.515625 63.921875 
L 10.984375 60.40625 
L 10.984375 69.390625 
L 28.421875 72.90625 
L 38.28125 72.90625 
L 38.28125 8.296875 
L 54.390625 8.296875 
L 54.390625 0 
L 12.40625 0 
z
" id="DejaVuSans-49"/>
       <path d="M 37.796875 64.3125 
L 12.890625 25.390625 
L 37.796875 25.390625 
z
M 35.203125 72.90625 
L 47.609375 72.90625 
L 47.609375 25.390625 
L 58.015625 25.390625 
L 58.015625 17.1875 
L 47.609375 17.1875 
L 47.609375 0 
L 37.796875 0 
L 37.796875 17.1875 
L 4.890625 17.1875 
L 4.890625 26.703125 
z
" id="DejaVuSans-52"/>
       <path d="M 31.78125 66.40625 
Q 24.171875 66.40625 20.328125 58.90625 
Q 16.5 51.421875 16.5 36.375 
Q 16.5 21.390625 20.328125 13.890625 
Q 24.171875 6.390625 31.78125 6.390625 
Q 39.453125 6.390625 43.28125 13.890625 
Q 47.125 21.390625 47.125 36.375 
Q 47.125 51.421875 43.28125 58.90625 
Q 39.453125 66.40625 31.78125 66.40625 
z
M 31.78125 74.21875 
Q 44.046875 74.21875 50.515625 64.515625 
Q 56.984375 54.828125 56.984375 36.375 
Q 56.984375 17.96875 50.515625 8.265625 
Q 44.046875 -1.421875 31.78125 -1.421875 
Q 19.53125 -1.421875 13.0625 8.265625 
Q 6.59375 17.96875 6.59375 36.375 
Q 6.59375 54.828125 13.0625 64.515625 
Q 19.53125 74.21875 31.78125 74.21875 
z
" id="DejaVuSans-48"/>
      </defs>
      <g transform="translate(41.174426 266.598437)scale(0.1 -0.1)">
       <use xlink:href="#DejaVuSans-49"/>
       <use x="63.623047" xlink:href="#DejaVuSans-49"/>
       <use x="127.246094" xlink:href="#DejaVuSans-52"/>
       <use x="190.869141" xlink:href="#DejaVuSans-48"/>
       <use x="254.492188" xlink:href="#DejaVuSans-48"/>
      </g>
     </g>
    </g>
    <g id="xtick_2">
     <g id="line2d_2">
      <g>
       <use style="stroke:#000000;stroke-width:0.8;" x="105.370485" xlink:href="#m2e26750fc8" y="252"/>
      </g>
     </g>
     <g id="text_2">
      <!-- 11600 -->
      <defs>
       <path d="M 33.015625 40.375 
Q 26.375 40.375 22.484375 35.828125 
Q 18.609375 31.296875 18.609375 23.390625 
Q 18.609375 15.53125 22.484375 10.953125 
Q 26.375 6.390625 33.015625 6.390625 
Q 39.65625 6.390625 43.53125 10.953125 
Q 47.40625 15.53125 47.40625 23.390625 
Q 47.40625 31.296875 43.53125 35.828125 
Q 39.65625 40.375 33.015625 40.375 
z
M 52.59375 71.296875 
L 52.59375 62.3125 
Q 48.875 64.0625 45.09375 64.984375 
Q 41.3125 65.921875 37.59375 65.921875 
Q 27.828125 65.921875 22.671875 59.328125 
Q 17.53125 52.734375 16.796875 39.40625 
Q 19.671875 43.65625 24.015625 45.921875 
Q 28.375 48.1875 33.59375 48.1875 
Q 44.578125 48.1875 50.953125 41.515625 
Q 57.328125 34.859375 57.328125 23.390625 
Q 57.328125 12.15625 50.6875 5.359375 
Q 44.046875 -1.421875 33.015625 -1.421875 
Q 20.359375 -1.421875 13.671875 8.265625 
Q 6.984375 17.96875 6.984375 36.375 
Q 6.984375 53.65625 15.1875 63.9375 
Q 23.390625 74.21875 37.203125 74.21875 
Q 40.921875 74.21875 44.703125 73.484375 
Q 48.484375 72.75 52.59375 71.296875 
z
" id="DejaVuSans-54"/>
      </defs>
      <g transform="translate(89.464235 266.598437)scale(0.1 -0.1)">
       <use xlink:href="#DejaVuSans-49"/>
       <use x="63.623047" xlink:href="#DejaVuSans-49"/>
       <use x="127.246094" xlink:href="#DejaVuSans-54"/>
       <use x="190.869141" xlink:href="#DejaVuSans-48"/>
       <use x="254.492188" xlink:href="#DejaVuSans-48"/>
      </g>
     </g>
    </g>
    <g id="xtick_3">
     <g id="line2d_3">
      <g>
       <use style="stroke:#000000;stroke-width:0.8;" x="153.660293" xlink:href="#m2e26750fc8" y="252"/>
      </g>
     </g>
     <g id="text_3">
      <!-- 11800 -->
      <defs>
       <path d="M 31.78125 34.625 
Q 24.75 34.625 20.71875 30.859375 
Q 16.703125 27.09375 16.703125 20.515625 
Q 16.703125 13.921875 20.71875 10.15625 
Q 24.75 6.390625 31.78125 6.390625 
Q 38.8125 6.390625 42.859375 10.171875 
Q 46.921875 13.96875 46.921875 20.515625 
Q 46.921875 27.09375 42.890625 30.859375 
Q 38.875 34.625 31.78125 34.625 
z
M 21.921875 38.8125 
Q 15.578125 40.375 12.03125 44.71875 
Q 8.5 49.078125 8.5 55.328125 
Q 8.5 64.0625 14.71875 69.140625 
Q 20.953125 74.21875 31.78125 74.21875 
Q 42.671875 74.21875 48.875 69.140625 
Q 55.078125 64.0625 55.078125 55.328125 
Q 55.078125 49.078125 51.53125 44.71875 
Q 48 40.375 41.703125 38.8125 
Q 48.828125 37.15625 52.796875 32.3125 
Q 56.78125 27.484375 56.78125 20.515625 
Q 56.78125 9.90625 50.3125 4.234375 
Q 43.84375 -1.421875 31.78125 -1.421875 
Q 19.734375 -1.421875 13.25 4.234375 
Q 6.78125 9.90625 6.78125 20.515625 
Q 6.78125 27.484375 10.78125 32.3125 
Q 14.796875 37.15625 21.921875 38.8125 
z
M 18.3125 54.390625 
Q 18.3125 48.734375 21.84375 45.5625 
Q 25.390625 42.390625 31.78125 42.390625 
Q 38.140625 42.390625 41.71875 45.5625 
Q 45.3125 48.734375 45.3125 54.390625 
Q 45.3125 60.0625 41.71875 63.234375 
Q 38.140625 66.40625 31.78125 66.40625 
Q 25.390625 66.40625 21.84375 63.234375 
Q 18.3125 60.0625 18.3125 54.390625 
z
" id="DejaVuSans-56"/>
      </defs>
      <g transform="translate(137.754043 266.598437)scale(0.1 -0.1)">
       <use xlink:href="#DejaVuSans-49"/>
       <use x="63.623047" xlink:href="#DejaVuSans-49"/>
       <use x="127.246094" xlink:href="#DejaVuSans-56"/>
       <use x="190.869141" xlink:href="#DejaVuSans-48"/>
       <use x="254.492188" xlink:href="#DejaVuSans-48"/>
      </g>
     </g>
    </g>
    <g id="xtick_4">
     <g id="line2d_4">
      <g>
       <use style="stroke:#000000;stroke-width:0.8;" x="201.950101" xlink:href="#m2e26750fc8" y="252"/>
      </g>
     </g>
     <g id="text_4">
      <!-- 12000 -->
      <defs>
       <path d="M 19.1875 8.296875 
L 53.609375 8.296875 
L 53.609375 0 
L 7.328125 0 
L 7.328125 8.296875 
Q 12.9375 14.109375 22.625 23.890625 
Q 32.328125 33.6875 34.8125 36.53125 
Q 39.546875 41.84375 41.421875 45.53125 
Q 43.3125 49.21875 43.3125 52.78125 
Q 43.3125 58.59375 39.234375 62.25 
Q 35.15625 65.921875 28.609375 65.921875 
Q 23.96875 65.921875 18.8125 64.3125 
Q 13.671875 62.703125 7.8125 59.421875 
L 7.8125 69.390625 
Q 13.765625 71.78125 18.9375 73 
Q 24.125 74.21875 28.421875 74.21875 
Q 39.75 74.21875 46.484375 68.546875 
Q 53.21875 62.890625 53.21875 53.421875 
Q 53.21875 48.921875 51.53125 44.890625 
Q 49.859375 40.875 45.40625 35.40625 
Q 44.1875 33.984375 37.640625 27.21875 
Q 31.109375 20.453125 19.1875 8.296875 
z
" id="DejaVuSans-50"/>
      </defs>
      <g transform="translate(186.043851 266.598437)scale(0.1 -0.1)">
       <use xlink:href="#DejaVuSans-49"/>
       <use x="63.623047" xlink:href="#DejaVuSans-50"/>
       <use x="127.246094" xlink:href="#DejaVuSans-48"/>
       <use x="190.869141" xlink:href="#DejaVuSans-48"/>
       <use x="254.492188" xlink:href="#DejaVuSans-48"/>
      </g>
     </g>
    </g>
    <g id="xtick_5">
     <g id="line2d_5">
      <g>
       <use style="stroke:#000000;stroke-width:0.8;" x="250.239909" xlink:href="#m2e26750fc8" y="252"/>
      </g>
     </g>
     <g id="text_5">
      <!-- 12200 -->
      <g transform="translate(234.333659 266.598437)scale(0.1 -0.1)">
       <use xlink:href="#DejaVuSans-49"/>
       <use x="63.623047" xlink:href="#DejaVuSans-50"/>
       <use x="127.246094" xlink:href="#DejaVuSans-50"/>
       <use x="190.869141" xlink:href="#DejaVuSans-48"/>
       <use x="254.492188" xlink:href="#DejaVuSans-48"/>
      </g>
     </g>
    </g>
    <g id="xtick_6">
     <g id="line2d_6">
      <g>
       <use style="stroke:#000000;stroke-width:0.8;" x="298.529718" xlink:href="#m2e26750fc8" y="252"/>
      </g>
     </g>
     <g id="text_6">
      <!-- 12400 -->
      <g transform="translate(282.623468 266.598437)scale(0.1 -0.1)">
       <use xlink:href="#DejaVuSans-49"/>
       <use x="63.623047" xlink:href="#DejaVuSans-50"/>
       <use x="127.246094" xlink:href="#DejaVuSans-52"/>
       <use x="190.869141" xlink:href="#DejaVuSans-48"/>
       <use x="254.492188" xlink:href="#DejaVuSans-48"/>
      </g>
     </g>
    </g>
    <g id="xtick_7">
     <g id="line2d_7">
      <g>
       <use style="stroke:#000000;stroke-width:0.8;" x="346.819526" xlink:href="#m2e26750fc8" y="252"/>
      </g>
     </g>
     <g id="text_7">
      <!-- 12600 -->
      <g transform="translate(330.913276 266.598437)scale(0.1 -0.1)">
       <use xlink:href="#DejaVuSans-49"/>
       <use x="63.623047" xlink:href="#DejaVuSans-50"/>
       <use x="127.246094" xlink:href="#DejaVuSans-54"/>
       <use x="190.869141" xlink:href="#DejaVuSans-48"/>
       <use x="254.492188" xlink:href="#DejaVuSans-48"/>
      </g>
     </g>
    </g>
    <g id="text_8">
     <!-- totalPE -->
     <defs>
      <path d="M 18.3125 70.21875 
L 18.3125 54.6875 
L 36.8125 54.6875 
L 36.8125 47.703125 
L 18.3125 47.703125 
L 18.3125 18.015625 
Q 18.3125 11.328125 20.140625 9.421875 
Q 21.96875 7.515625 27.59375 7.515625 
L 36.8125 7.515625 
L 36.8125 0 
L 27.59375 0 
Q 17.1875 0 13.234375 3.875 
Q 9.28125 7.765625 9.28125 18.015625 
L 9.28125 47.703125 
L 2.6875 47.703125 
L 2.6875 54.6875 
L 9.28125 54.6875 
L 9.28125 70.21875 
z
" id="DejaVuSans-116"/>
      <path d="M 30.609375 48.390625 
Q 23.390625 48.390625 19.1875 42.75 
Q 14.984375 37.109375 14.984375 27.296875 
Q 14.984375 17.484375 19.15625 11.84375 
Q 23.34375 6.203125 30.609375 6.203125 
Q 37.796875 6.203125 41.984375 11.859375 
Q 46.1875 17.53125 46.1875 27.296875 
Q 46.1875 37.015625 41.984375 42.703125 
Q 37.796875 48.390625 30.609375 48.390625 
z
M 30.609375 56 
Q 42.328125 56 49.015625 48.375 
Q 55.71875 40.765625 55.71875 27.296875 
Q 55.71875 13.875 49.015625 6.21875 
Q 42.328125 -1.421875 30.609375 -1.421875 
Q 18.84375 -1.421875 12.171875 6.21875 
Q 5.515625 13.875 5.515625 27.296875 
Q 5.515625 40.765625 12.171875 48.375 
Q 18.84375 56 30.609375 56 
z
" id="DejaVuSans-111"/>
      <path d="M 34.28125 27.484375 
Q 23.390625 27.484375 19.1875 25 
Q 14.984375 22.515625 14.984375 16.5 
Q 14.984375 11.71875 18.140625 8.90625 
Q 21.296875 6.109375 26.703125 6.109375 
Q 34.1875 6.109375 38.703125 11.40625 
Q 43.21875 16.703125 43.21875 25.484375 
L 43.21875 27.484375 
z
M 52.203125 31.203125 
L 52.203125 0 
L 43.21875 0 
L 43.21875 8.296875 
Q 40.140625 3.328125 35.546875 0.953125 
Q 30.953125 -1.421875 24.3125 -1.421875 
Q 15.921875 -1.421875 10.953125 3.296875 
Q 6 8.015625 6 15.921875 
Q 6 25.140625 12.171875 29.828125 
Q 18.359375 34.515625 30.609375 34.515625 
L 43.21875 34.515625 
L 43.21875 35.40625 
Q 43.21875 41.609375 39.140625 45 
Q 35.0625 48.390625 27.6875 48.390625 
Q 23 48.390625 18.546875 47.265625 
Q 14.109375 46.140625 10.015625 43.890625 
L 10.015625 52.203125 
Q 14.9375 54.109375 19.578125 55.046875 
Q 24.21875 56 28.609375 56 
Q 40.484375 56 46.34375 49.84375 
Q 52.203125 43.703125 52.203125 31.203125 
z
" id="DejaVuSans-97"/>
      <path d="M 9.421875 75.984375 
L 18.40625 75.984375 
L 18.40625 0 
L 9.421875 0 
z
" id="DejaVuSans-108"/>
      <path d="M 19.671875 64.796875 
L 19.671875 37.40625 
L 32.078125 37.40625 
Q 38.96875 37.40625 42.71875 40.96875 
Q 46.484375 44.53125 46.484375 51.125 
Q 46.484375 57.671875 42.71875 61.234375 
Q 38.96875 64.796875 32.078125 64.796875 
z
M 9.8125 72.90625 
L 32.078125 72.90625 
Q 44.34375 72.90625 50.609375 67.359375 
Q 56.890625 61.8125 56.890625 51.125 
Q 56.890625 40.328125 50.609375 34.8125 
Q 44.34375 29.296875 32.078125 29.296875 
L 19.671875 29.296875 
L 19.671875 0 
L 9.8125 0 
z
" id="DejaVuSans-80"/>
      <path d="M 9.8125 72.90625 
L 55.90625 72.90625 
L 55.90625 64.59375 
L 19.671875 64.59375 
L 19.671875 43.015625 
L 54.390625 43.015625 
L 54.390625 34.71875 
L 19.671875 34.71875 
L 19.671875 8.296875 
L 56.78125 8.296875 
L 56.78125 0 
L 9.8125 0 
z
" id="DejaVuSans-69"/>
     </defs>
     <g transform="translate(203.792969 280.276563)scale(0.1 -0.1)">
      <use xlink:href="#DejaVuSans-116"/>
      <use x="39.208984" xlink:href="#DejaVuSans-111"/>
      <use x="100.390625" xlink:href="#DejaVuSans-116"/>
      <use x="139.599609" xlink:href="#DejaVuSans-97"/>
      <use x="200.878906" xlink:href="#DejaVuSans-108"/>
      <use x="228.662109" xlink:href="#DejaVuSans-80"/>
      <use x="288.964844" xlink:href="#DejaVuSans-69"/>
     </g>
    </g>
   </g>
   <g id="matplotlib.axis_2">
    <g id="ytick_1">
     <g id="line2d_8">
      <defs>
       <path d="M 0 0 
L -3.5 0 
" id="mb7669c5407" style="stroke:#000000;stroke-width:0.8;"/>
      </defs>
      <g>
       <use style="stroke:#000000;stroke-width:0.8;" x="54" xlink:href="#mb7669c5407" y="242.116364"/>
      </g>
     </g>
     <g id="text_9">
      <!-- 0 -->
      <g transform="translate(40.6375 245.915582)scale(0.1 -0.1)">
       <use xlink:href="#DejaVuSans-48"/>
      </g>
     </g>
    </g>
    <g id="ytick_2">
     <g id="line2d_9">
      <g>
       <use style="stroke:#000000;stroke-width:0.8;" x="54" xlink:href="#mb7669c5407" y="214.911199"/>
      </g>
     </g>
     <g id="text_10">
      <!-- 500 -->
      <defs>
       <path d="M 10.796875 72.90625 
L 49.515625 72.90625 
L 49.515625 64.59375 
L 19.828125 64.59375 
L 19.828125 46.734375 
Q 21.96875 47.46875 24.109375 47.828125 
Q 26.265625 48.1875 28.421875 48.1875 
Q 40.625 48.1875 47.75 41.5 
Q 54.890625 34.8125 54.890625 23.390625 
Q 54.890625 11.625 47.5625 5.09375 
Q 40.234375 -1.421875 26.90625 -1.421875 
Q 22.3125 -1.421875 17.546875 -0.640625 
Q 12.796875 0.140625 7.71875 1.703125 
L 7.71875 11.625 
Q 12.109375 9.234375 16.796875 8.0625 
Q 21.484375 6.890625 26.703125 6.890625 
Q 35.15625 6.890625 40.078125 11.328125 
Q 45.015625 15.765625 45.015625 23.390625 
Q 45.015625 31 40.078125 35.4375 
Q 35.15625 39.890625 26.703125 39.890625 
Q 22.75 39.890625 18.8125 39.015625 
Q 14.890625 38.140625 10.796875 36.28125 
z
" id="DejaVuSans-53"/>
      </defs>
      <g transform="translate(27.9125 218.710418)scale(0.1 -0.1)">
       <use xlink:href="#DejaVuSans-53"/>
       <use x="63.623047" xlink:href="#DejaVuSans-48"/>
       <use x="127.246094" xlink:href="#DejaVuSans-48"/>
      </g>
     </g>
    </g>
    <g id="ytick_3">
     <g id="line2d_10">
      <g>
       <use style="stroke:#000000;stroke-width:0.8;" x="54" xlink:href="#mb7669c5407" y="187.706034"/>
      </g>
     </g>
     <g id="text_11">
      <!-- 1000 -->
      <g transform="translate(21.55 191.505253)scale(0.1 -0.1)">
       <use xlink:href="#DejaVuSans-49"/>
       <use x="63.623047" xlink:href="#DejaVuSans-48"/>
       <use x="127.246094" xlink:href="#DejaVuSans-48"/>
       <use x="190.869141" xlink:href="#DejaVuSans-48"/>
      </g>
     </g>
    </g>
    <g id="ytick_4">
     <g id="line2d_11">
      <g>
       <use style="stroke:#000000;stroke-width:0.8;" x="54" xlink:href="#mb7669c5407" y="160.500869"/>
      </g>
     </g>
     <g id="text_12">
      <!-- 1500 -->
      <g transform="translate(21.55 164.300088)scale(0.1 -0.1)">
       <use xlink:href="#DejaVuSans-49"/>
       <use x="63.623047" xlink:href="#DejaVuSans-53"/>
       <use x="127.246094" xlink:href="#DejaVuSans-48"/>
       <use x="190.869141" xlink:href="#DejaVuSans-48"/>
      </g>
     </g>
    </g>
    <g id="ytick_5">
     <g id="line2d_12">
      <g>
       <use style="stroke:#000000;stroke-width:0.8;" x="54" xlink:href="#mb7669c5407" y="133.295705"/>
      </g>
     </g>
     <g id="text_13">
      <!-- 2000 -->
      <g transform="translate(21.55 137.094923)scale(0.1 -0.1)">
       <use xlink:href="#DejaVuSans-50"/>
       <use x="63.623047" xlink:href="#DejaVuSans-48"/>
       <use x="127.246094" xlink:href="#DejaVuSans-48"/>
       <use x="190.869141" xlink:href="#DejaVuSans-48"/>
      </g>
     </g>
    </g>
    <g id="ytick_6">
     <g id="line2d_13">
      <g>
       <use style="stroke:#000000;stroke-width:0.8;" x="54" xlink:href="#mb7669c5407" y="106.09054"/>
      </g>
     </g>
     <g id="text_14">
      <!-- 2500 -->
      <g transform="translate(21.55 109.889758)scale(0.1 -0.1)">
       <use xlink:href="#DejaVuSans-50"/>
       <use x="63.623047" xlink:href="#DejaVuSans-53"/>
       <use x="127.246094" xlink:href="#DejaVuSans-48"/>
       <use x="190.869141" xlink:href="#DejaVuSans-48"/>
      </g>
     </g>
    </g>
    <g id="ytick_7">
     <g id="line2d_14">
      <g>
       <use style="stroke:#000000;stroke-width:0.8;" x="54" xlink:href="#mb7669c5407" y="78.885375"/>
      </g>
     </g>
     <g id="text_15">
      <!-- 3000 -->
      <defs>
       <path d="M 40.578125 39.3125 
Q 47.65625 37.796875 51.625 33 
Q 55.609375 28.21875 55.609375 21.1875 
Q 55.609375 10.40625 48.1875 4.484375 
Q 40.765625 -1.421875 27.09375 -1.421875 
Q 22.515625 -1.421875 17.65625 -0.515625 
Q 12.796875 0.390625 7.625 2.203125 
L 7.625 11.71875 
Q 11.71875 9.328125 16.59375 8.109375 
Q 21.484375 6.890625 26.8125 6.890625 
Q 36.078125 6.890625 40.9375 10.546875 
Q 45.796875 14.203125 45.796875 21.1875 
Q 45.796875 27.640625 41.28125 31.265625 
Q 36.765625 34.90625 28.71875 34.90625 
L 20.21875 34.90625 
L 20.21875 43.015625 
L 29.109375 43.015625 
Q 36.375 43.015625 40.234375 45.921875 
Q 44.09375 48.828125 44.09375 54.296875 
Q 44.09375 59.90625 40.109375 62.90625 
Q 36.140625 65.921875 28.71875 65.921875 
Q 24.65625 65.921875 20.015625 65.03125 
Q 15.375 64.15625 9.8125 62.3125 
L 9.8125 71.09375 
Q 15.4375 72.65625 20.34375 73.4375 
Q 25.25 74.21875 29.59375 74.21875 
Q 40.828125 74.21875 47.359375 69.109375 
Q 53.90625 64.015625 53.90625 55.328125 
Q 53.90625 49.265625 50.4375 45.09375 
Q 46.96875 40.921875 40.578125 39.3125 
z
" id="DejaVuSans-51"/>
      </defs>
      <g transform="translate(21.55 82.684594)scale(0.1 -0.1)">
       <use xlink:href="#DejaVuSans-51"/>
       <use x="63.623047" xlink:href="#DejaVuSans-48"/>
       <use x="127.246094" xlink:href="#DejaVuSans-48"/>
       <use x="190.869141" xlink:href="#DejaVuSans-48"/>
      </g>
     </g>
    </g>
    <g id="ytick_8">
     <g id="line2d_15">
      <g>
       <use style="stroke:#000000;stroke-width:0.8;" x="54" xlink:href="#mb7669c5407" y="51.68021"/>
      </g>
     </g>
     <g id="text_16">
      <!-- 3500 -->
      <g transform="translate(21.55 55.479429)scale(0.1 -0.1)">
       <use xlink:href="#DejaVuSans-51"/>
       <use x="63.623047" xlink:href="#DejaVuSans-53"/>
       <use x="127.246094" xlink:href="#DejaVuSans-48"/>
       <use x="190.869141" xlink:href="#DejaVuSans-48"/>
      </g>
     </g>
    </g>
   </g>
   <g id="line2d_16">
    <path clip-path="url(#pdcb72c9122)" d="M 69.218182 242.061953 
L 72.292562 242.116364 
L 75.366942 242.116364 
L 78.441322 242.061953 
L 81.515702 242.116364 
L 84.590083 242.116364 
L 87.664463 241.953133 
L 90.738843 241.953133 
L 93.813223 242.007543 
L 96.887603 241.844312 
L 99.961983 241.57226 
L 103.036364 241.354619 
L 106.110744 241.136978 
L 109.185124 241.136978 
L 112.259504 240.538464 
L 115.333884 239.83113 
L 118.408264 239.559078 
L 121.482645 238.525282 
L 124.557025 238.19882 
L 127.631405 237.273844 
L 130.705785 234.87979 
L 133.780165 232.648966 
L 136.854545 230.418143 
L 139.928926 228.404961 
L 143.003306 223.725672 
L 146.077686 221.549259 
L 149.152066 220.189001 
L 152.226446 212.680375 
L 155.300826 207.130522 
L 158.375207 202.342413 
L 161.449587 196.95579 
L 164.523967 187.978086 
L 167.598347 183.298797 
L 170.672727 170.947653 
L 173.747107 162.840513 
L 176.821488 156.692146 
L 179.895868 143.579257 
L 182.970248 132.153088 
L 186.044628 125.95031 
L 189.119008 117.081426 
L 192.193388 108.539005 
L 195.267769 92.97765 
L 198.342149 84.65287 
L 201.416529 83.945536 
L 204.490909 71.104698 
L 207.565289 58.807963 
L 210.639669 64.521048 
L 213.71405 56.250678 
L 216.78843 54.455137 
L 219.86281 44.443636 
L 222.93719 54.183085 
L 226.01157 55.325702 
L 229.08595 48.034718 
L 232.160331 64.684279 
L 235.234711 68.22095 
L 238.309091 74.042856 
L 241.383471 88.570414 
L 244.457851 94.283498 
L 247.532231 99.017197 
L 250.606612 112.075676 
L 253.680992 118.985788 
L 256.755372 131.772215 
L 259.829752 141.294023 
L 262.904132 151.523165 
L 265.978512 161.371435 
L 269.052893 169.260932 
L 272.127273 177.912175 
L 275.201653 184.767876 
L 278.276033 191.405936 
L 281.350413 198.53369 
L 284.424793 204.845288 
L 287.499174 211.428938 
L 290.573554 216.108226 
L 293.647934 221.113976 
L 296.722314 222.474235 
L 299.796694 228.568192 
L 302.871074 230.254912 
L 305.945455 230.799015 
L 309.019835 233.791583 
L 312.094215 236.022407 
L 315.168595 236.892972 
L 318.242975 237.437075 
L 321.317355 239.450257 
L 324.391736 239.232616 
L 327.466116 240.266412 
L 330.540496 240.592874 
L 333.614876 240.973747 
L 336.689256 241.57226 
L 339.763636 241.354619 
L 342.838017 241.735491 
L 345.912397 241.844312 
L 348.986777 241.735491 
L 352.061157 241.953133 
L 355.135537 241.844312 
L 358.209917 241.953133 
L 361.284298 242.116364 
L 364.358678 242.061953 
L 367.433058 242.116364 
L 370.507438 242.116364 
L 373.581818 242.061953 
" style="fill:none;stroke:#1f77b4;stroke-dasharray:5.55,2.4;stroke-dashoffset:0;stroke-width:1.5;"/>
    <defs>
     <path d="M 0 1 
C 0.265203 1 0.51958 0.894634 0.707107 0.707107 
C 0.894634 0.51958 1 0.265203 1 0 
C 1 -0.265203 0.894634 -0.51958 0.707107 -0.707107 
C 0.51958 -0.894634 0.265203 -1 0 -1 
C -0.265203 -1 -0.51958 -0.894634 -0.707107 -0.707107 
C -0.894634 -0.51958 -1 -0.265203 -1 0 
C -1 0.265203 -0.894634 0.51958 -0.707107 0.707107 
C -0.51958 0.894634 -0.265203 1 0 1 
z
" id="ma96f5271ba" style="stroke:#1f77b4;"/>
    </defs>
    <g clip-path="url(#pdcb72c9122)">
     <use style="fill:#1f77b4;stroke:#1f77b4;" x="69.218182" xlink:href="#ma96f5271ba" y="242.061953"/>
     <use style="fill:#1f77b4;stroke:#1f77b4;" x="72.292562" xlink:href="#ma96f5271ba" y="242.116364"/>
     <use style="fill:#1f77b4;stroke:#1f77b4;" x="75.366942" xlink:href="#ma96f5271ba" y="242.116364"/>
     <use style="fill:#1f77b4;stroke:#1f77b4;" x="78.441322" xlink:href="#ma96f5271ba" y="242.061953"/>
     <use style="fill:#1f77b4;stroke:#1f77b4;" x="81.515702" xlink:href="#ma96f5271ba" y="242.116364"/>
     <use style="fill:#1f77b4;stroke:#1f77b4;" x="84.590083" xlink:href="#ma96f5271ba" y="242.116364"/>
     <use style="fill:#1f77b4;stroke:#1f77b4;" x="87.664463" xlink:href="#ma96f5271ba" y="241.953133"/>
     <use style="fill:#1f77b4;stroke:#1f77b4;" x="90.738843" xlink:href="#ma96f5271ba" y="241.953133"/>
     <use style="fill:#1f77b4;stroke:#1f77b4;" x="93.813223" xlink:href="#ma96f5271ba" y="242.007543"/>
     <use style="fill:#1f77b4;stroke:#1f77b4;" x="96.887603" xlink:href="#ma96f5271ba" y="241.844312"/>
     <use style="fill:#1f77b4;stroke:#1f77b4;" x="99.961983" xlink:href="#ma96f5271ba" y="241.57226"/>
     <use style="fill:#1f77b4;stroke:#1f77b4;" x="103.036364" xlink:href="#ma96f5271ba" y="241.354619"/>
     <use style="fill:#1f77b4;stroke:#1f77b4;" x="106.110744" xlink:href="#ma96f5271ba" y="241.136978"/>
     <use style="fill:#1f77b4;stroke:#1f77b4;" x="109.185124" xlink:href="#ma96f5271ba" y="241.136978"/>
     <use style="fill:#1f77b4;stroke:#1f77b4;" x="112.259504" xlink:href="#ma96f5271ba" y="240.538464"/>
     <use style="fill:#1f77b4;stroke:#1f77b4;" x="115.333884" xlink:href="#ma96f5271ba" y="239.83113"/>
     <use style="fill:#1f77b4;stroke:#1f77b4;" x="118.408264" xlink:href="#ma96f5271ba" y="239.559078"/>
     <use style="fill:#1f77b4;stroke:#1f77b4;" x="121.482645" xlink:href="#ma96f5271ba" y="238.525282"/>
     <use style="fill:#1f77b4;stroke:#1f77b4;" x="124.557025" xlink:href="#ma96f5271ba" y="238.19882"/>
     <use style="fill:#1f77b4;stroke:#1f77b4;" x="127.631405" xlink:href="#ma96f5271ba" y="237.273844"/>
     <use style="fill:#1f77b4;stroke:#1f77b4;" x="130.705785" xlink:href="#ma96f5271ba" y="234.87979"/>
     <use style="fill:#1f77b4;stroke:#1f77b4;" x="133.780165" xlink:href="#ma96f5271ba" y="232.648966"/>
     <use style="fill:#1f77b4;stroke:#1f77b4;" x="136.854545" xlink:href="#ma96f5271ba" y="230.418143"/>
     <use style="fill:#1f77b4;stroke:#1f77b4;" x="139.928926" xlink:href="#ma96f5271ba" y="228.404961"/>
     <use style="fill:#1f77b4;stroke:#1f77b4;" x="143.003306" xlink:href="#ma96f5271ba" y="223.725672"/>
     <use style="fill:#1f77b4;stroke:#1f77b4;" x="146.077686" xlink:href="#ma96f5271ba" y="221.549259"/>
     <use style="fill:#1f77b4;stroke:#1f77b4;" x="149.152066" xlink:href="#ma96f5271ba" y="220.189001"/>
     <use style="fill:#1f77b4;stroke:#1f77b4;" x="152.226446" xlink:href="#ma96f5271ba" y="212.680375"/>
     <use style="fill:#1f77b4;stroke:#1f77b4;" x="155.300826" xlink:href="#ma96f5271ba" y="207.130522"/>
     <use style="fill:#1f77b4;stroke:#1f77b4;" x="158.375207" xlink:href="#ma96f5271ba" y="202.342413"/>
     <use style="fill:#1f77b4;stroke:#1f77b4;" x="161.449587" xlink:href="#ma96f5271ba" y="196.95579"/>
     <use style="fill:#1f77b4;stroke:#1f77b4;" x="164.523967" xlink:href="#ma96f5271ba" y="187.978086"/>
     <use style="fill:#1f77b4;stroke:#1f77b4;" x="167.598347" xlink:href="#ma96f5271ba" y="183.298797"/>
     <use style="fill:#1f77b4;stroke:#1f77b4;" x="170.672727" xlink:href="#ma96f5271ba" y="170.947653"/>
     <use style="fill:#1f77b4;stroke:#1f77b4;" x="173.747107" xlink:href="#ma96f5271ba" y="162.840513"/>
     <use style="fill:#1f77b4;stroke:#1f77b4;" x="176.821488" xlink:href="#ma96f5271ba" y="156.692146"/>
     <use style="fill:#1f77b4;stroke:#1f77b4;" x="179.895868" xlink:href="#ma96f5271ba" y="143.579257"/>
     <use style="fill:#1f77b4;stroke:#1f77b4;" x="182.970248" xlink:href="#ma96f5271ba" y="132.153088"/>
     <use style="fill:#1f77b4;stroke:#1f77b4;" x="186.044628" xlink:href="#ma96f5271ba" y="125.95031"/>
     <use style="fill:#1f77b4;stroke:#1f77b4;" x="189.119008" xlink:href="#ma96f5271ba" y="117.081426"/>
     <use style="fill:#1f77b4;stroke:#1f77b4;" x="192.193388" xlink:href="#ma96f5271ba" y="108.539005"/>
     <use style="fill:#1f77b4;stroke:#1f77b4;" x="195.267769" xlink:href="#ma96f5271ba" y="92.97765"/>
     <use style="fill:#1f77b4;stroke:#1f77b4;" x="198.342149" xlink:href="#ma96f5271ba" y="84.65287"/>
     <use style="fill:#1f77b4;stroke:#1f77b4;" x="201.416529" xlink:href="#ma96f5271ba" y="83.945536"/>
     <use style="fill:#1f77b4;stroke:#1f77b4;" x="204.490909" xlink:href="#ma96f5271ba" y="71.104698"/>
     <use style="fill:#1f77b4;stroke:#1f77b4;" x="207.565289" xlink:href="#ma96f5271ba" y="58.807963"/>
     <use style="fill:#1f77b4;stroke:#1f77b4;" x="210.639669" xlink:href="#ma96f5271ba" y="64.521048"/>
     <use style="fill:#1f77b4;stroke:#1f77b4;" x="213.71405" xlink:href="#ma96f5271ba" y="56.250678"/>
     <use style="fill:#1f77b4;stroke:#1f77b4;" x="216.78843" xlink:href="#ma96f5271ba" y="54.455137"/>
     <use style="fill:#1f77b4;stroke:#1f77b4;" x="219.86281" xlink:href="#ma96f5271ba" y="44.443636"/>
     <use style="fill:#1f77b4;stroke:#1f77b4;" x="222.93719" xlink:href="#ma96f5271ba" y="54.183085"/>
     <use style="fill:#1f77b4;stroke:#1f77b4;" x="226.01157" xlink:href="#ma96f5271ba" y="55.325702"/>
     <use style="fill:#1f77b4;stroke:#1f77b4;" x="229.08595" xlink:href="#ma96f5271ba" y="48.034718"/>
     <use style="fill:#1f77b4;stroke:#1f77b4;" x="232.160331" xlink:href="#ma96f5271ba" y="64.684279"/>
     <use style="fill:#1f77b4;stroke:#1f77b4;" x="235.234711" xlink:href="#ma96f5271ba" y="68.22095"/>
     <use style="fill:#1f77b4;stroke:#1f77b4;" x="238.309091" xlink:href="#ma96f5271ba" y="74.042856"/>
     <use style="fill:#1f77b4;stroke:#1f77b4;" x="241.383471" xlink:href="#ma96f5271ba" y="88.570414"/>
     <use style="fill:#1f77b4;stroke:#1f77b4;" x="244.457851" xlink:href="#ma96f5271ba" y="94.283498"/>
     <use style="fill:#1f77b4;stroke:#1f77b4;" x="247.532231" xlink:href="#ma96f5271ba" y="99.017197"/>
     <use style="fill:#1f77b4;stroke:#1f77b4;" x="250.606612" xlink:href="#ma96f5271ba" y="112.075676"/>
     <use style="fill:#1f77b4;stroke:#1f77b4;" x="253.680992" xlink:href="#ma96f5271ba" y="118.985788"/>
     <use style="fill:#1f77b4;stroke:#1f77b4;" x="256.755372" xlink:href="#ma96f5271ba" y="131.772215"/>
     <use style="fill:#1f77b4;stroke:#1f77b4;" x="259.829752" xlink:href="#ma96f5271ba" y="141.294023"/>
     <use style="fill:#1f77b4;stroke:#1f77b4;" x="262.904132" xlink:href="#ma96f5271ba" y="151.523165"/>
     <use style="fill:#1f77b4;stroke:#1f77b4;" x="265.978512" xlink:href="#ma96f5271ba" y="161.371435"/>
     <use style="fill:#1f77b4;stroke:#1f77b4;" x="269.052893" xlink:href="#ma96f5271ba" y="169.260932"/>
     <use style="fill:#1f77b4;stroke:#1f77b4;" x="272.127273" xlink:href="#ma96f5271ba" y="177.912175"/>
     <use style="fill:#1f77b4;stroke:#1f77b4;" x="275.201653" xlink:href="#ma96f5271ba" y="184.767876"/>
     <use style="fill:#1f77b4;stroke:#1f77b4;" x="278.276033" xlink:href="#ma96f5271ba" y="191.405936"/>
     <use style="fill:#1f77b4;stroke:#1f77b4;" x="281.350413" xlink:href="#ma96f5271ba" y="198.53369"/>
     <use style="fill:#1f77b4;stroke:#1f77b4;" x="284.424793" xlink:href="#ma96f5271ba" y="204.845288"/>
     <use style="fill:#1f77b4;stroke:#1f77b4;" x="287.499174" xlink:href="#ma96f5271ba" y="211.428938"/>
     <use style="fill:#1f77b4;stroke:#1f77b4;" x="290.573554" xlink:href="#ma96f5271ba" y="216.108226"/>
     <use style="fill:#1f77b4;stroke:#1f77b4;" x="293.647934" xlink:href="#ma96f5271ba" y="221.113976"/>
     <use style="fill:#1f77b4;stroke:#1f77b4;" x="296.722314" xlink:href="#ma96f5271ba" y="222.474235"/>
     <use style="fill:#1f77b4;stroke:#1f77b4;" x="299.796694" xlink:href="#ma96f5271ba" y="228.568192"/>
     <use style="fill:#1f77b4;stroke:#1f77b4;" x="302.871074" xlink:href="#ma96f5271ba" y="230.254912"/>
     <use style="fill:#1f77b4;stroke:#1f77b4;" x="305.945455" xlink:href="#ma96f5271ba" y="230.799015"/>
     <use style="fill:#1f77b4;stroke:#1f77b4;" x="309.019835" xlink:href="#ma96f5271ba" y="233.791583"/>
     <use style="fill:#1f77b4;stroke:#1f77b4;" x="312.094215" xlink:href="#ma96f5271ba" y="236.022407"/>
     <use style="fill:#1f77b4;stroke:#1f77b4;" x="315.168595" xlink:href="#ma96f5271ba" y="236.892972"/>
     <use style="fill:#1f77b4;stroke:#1f77b4;" x="318.242975" xlink:href="#ma96f5271ba" y="237.437075"/>
     <use style="fill:#1f77b4;stroke:#1f77b4;" x="321.317355" xlink:href="#ma96f5271ba" y="239.450257"/>
     <use style="fill:#1f77b4;stroke:#1f77b4;" x="324.391736" xlink:href="#ma96f5271ba" y="239.232616"/>
     <use style="fill:#1f77b4;stroke:#1f77b4;" x="327.466116" xlink:href="#ma96f5271ba" y="240.266412"/>
     <use style="fill:#1f77b4;stroke:#1f77b4;" x="330.540496" xlink:href="#ma96f5271ba" y="240.592874"/>
     <use style="fill:#1f77b4;stroke:#1f77b4;" x="333.614876" xlink:href="#ma96f5271ba" y="240.973747"/>
     <use style="fill:#1f77b4;stroke:#1f77b4;" x="336.689256" xlink:href="#ma96f5271ba" y="241.57226"/>
     <use style="fill:#1f77b4;stroke:#1f77b4;" x="339.763636" xlink:href="#ma96f5271ba" y="241.354619"/>
     <use style="fill:#1f77b4;stroke:#1f77b4;" x="342.838017" xlink:href="#ma96f5271ba" y="241.735491"/>
     <use style="fill:#1f77b4;stroke:#1f77b4;" x="345.912397" xlink:href="#ma96f5271ba" y="241.844312"/>
     <use style="fill:#1f77b4;stroke:#1f77b4;" x="348.986777" xlink:href="#ma96f5271ba" y="241.735491"/>
     <use style="fill:#1f77b4;stroke:#1f77b4;" x="352.061157" xlink:href="#ma96f5271ba" y="241.953133"/>
     <use style="fill:#1f77b4;stroke:#1f77b4;" x="355.135537" xlink:href="#ma96f5271ba" y="241.844312"/>
     <use style="fill:#1f77b4;stroke:#1f77b4;" x="358.209917" xlink:href="#ma96f5271ba" y="241.953133"/>
     <use style="fill:#1f77b4;stroke:#1f77b4;" x="361.284298" xlink:href="#ma96f5271ba" y="242.116364"/>
     <use style="fill:#1f77b4;stroke:#1f77b4;" x="364.358678" xlink:href="#ma96f5271ba" y="242.061953"/>
     <use style="fill:#1f77b4;stroke:#1f77b4;" x="367.433058" xlink:href="#ma96f5271ba" y="242.116364"/>
     <use style="fill:#1f77b4;stroke:#1f77b4;" x="370.507438" xlink:href="#ma96f5271ba" y="242.116364"/>
     <use style="fill:#1f77b4;stroke:#1f77b4;" x="373.581818" xlink:href="#ma96f5271ba" y="242.061953"/>
    </g>
   </g>
   <g id="line2d_17">
    <path clip-path="url(#pdcb72c9122)" d="M 81.22558 242.044749 
L 94.02238 241.831094 
L 101.990198 241.485699 
L 108.026424 241.004896 
L 112.855405 240.404319 
L 116.960039 239.681252 
L 120.581774 238.831 
L 123.962061 237.813083 
L 127.100898 236.633192 
L 129.998287 235.307376 
L 132.654226 233.86183 
L 135.310166 232.166605 
L 137.966105 230.191796 
L 140.380596 228.128099 
L 142.795086 225.784821 
L 145.209576 223.139136 
L 147.624067 220.169093 
L 150.038557 216.854206 
L 152.453048 213.176094 
L 154.867538 209.11918 
L 157.523478 204.204787 
L 160.179417 198.807493 
L 162.835356 192.924654 
L 165.732745 185.960406 
L 168.871582 177.796102 
L 172.251869 168.335239 
L 175.873605 157.525403 
L 180.219687 143.836017 
L 187.946057 118.574697 
L 193.499385 100.796475 
L 197.12112 89.914895 
L 200.018509 81.844373 
L 202.674448 75.075245 
L 205.088939 69.534485 
L 207.26198 65.109387 
L 209.193572 61.663169 
L 210.883716 59.048699 
L 212.573859 56.827047 
L 214.022553 55.246969 
L 215.471247 53.974619 
L 216.919942 53.016446 
L 218.127187 52.461528 
L 219.334432 52.130168 
L 220.541677 52.02354 
L 221.748923 52.142025 
L 222.956168 52.485201 
L 224.163413 53.05185 
L 225.370658 53.839964 
L 226.819352 55.074062 
L 228.268047 56.616762 
L 229.716741 58.460284 
L 231.406884 60.978855 
L 233.097028 63.877198 
L 235.02862 67.629613 
L 237.201661 72.373136 
L 239.616152 78.231994 
L 242.272091 85.303982 
L 245.410929 94.365561 
L 249.032664 105.538302 
L 254.344543 122.739385 
L 263.278158 151.722311 
L 267.382791 164.276754 
L 271.004527 174.669369 
L 274.384814 183.678223 
L 277.523651 191.386195 
L 280.42104 197.911007 
L 283.076979 203.384984 
L 285.732919 208.37512 
L 288.388858 212.890372 
L 291.044797 216.946117 
L 293.459288 220.251674 
L 295.873778 223.212901 
L 298.288269 225.850333 
L 300.702759 228.18595 
L 303.358699 230.433807 
L 306.014638 232.374954 
L 308.670577 234.040001 
L 311.567966 235.576489 
L 314.465354 236.856677 
L 317.604192 237.994229 
L 320.984479 238.974019 
L 324.606214 239.791001 
L 328.710848 240.484458 
L 333.539829 241.059193 
L 339.093157 241.489552 
L 346.095179 241.803472 
L 355.99459 242.006902 
L 370.722981 242.096566 
L 370.722981 242.096566 
" style="fill:none;stroke:#ff7f0e;stroke-dasharray:5.55,2.4;stroke-dashoffset:0;stroke-width:1.5;"/>
   </g>
   <g id="patch_3">
    <path d="M 54 252 
L 54 34.56 
" style="fill:none;stroke:#000000;stroke-linecap:square;stroke-linejoin:miter;stroke-width:0.8;"/>
   </g>
   <g id="patch_4">
    <path d="M 388.8 252 
L 388.8 34.56 
" style="fill:none;stroke:#000000;stroke-linecap:square;stroke-linejoin:miter;stroke-width:0.8;"/>
   </g>
   <g id="patch_5">
    <path d="M 54 252 
L 388.8 252 
" style="fill:none;stroke:#000000;stroke-linecap:square;stroke-linejoin:miter;stroke-width:0.8;"/>
   </g>
   <g id="patch_6">
    <path d="M 54 34.56 
L 388.8 34.56 
" style="fill:none;stroke:#000000;stroke-linecap:square;stroke-linejoin:miter;stroke-width:0.8;"/>
   </g>
   <g id="text_17">
    <!--  mean: 12076.87  -->
    <defs>
     <path id="DejaVuSans-32"/>
     <path d="M 52 44.1875 
Q 55.375 50.25 60.0625 53.125 
Q 64.75 56 71.09375 56 
Q 79.640625 56 84.28125 50.015625 
Q 88.921875 44.046875 88.921875 33.015625 
L 88.921875 0 
L 79.890625 0 
L 79.890625 32.71875 
Q 79.890625 40.578125 77.09375 44.375 
Q 74.3125 48.1875 68.609375 48.1875 
Q 61.625 48.1875 57.5625 43.546875 
Q 53.515625 38.921875 53.515625 30.90625 
L 53.515625 0 
L 44.484375 0 
L 44.484375 32.71875 
Q 44.484375 40.625 41.703125 44.40625 
Q 38.921875 48.1875 33.109375 48.1875 
Q 26.21875 48.1875 22.15625 43.53125 
Q 18.109375 38.875 18.109375 30.90625 
L 18.109375 0 
L 9.078125 0 
L 9.078125 54.6875 
L 18.109375 54.6875 
L 18.109375 46.1875 
Q 21.1875 51.21875 25.484375 53.609375 
Q 29.78125 56 35.6875 56 
Q 41.65625 56 45.828125 52.96875 
Q 50 49.953125 52 44.1875 
z
" id="DejaVuSans-109"/>
     <path d="M 56.203125 29.59375 
L 56.203125 25.203125 
L 14.890625 25.203125 
Q 15.484375 15.921875 20.484375 11.0625 
Q 25.484375 6.203125 34.421875 6.203125 
Q 39.59375 6.203125 44.453125 7.46875 
Q 49.3125 8.734375 54.109375 11.28125 
L 54.109375 2.78125 
Q 49.265625 0.734375 44.1875 -0.34375 
Q 39.109375 -1.421875 33.890625 -1.421875 
Q 20.796875 -1.421875 13.15625 6.1875 
Q 5.515625 13.8125 5.515625 26.8125 
Q 5.515625 40.234375 12.765625 48.109375 
Q 20.015625 56 32.328125 56 
Q 43.359375 56 49.78125 48.890625 
Q 56.203125 41.796875 56.203125 29.59375 
z
M 47.21875 32.234375 
Q 47.125 39.59375 43.09375 43.984375 
Q 39.0625 48.390625 32.421875 48.390625 
Q 24.90625 48.390625 20.390625 44.140625 
Q 15.875 39.890625 15.1875 32.171875 
z
" id="DejaVuSans-101"/>
     <path d="M 54.890625 33.015625 
L 54.890625 0 
L 45.90625 0 
L 45.90625 32.71875 
Q 45.90625 40.484375 42.875 44.328125 
Q 39.84375 48.1875 33.796875 48.1875 
Q 26.515625 48.1875 22.3125 43.546875 
Q 18.109375 38.921875 18.109375 30.90625 
L 18.109375 0 
L 9.078125 0 
L 9.078125 54.6875 
L 18.109375 54.6875 
L 18.109375 46.1875 
Q 21.34375 51.125 25.703125 53.5625 
Q 30.078125 56 35.796875 56 
Q 45.21875 56 50.046875 50.171875 
Q 54.890625 44.34375 54.890625 33.015625 
z
" id="DejaVuSans-110"/>
     <path d="M 11.71875 12.40625 
L 22.015625 12.40625 
L 22.015625 0 
L 11.71875 0 
z
M 11.71875 51.703125 
L 22.015625 51.703125 
L 22.015625 39.3125 
L 11.71875 39.3125 
z
" id="DejaVuSans-58"/>
     <path d="M 8.203125 72.90625 
L 55.078125 72.90625 
L 55.078125 68.703125 
L 28.609375 0 
L 18.3125 0 
L 43.21875 64.59375 
L 8.203125 64.59375 
z
" id="DejaVuSans-55"/>
     <path d="M 10.6875 12.40625 
L 21 12.40625 
L 21 0 
L 10.6875 0 
z
" id="DejaVuSans-46"/>
    </defs>
    <g style="fill:#008000;" transform="translate(81.22558 75.210285)scale(0.13 -0.13)">
     <use xlink:href="#DejaVuSans-32"/>
     <use x="31.787109" xlink:href="#DejaVuSans-109"/>
     <use x="129.199219" xlink:href="#DejaVuSans-101"/>
     <use x="190.722656" xlink:href="#DejaVuSans-97"/>
     <use x="252.001953" xlink:href="#DejaVuSans-110"/>
     <use x="315.380859" xlink:href="#DejaVuSans-58"/>
     <use x="349.072266" xlink:href="#DejaVuSans-32"/>
     <use x="380.859375" xlink:href="#DejaVuSans-49"/>
     <use x="444.482422" xlink:href="#DejaVuSans-50"/>
     <use x="508.105469" xlink:href="#DejaVuSans-48"/>
     <use x="571.728516" xlink:href="#DejaVuSans-55"/>
     <use x="635.351562" xlink:href="#DejaVuSans-54"/>
     <use x="698.974609" xlink:href="#DejaVuSans-46"/>
     <use x="730.761719" xlink:href="#DejaVuSans-56"/>
     <use x="794.384766" xlink:href="#DejaVuSans-55"/>
     <use x="858.007812" xlink:href="#DejaVuSans-32"/>
    </g>
    <!--  std: 145.27 -->
    <defs>
     <path d="M 44.28125 53.078125 
L 44.28125 44.578125 
Q 40.484375 46.53125 36.375 47.5 
Q 32.28125 48.484375 27.875 48.484375 
Q 21.1875 48.484375 17.84375 46.4375 
Q 14.5 44.390625 14.5 40.28125 
Q 14.5 37.15625 16.890625 35.375 
Q 19.28125 33.59375 26.515625 31.984375 
L 29.59375 31.296875 
Q 39.15625 29.25 43.1875 25.515625 
Q 47.21875 21.78125 47.21875 15.09375 
Q 47.21875 7.46875 41.1875 3.015625 
Q 35.15625 -1.421875 24.609375 -1.421875 
Q 20.21875 -1.421875 15.453125 -0.5625 
Q 10.6875 0.296875 5.421875 2 
L 5.421875 11.28125 
Q 10.40625 8.6875 15.234375 7.390625 
Q 20.0625 6.109375 24.8125 6.109375 
Q 31.15625 6.109375 34.5625 8.28125 
Q 37.984375 10.453125 37.984375 14.40625 
Q 37.984375 18.0625 35.515625 20.015625 
Q 33.0625 21.96875 24.703125 23.78125 
L 21.578125 24.515625 
Q 13.234375 26.265625 9.515625 29.90625 
Q 5.8125 33.546875 5.8125 39.890625 
Q 5.8125 47.609375 11.28125 51.796875 
Q 16.75 56 26.8125 56 
Q 31.78125 56 36.171875 55.265625 
Q 40.578125 54.546875 44.28125 53.078125 
z
" id="DejaVuSans-115"/>
     <path d="M 45.40625 46.390625 
L 45.40625 75.984375 
L 54.390625 75.984375 
L 54.390625 0 
L 45.40625 0 
L 45.40625 8.203125 
Q 42.578125 3.328125 38.25 0.953125 
Q 33.9375 -1.421875 27.875 -1.421875 
Q 17.96875 -1.421875 11.734375 6.484375 
Q 5.515625 14.40625 5.515625 27.296875 
Q 5.515625 40.1875 11.734375 48.09375 
Q 17.96875 56 27.875 56 
Q 33.9375 56 38.25 53.625 
Q 42.578125 51.265625 45.40625 46.390625 
z
M 14.796875 27.296875 
Q 14.796875 17.390625 18.875 11.75 
Q 22.953125 6.109375 30.078125 6.109375 
Q 37.203125 6.109375 41.296875 11.75 
Q 45.40625 17.390625 45.40625 27.296875 
Q 45.40625 37.203125 41.296875 42.84375 
Q 37.203125 48.484375 30.078125 48.484375 
Q 22.953125 48.484375 18.875 42.84375 
Q 14.796875 37.203125 14.796875 27.296875 
z
" id="DejaVuSans-100"/>
    </defs>
    <g style="fill:#008000;" transform="translate(81.22558 89.767441)scale(0.13 -0.13)">
     <use xlink:href="#DejaVuSans-32"/>
     <use x="31.787109" xlink:href="#DejaVuSans-115"/>
     <use x="83.886719" xlink:href="#DejaVuSans-116"/>
     <use x="123.095703" xlink:href="#DejaVuSans-100"/>
     <use x="186.572266" xlink:href="#DejaVuSans-58"/>
     <use x="220.263672" xlink:href="#DejaVuSans-32"/>
     <use x="252.050781" xlink:href="#DejaVuSans-49"/>
     <use x="315.673828" xlink:href="#DejaVuSans-52"/>
     <use x="379.296875" xlink:href="#DejaVuSans-53"/>
     <use x="442.919922" xlink:href="#DejaVuSans-46"/>
     <use x="474.707031" xlink:href="#DejaVuSans-50"/>
     <use x="538.330078" xlink:href="#DejaVuSans-55"/>
    </g>
   </g>
   <g id="text_18">
    <!-- totalPE for 8MeV gamma -->
    <defs>
     <path d="M 37.109375 75.984375 
L 37.109375 68.5 
L 28.515625 68.5 
Q 23.6875 68.5 21.796875 66.546875 
Q 19.921875 64.59375 19.921875 59.515625 
L 19.921875 54.6875 
L 34.71875 54.6875 
L 34.71875 47.703125 
L 19.921875 47.703125 
L 19.921875 0 
L 10.890625 0 
L 10.890625 47.703125 
L 2.296875 47.703125 
L 2.296875 54.6875 
L 10.890625 54.6875 
L 10.890625 58.5 
Q 10.890625 67.625 15.140625 71.796875 
Q 19.390625 75.984375 28.609375 75.984375 
z
" id="DejaVuSans-102"/>
     <path d="M 41.109375 46.296875 
Q 39.59375 47.171875 37.8125 47.578125 
Q 36.03125 48 33.890625 48 
Q 26.265625 48 22.1875 43.046875 
Q 18.109375 38.09375 18.109375 28.8125 
L 18.109375 0 
L 9.078125 0 
L 9.078125 54.6875 
L 18.109375 54.6875 
L 18.109375 46.1875 
Q 20.953125 51.171875 25.484375 53.578125 
Q 30.03125 56 36.53125 56 
Q 37.453125 56 38.578125 55.875 
Q 39.703125 55.765625 41.0625 55.515625 
z
" id="DejaVuSans-114"/>
     <path d="M 9.8125 72.90625 
L 24.515625 72.90625 
L 43.109375 23.296875 
L 61.8125 72.90625 
L 76.515625 72.90625 
L 76.515625 0 
L 66.890625 0 
L 66.890625 64.015625 
L 48.09375 14.015625 
L 38.1875 14.015625 
L 19.390625 64.015625 
L 19.390625 0 
L 9.8125 0 
z
" id="DejaVuSans-77"/>
     <path d="M 28.609375 0 
L 0.78125 72.90625 
L 11.078125 72.90625 
L 34.1875 11.53125 
L 57.328125 72.90625 
L 67.578125 72.90625 
L 39.796875 0 
z
" id="DejaVuSans-86"/>
     <path d="M 45.40625 27.984375 
Q 45.40625 37.75 41.375 43.109375 
Q 37.359375 48.484375 30.078125 48.484375 
Q 22.859375 48.484375 18.828125 43.109375 
Q 14.796875 37.75 14.796875 27.984375 
Q 14.796875 18.265625 18.828125 12.890625 
Q 22.859375 7.515625 30.078125 7.515625 
Q 37.359375 7.515625 41.375 12.890625 
Q 45.40625 18.265625 45.40625 27.984375 
z
M 54.390625 6.78125 
Q 54.390625 -7.171875 48.1875 -13.984375 
Q 42 -20.796875 29.203125 -20.796875 
Q 24.46875 -20.796875 20.265625 -20.09375 
Q 16.0625 -19.390625 12.109375 -17.921875 
L 12.109375 -9.1875 
Q 16.0625 -11.328125 19.921875 -12.34375 
Q 23.78125 -13.375 27.78125 -13.375 
Q 36.625 -13.375 41.015625 -8.765625 
Q 45.40625 -4.15625 45.40625 5.171875 
L 45.40625 9.625 
Q 42.625 4.78125 38.28125 2.390625 
Q 33.9375 0 27.875 0 
Q 17.828125 0 11.671875 7.65625 
Q 5.515625 15.328125 5.515625 27.984375 
Q 5.515625 40.671875 11.671875 48.328125 
Q 17.828125 56 27.875 56 
Q 33.9375 56 38.28125 53.609375 
Q 42.625 51.21875 45.40625 46.390625 
L 45.40625 54.6875 
L 54.390625 54.6875 
z
" id="DejaVuSans-103"/>
    </defs>
    <g transform="translate(146.65875 28.56)scale(0.12 -0.12)">
     <use xlink:href="#DejaVuSans-116"/>
     <use x="39.208984" xlink:href="#DejaVuSans-111"/>
     <use x="100.390625" xlink:href="#DejaVuSans-116"/>
     <use x="139.599609" xlink:href="#DejaVuSans-97"/>
     <use x="200.878906" xlink:href="#DejaVuSans-108"/>
     <use x="228.662109" xlink:href="#DejaVuSans-80"/>
     <use x="288.964844" xlink:href="#DejaVuSans-69"/>
     <use x="352.148438" xlink:href="#DejaVuSans-32"/>
     <use x="383.935547" xlink:href="#DejaVuSans-102"/>
     <use x="419.140625" xlink:href="#DejaVuSans-111"/>
     <use x="480.322266" xlink:href="#DejaVuSans-114"/>
     <use x="521.435547" xlink:href="#DejaVuSans-32"/>
     <use x="553.222656" xlink:href="#DejaVuSans-56"/>
     <use x="616.845703" xlink:href="#DejaVuSans-77"/>
     <use x="703.125" xlink:href="#DejaVuSans-101"/>
     <use x="764.648438" xlink:href="#DejaVuSans-86"/>
     <use x="833.056641" xlink:href="#DejaVuSans-32"/>
     <use x="864.84375" xlink:href="#DejaVuSans-103"/>
     <use x="928.320312" xlink:href="#DejaVuSans-97"/>
     <use x="989.599609" xlink:href="#DejaVuSans-109"/>
     <use x="1087.011719" xlink:href="#DejaVuSans-109"/>
     <use x="1184.423828" xlink:href="#DejaVuSans-97"/>
    </g>
   </g>
  </g>
 </g>
 <defs>
  <clipPath id="pdcb72c9122">
   <rect height="217.44" width="334.8" x="54" y="34.56"/>
  </clipPath>
 </defs>
</svg>
